<svg width="180" height="180" viewBox="0 0 180 180" fill="none" xmlns="http://www.w3.org/2000/svg">
    <path d="M147.81 144.357C193.022 139.504 165.51 96.589 113.372 105.153C119.144 110.482 124.531 116.381 128.283 126.182C128.283 126.182 117.316 119.236 106.639 110.291C96.0572 140.456 132.515 202.687 147.81 144.357Z" fill="white" />
    <path d="M67.5835 165.766C92.5942 203.258 118.567 159.486 87.1111 117.618C84.9948 125.23 82.2052 132.652 74.9905 140.36C74.9905 140.36 76.1449 127.514 79.4155 114.002C47.3825 118.474 8.13497 178.993 67.5835 165.766Z" fill="white" />
    <path d="M64.2191 100.966C56.5235 102.869 48.6355 104.011 38.2463 101.632C38.2463 101.632 50.1746 96.3989 63.642 92.5927C44.1143 67.1863 -28.6095 62.9995 12.2735 107.722C-8.50469 147.783 42.7675 148.734 64.2191 100.966Z" fill="white" />
    <path d="M67.1026 74.0373C61.5232 68.5183 56.3287 62.4283 52.9618 52.4371C52.9618 52.4371 63.6395 59.764 74.0286 69.1844C85.7645 39.496 51.6151 -24.0677 34.2037 33.6915C-11.2005 36.8316 14.676 80.6981 67.1026 74.0373Z" fill="white" />
    <path d="M103.754 39.3045C103.754 39.3045 102.888 52.1504 100.002 65.7576C131.843 60.5241 169.648 -0.946141 110.487 13.8029C84.5145 -23.1173 59.6961 21.225 92.2102 62.4272C94.1341 54.7196 96.7314 47.2975 103.754 39.3045Z" fill="white" />
    <path d="M114.816 77.2735C122.416 74.8946 130.208 73.0866 140.693 74.7994C140.693 74.7994 129.15 80.8893 115.971 85.552C137.326 109.531 210.05 108.77 166.185 66.9015C184.173 25.6042 132.997 28.1734 114.816 77.2735Z" fill="white" />
    <path d="M80.645 108.177C79.4313 108.616 78.0522 108.342 76.5075 107.354C75.0732 106.367 74.3561 105.214 74.3561 103.898C74.3561 102.581 74.5767 101.648 75.0181 101.1C75.5697 100.551 76.5627 99.9475 77.997 99.2892C79.8726 98.1919 81.5276 97.0946 82.9619 95.9973C84.5066 94.7903 86.1615 92.9798 87.9268 90.5657C85.2789 89.249 83.0171 88.426 81.1414 88.0968C79.2658 87.6579 77.2798 87.3836 75.1835 87.2739C73.6389 87.1642 72.4804 86.9996 71.7081 86.7801C71.0461 86.4509 70.4945 85.7925 70.0531 84.805C69.7221 84.1466 69.5566 83.4882 69.5566 82.8299C69.5566 81.6229 69.9428 80.5256 70.7151 79.538C71.5978 78.5505 72.5908 78.0567 73.6941 78.0567C74.7974 78.0567 75.6249 78.2761 76.1765 78.7151C76.7282 79.0442 77.3902 79.7575 78.1625 80.8548C79.4865 82.5007 80.8105 83.9272 82.1344 85.1342C83.5687 86.3412 85.5547 87.7128 88.0923 89.249C87.982 86.0669 87.7062 83.598 87.2648 81.8423C86.8235 79.9769 86.1615 77.8921 85.2789 75.5878C84.6169 73.8321 84.2859 72.68 84.2859 72.1313C84.2859 71.473 84.4514 70.8146 84.7824 70.1562C85.4444 68.9492 86.8235 68.3457 88.9198 68.3457C90.9058 68.3457 92.2849 68.8944 93.0573 69.9916C93.3882 70.65 93.5537 71.2535 93.5537 71.8022C93.5537 72.5703 93.1676 73.8321 92.3953 75.5878C91.4023 77.8921 90.63 80.0318 90.0783 82.0069C89.637 83.8723 89.3611 86.3412 89.2508 89.4136C91.6781 88.2066 93.6641 86.9996 95.2087 85.7925C96.7534 84.4758 98.298 82.8847 99.8426 81.0194C100.836 79.8123 101.663 78.9345 102.325 78.3859C103.097 77.7275 103.925 77.3983 104.808 77.3983C105.911 77.2886 106.959 77.7824 107.952 78.8796C108.945 79.8672 109.441 80.9645 109.441 82.1715C109.441 82.9396 109.166 83.598 108.614 84.1466C108.062 84.6953 107.235 85.1342 106.132 85.4634C105.139 85.7925 104.035 86.0669 102.822 86.2863C100.284 86.6155 98.0773 87.0544 96.2017 87.6031C94.3261 88.1517 92.1746 89.1393 89.7473 90.5657C93.3882 94.4062 97.1395 97.0946 101.001 98.6308C102.215 99.0697 103.097 99.5086 103.649 99.9475C104.201 100.386 104.642 101.045 104.973 101.923C105.304 102.8 105.139 103.788 104.477 104.885C103.925 105.983 103.097 106.86 101.994 107.519C100.891 108.177 99.8978 108.287 99.0152 107.848C98.1325 107.519 97.5257 107.08 97.1947 106.531C96.8637 105.873 96.4224 104.83 95.8707 103.404C95.319 101.539 94.5467 99.6732 93.5537 97.8078C92.5608 95.9424 90.961 93.8027 88.7543 91.3887C87.0994 93.8027 85.9409 95.9424 85.2789 97.8078C84.6169 99.5635 84.1204 101.429 83.7894 103.404C83.5687 104.94 83.2929 106.037 82.9619 106.696C82.6309 107.354 81.8586 107.848 80.645 108.177Z" fill="white" />
</svg>