<?xml version="1.0" standalone="no"?>
<!DOCTYPE svg PUBLIC "-//W3C//DTD SVG 1.1//EN" "http://www.w3.org/Graphics/SVG/1.1/DTD/svg11.dtd" >
<svg xmlns="http://www.w3.org/2000/svg" xmlns:xlink="http://www.w3.org/1999/xlink" version="1.1">
<metadata>
Created by FontForge 20170731 at Mon Sep  6 16:50:24 2021
 By Aleksey,,,
(c) Hishand Studio. 2021. All Rights Reserved
</metadata>
<defs>
<font id="LekyCalgria-PersonalUse" horiz-adv-x="1464" >
  <font-face 
    font-family="Leky Calgria"
    font-weight="400"
    font-stretch="normal"
    units-per-em="2048"
    panose-1="2 0 6 0 0 0 0 0 0 0"
    ascent="1638"
    descent="-410"
    x-height="1709"
    cap-height="2625"
    bbox="-600 -1612.42 4725 4570"
    underline-thickness="150"
    underline-position="-442"
    unicode-range="U+001D-E037"
  />
<missing-glyph horiz-adv-x="1024" 
 />
    <glyph glyph-name="C_A" unicode="CA" horiz-adv-x="4565" 
d="M4565 -13v0h-585q34 0 41.5 41.5t-1 101.5t-24 120t-28.5 101l-13 41v-1q-86 217 -261.5 362t-395 225.5t-439.5 103.5q-12 -31 -42 -111q-51 -133 -115.5 -301t-98.5 -259q-7 -20 -22 -67.5t-29.5 -107.5t-21 -116.5t2.5 -94.5t43 -38h-307q35 0 74 42t76.5 102
t68 120.5t48.5 102l18 41.5l-1 -2l144 376q60 159 121 318q-186 16 -370.5 6.5t-368.5 -27.5q-168 -16 -337 -26q-129 -8 -257 9t-243 77q-102 55 -176 144.5t-93 206.5v0v1q7 1 60 8t120 16t119 15.5l52 6.5l9.5 -46t33.5 -112.5t67.5 -132.5t110.5 -110t162 -44h0.5
t0.5 0.5t0.5 0.5h0.5v0h-0.5t-1.5 -1q166 8 329 26q108 12 217 20q290 25 580 0q14 39 92 243.5t179.5 470t185 485t109.5 286.5h40l76 -198l36 -96q81 -212 229.5 -601t290.5 -762q157 -412 213 -559v1l18 -41.5t48 -102t66.5 -120.5t75.5 -102t73 -42zM3595 873v0
q159 -105 268 -241l-588 1542l-401 -1053q192 -22 375 -82t346 -166zM2341 458v0q-247 -281 -598 -393.5t-716 -27.5q-274 69 -495 240t-355 420q-145 278 -153.5 586.5t122.5 593.5q123 259 337.5 442.5t488.5 264.5q311 89 623.5 27t567.5 -262q-73 -56 -145 -113
q-43 -33 -85 -66q-98 109 -217.5 195t-256.5 139q-125 48 -258 57q-66 4 -132 -3q-10 0 -21 -1q-24 -2 -49 -5.5t-42 -13.5q-76 -24 -147 -57v0v0v0v0v0q-157 -82 -261.5 -221t-156.5 -306q-73 -234 -59 -480.5t101 -479t233 -425.5q99 -131 225 -237.5t275 -174.5
q122 -56 264.5 -78.5t273.5 14.5v0v0q90 26 172 66.5t153 102.5q135 123 211 289q50 -46 100 -93z" />
    <glyph glyph-name="C_C" unicode="CC" horiz-adv-x="3297" 
d="M3199 537v0q13 -12 34.5 -32t40.5 -37.5t25 -22.5q-52 -61 -111 -115q-246 -221 -563 -302t-639 -5q-85 21 -167 53q-386 -149 -794 -55q-277 70 -499.5 243t-355.5 426q-145 281 -150 591.5t131 596.5q123 250 332 428t475 259q437 126 857 -34q51 20 104 36
q313 92 629 31t573 -263q-74 -57 -148 -115l-82 -64q-98 108 -216.5 194t-255.5 139q-125 48 -258 58q-62 4 -124 -1q-33 -3 -66 -9q-6 -2 -13 -3q-12 -1 -23.5 -3.5t-19.5 -6.5q-23 -7 -46 -16q156 -67 291 -174l-148 -116l-82 -64q-124 138 -280 237
q-107 -84 -181.5 -198.5t-116.5 -244.5q-74 -233 -61.5 -478t97 -476.5t227.5 -425.5q152 -208 375 -352q19 14 37 30q135 123 211 289q13 -12 34.5 -31.5t40.5 -37.5t25 -23q-52 -61 -111 -115q-88 -79 -188 -141q143 -82 301 -113.5t322 5.5h1v0v0q90 26 172 66.5
t153 102.5q135 123 211 289zM1702 77v0v0q33 10 64 21q-416 188 -635 593q-145 282 -150 592.5t131 596.5q169 341 487 541q-68 38 -141 66q-125 48 -258 58q-62 4 -124 -1q-33 -3 -66 -9q-6 -1 -14 -2q-11 -2 -22.5 -4t-53.5 -16.5t-113 -46.5v0v0v0v0v0
q-155 -82 -259 -218.5t-157 -301.5q-74 -233 -61.5 -477.5t97 -476.5t227.5 -426q119 -162 284.5 -289.5t360.5 -186t402 -13.5h1z" />
    <glyph glyph-name="C_O" unicode="CO" horiz-adv-x="2338" 
d="M2172 1449v0q13 -66 15 -134q3 -267 -144 -480.5t-397 -305.5q-246 -84 -490 -15t-410 268q-159 202 -177.5 451t108.5 472q128 212 346.5 317.5t463.5 73.5q260 -40 445 -215t240 -432zM1721 587v0l24 16q25 15 48 34q111 98 159 232.5t46 281t-43 279.5
q-61 204 -200.5 371.5t-346.5 234.5q-187 56 -363 -30q-86 -45 -146 -120.5t-94 -164.5q-78 -218 -35 -448.5t175 -417.5q73 -103 176 -185t225.5 -120.5t253.5 -10.5q4 0 10 2t12 5q4 2 8 3q15 5 29 11q32 12 62 27zM2239 526v0q12 -11 33.5 -31t40.5 -38t25 -23
q-52 -61 -111 -114q-246 -221 -563 -302.5t-638 -5.5q-277 70 -499.5 243.5t-356.5 425.5q-145 281 -150 592t131 596q123 250 332 428t475 259q313 93 629 31.5t573 -262.5l-148 -116l-82 -64q-98 109 -216.5 195t-255.5 139q-125 48 -258 57q-62 5 -123 -1q-34 -3 -66 -9
l-14 -2q-12 -1 -23.5 -3.5t-53 -16.5t-113.5 -47v0v0v0v0v0q-154 -82 -258.5 -218.5t-157.5 -301.5q-74 -233 -61.5 -477.5t97 -476.5t227.5 -425q120 -162 285 -289.5t360 -186t403 -14.5v0v0v0q90 26 172 66.5t153 102.5q135 123 212 289z" />
    <glyph glyph-name="O_O" unicode="OO" horiz-adv-x="4164" 
d="M4158 1332v0q6 -286 -102.5 -541.5t-308.5 -448.5t-468 -290q-308 -106 -621.5 -60.5t-576.5 225.5q-144 -102 -314 -163q-400 -135 -797 -23.5t-667 435.5q-258 328 -288 733t177 768q208 344 562.5 515.5t754.5 120.5q320 -47 575 -229q204 141 444.5 201.5t492.5 26.5
q422 -66 723 -351t389 -703q22 -107 25 -216zM2139 583v0q33 -47 72 -93q119 236 126.5 509t-68.5 521q-94 317 -308 582q-28 -55 -50 -111q-86 -234 -81 -483t86 -487t223 -438zM2006 231v0q13 11 25 23q-119 91 -216 210q-258 328 -288 733.5t177 767.5q74 126 173 231
q-209 218 -497 309q-149 44 -300.5 33t-290.5 -82q-139 -73 -237 -195.5t-153 -268.5q-86 -233 -81 -482.5t86 -487t223 -437.5q118 -168 285.5 -301.5t366.5 -195.5t412 -17l6 2t14 4.5l16 5t13 4.5q24 8 48 18q51 19 100 43q20 14 40 27q40 25 78 56zM3518 229v0
q179 158 257.5 377t75 457.5t-69.5 455.5q-65 217 -189 416t-300.5 349t-399.5 219q-149 44 -300.5 33t-290.5 -82q-92 -47 -166 -118q186 -146 312 -346.5t174 -439.5q22 -107 25 -217q6 -264 -87.5 -503.5t-267.5 -428.5q120 -122 266.5 -210.5t310.5 -123.5t335 3l6 1.5
t14 4t16 5.5t13 4l48 18q51 20 100 44l40 26q40 25 78 56zM1944 1304v0q0 -53 37.5 -91t91.5 -38q53 0 90.5 38t37.5 91t-37.5 91t-90.5 38q-54 0 -91.5 -38t-37.5 -91z" />
    <glyph glyph-name="Q_A" unicode="QA" horiz-adv-x="4726" 
d="M4725 -18v0h-81h-191h-199.5h-113.5q36 0 42.5 44t-3 107t-25.5 124q-70 135 -167 253q-46 57 -101.5 98t-128.5 53q-181 23 -359 -20q-133 -32 -258 -86.5t-247 -115.5q-71 -36 -142 -70q-9 -26 -21.5 -72t-23.5 -100t-15 -102.5t6 -80.5t39 -32h-40h-95h-103.5h-67.5
q33 0 71.5 40.5t75.5 99.5t67.5 119t49.5 102q-445 -203 -820 -247q-97 -45 -200 -73q-399 -105 -780.5 26.5t-630.5 460.5q-242 337 -255 740.5t206 755.5q217 331 571.5 490t746.5 100q411 -72 703.5 -353t380.5 -689q55 -276 -6.5 -544t-221.5 -491.5t-403 -365.5
q336 60 732 245q21 54 136.5 356.5t265.5 696.5t275 722t165 432h41q20 -53 143 -376.5t281.5 -738t282.5 -740.5q104 -272 137 -360v0l18 -41.5t48 -102t66.5 -120.5t75.5 -102t73 -42zM793 2457v0q-68 -30 -128 -81t-108 -108q-103 -125 -161 -277q-119 -328 -66 -676
t233 -642q45 -76 100.5 -151.5t123.5 -132.5q143 -107 310 -167q184 -70 378 -90t388 3q164 80 270 233t153 326q68 246 44 501.5t-125 493.5t-265 429q-107 126 -241 223t-291 150q-314 104 -615 -34zM1687 68v0l6 2t14.5 4.5t16.5 5.5t13 4q-395 -21 -755 142
q168 -113 348.5 -155t356.5 -3zM3295 655v0q182 58 375.5 53.5t361.5 -103.5q-14 35 -101 263.5t-198.5 522t-199.5 523.5q-73 191 -98 255q-15 -40 -106.5 -280.5t-211 -554t-218.5 -573t-129 -338.5q53 25 107 52q102 51 205.5 98t212.5 82z" />
    <glyph glyph-name="S_S" unicode="SS" horiz-adv-x="3252" 
d="M3233 783v0q19 -126 -14 -247.5t-108 -223.5q-103 -139 -248 -217t-310.5 -100t-330.5 6q-154 28 -296.5 89t-275.5 144q-161 -162 -380.5 -217t-444.5 -16q-225 42 -426.5 150.5t-383.5 245.5v0v0l122 126q21 22 43 45q56 -165 185 -283q116 -104 261 -134.5t296 0.5
q159 30 295.5 109t215.5 226q70 142 41.5 285.5t-132.5 260.5q-113 122 -262 186.5t-307 108.5l-20 6v-1q-8 3 -16 5q-61 19 -121 39h2q-153 49 -291.5 131.5t-227.5 220.5q-70 115 -74 246t53 253q64 134 181.5 222t260.5 123q156 37 315 17q148 -14 290 -62
q214 -77 384 -237q69 108 176 179.5t231 102.5q156 37 315 17q149 -14 290 -62q127 -46 244 -124t203 -183l-138 -122q-72 169 -209 291q-113 109 -265 143q-67 13 -139.5 15.5t-138.5 -12.5q-218 -62 -282 -279q-44 -149 -8 -299q43 -137 155 -229q100 -84 218.5 -133.5
t243.5 -82.5v0q136 -39 268.5 -93t246.5 -139q121 -91 205 -218.5t108 -278.5zM2829 486v0q71 142 42 285.5t-132 260.5q-114 122 -263 186.5t-307 108.5l-20 6v-1q-8 3 -16 5q-60 19 -121 39h2q-153 49 -291.5 131.5t-227.5 220.5q-104 177 -63 374q-72 166 -207 287
q-113 109 -265 143q-68 13 -140 15.5t-139 -12.5q-217 -62 -282 -279q-43 -149 -7 -299q43 -137 155 -229q100 -84 218.5 -133.5t243.5 -82.5v0q136 -39 268.5 -93t246.5 -139q121 -91 204.5 -218.5t108.5 -278.5q18 -123 -13 -241t-101 -219q18 -20 38 -38
q116 -104 261 -134.5t296 0.5q159 30 295.5 109t215.5 226z" />
    <glyph glyph-name="L_a" unicode="La" horiz-adv-x="1825" 
d="M1774 478v0q-3 -6 -12 -22t-19 -35q-12 -21 -21.5 -39t-13.5 -25l-25.5 -1t-61.5 0.5t-70.5 8t-54.5 22.5q-35 31 -41.5 79t-3.5 96q1 18 1 35q-48 -96 -135 -155t-191 -76q-95 -15 -190 6t-170 83q-77 67 -103.5 164t14.5 192q46 94 134.5 148t184.5 85l212 74
q121 43 243 86v196q0 20 1 41q3 54 -4 105q-14 63 -59 86t-104 26q-94 9 -191.5 -17.5t-162.5 -99.5l-16 32q-28 56 -56 113v0l-1 4q45 3 92 6q128 13 256.5 10t245.5 -54v0q105 -48 169 -139t67 -208q2 -97 1.5 -271.5t-0.5 -309.5q-1 -78 -1 -105v-8q-1 -33 3 -68
t22.5 -55.5t60.5 -9.5zM1440 643v0q6 12 11 25v503l-62 -22q-70 -25 -139 -49q-29 -10 -59 -19q-61 -17 -118 -44q-66 -36 -106 -106.5t-49 -143.5q-13 -145 72 -264q42 -58 103 -94q36 -21 74 -18t75 20q69 32 118.5 87t79.5 125zM1602 34v0q55 5 106 15t85 29.5t34 49.5
v-134h-301.5h-619.5h-605h-286q23 0 38 18t23 38q29 73 34 155t2 163q-1 35 -1 67v308v649v645v309q-1 45 -6 89q-1 3 -1 7q-3 29 -11 69.5t-26 73t-52 32.5h502q-24 0 -38.5 -17.5t-23.5 -41t-13 -42.5q-19 -81 -21 -164q-1 -24 -1 -47v-313.5v-673v-672v-337.5
q0 -67 6.5 -140.5t37.5 -134.5h1138z" />
    <glyph glyph-name="L_e" unicode="Le" horiz-adv-x="1827" 
d="M1675 818v0h14.5h35h39h28.5q-75 -239 -286 -374q-185 -107 -386 -75t-349 185q-142 155 -175 360.5t48 398.5v0v0q81 194 258 308q88 54 190 75q112 20 225 2v0q183 -38 311.5 -169.5t177.5 -309.5h-153h-306h-319h-203q-1 -148 43 -289l1 -3l2.5 -7.5t3 -8.5t2 -7
l0.5 -3q35 -104 93.5 -198.5t142.5 -167.5q68 -58 155 -87.5t176 0.5v0q9 3 18 7v0.5v0.5q27 13 52 30v0q135 105 161 332zM826 1249v0h833q-43 155 -149 277q-46 53 -104.5 91t-127.5 52q-138 24 -264 -34q-102 -57 -143.5 -166t-44.5 -220zM1602 34v0q55 5 106.5 15
t85 29.5t33.5 49.5v-59v-30v-45h-301.5h-619.5h-605h-286q24 0 38.5 18t22.5 38q29 73 34 155t2 163q-1 35 -1 67v308q0 284 0.5 649t0 645t-0.5 309q-1 45 -6 89q-1 3 -1 7q-3 29 -11 69.5t-26 73t-52 32.5h502q-23 0 -38 -17.5t-23.5 -41t-13.5 -42.5q-18 -81 -21 -164
q-1 -24 -1 -47v-233.5v-525.5v-612v-532v-93q0 -67 6.5 -140.5t38.5 -134.5h1137z" />
    <glyph glyph-name="L_i" unicode="Li" horiz-adv-x="1827" 
d="M997 711v0v433v153q0 59 -3 102.5t-7.5 74t-10.5 50.5t-12.5 32t-13 17t-11.5 6.5t-8.5 1t-3.5 -1.5l70 39l246 136v-610v-433v-118q1 -50 8 -104t23 -92.5t46 -38.5h-399q27 0 42.5 32.5t23.5 80t10 95.5v145zM1085 1916v0q-60 0 -102.5 42.5t-42.5 102.5t42.5 102
t102.5 42t102 -42t42 -102t-42 -102.5t-102 -42.5zM1602 34v0q55 5 106 15t85 29.5t34 49.5v-134h-301.5h-619.5h-605h-286q23 0 38 18t23 38q29 73 34 155t2 163q-1 35 -1 67v308v649v645v309q-1 45 -6 89q-1 3 -1 7q-3 29 -11 69.5t-26 73t-52 32.5h502q-24 0 -38.5 -17.5
t-23.5 -41t-13 -42.5q-19 -81 -21 -164q-1 -24 -1 -47v-233.5v-525.5v-612v-532v-93q0 -67 6.5 -140.5t37.5 -134.5h1138z" />
    <glyph glyph-name="L_o" unicode="Lo" horiz-adv-x="1884" 
d="M1541 1640v0q246 -126 337 -386q85 -262 -34 -511q-125 -246 -386 -337q-262 -85 -511 34q-245 125 -337 386q-85 262 35 511q125 246 385 337q262 85 511 -34zM1505 457v0v0q126 84 159 279.5t-43 431.5q-81 229 -222 364t-290 132q-35 -7 -69 -19q-31 -11 -61 -24v0
q-121 -87 -152.5 -280.5t44.5 -425.5q82 -235 228 -370.5t297 -124.5v0q27 6 52 15q29 10 57 22zM1591 36v0q56 5 107 15t84.5 29.5t33.5 49.5v-134h-301.5h-619.5h-605h-286q24 0 38.5 18t22.5 38q29 73 34 155t2 163q-1 35 -1 67v308q1 284 1 649v645t-1 309q0 45 -6 89
q-1 3 -1 7q-3 29 -11 69.5t-26 73t-52 32.5h503q-24 0 -39 -17.5t-23.5 -41t-13.5 -42.5q-18 -81 -21 -164q0 -21 -0.5 -319.5t-0.5 -691.5v-704.5v-327.5q0 -67 6.5 -140.5t38.5 -134.5h1137z" />
    <glyph glyph-name="L_u" unicode="Lu" horiz-adv-x="1825" 
d="M1757 516v0q16 -33 69 -19q-3 -7 -12 -23t-20 -36t-20 -37t-13 -23l-16.5 -1t-40.5 -1t-48 0.5t-40 3.5q-69 10 -97 73q-14 48 -11 99v11q-125 -105 -280 -155q-94 -33 -198 -44.5t-201 13.5q-106 31 -164 113t-68 190q-7 104 -3 209q2 46 2 92v347q0 6 -2.5 44t-9 81
t-20 70.5t-34.5 18.5q106 58 211 117q45 25 90 49v-255v-198v-198.5v-198.5v-198q0 -11 -1 -21q-1 -27 1 -53q6 -65 41.5 -112t98.5 -65q58 -13 116.5 -4.5t113.5 26.5q171 53 305 170v151v269.5v241.5q0 17 -2 66.5t-8.5 102t-19.5 86t-36 24.5q113 62 225 124l76 42
v-147.5v-282.5v-309v-204.5v-88.5v-33q-2 -33 0 -67t16 -60zM1601 34v0q56 5 107 15t84.5 29.5t33.5 49.5v-134h-301h-619h-605.5h-285.5q23 0 37.5 18t22.5 38q29 73 34 155t3 163q-1 35 -1 67v308v649v645v309q-1 45 -7 89q0 3 -1 7q-3 29 -10.5 69.5t-25.5 73t-52 32.5
h502q-24 0 -39 -17.5t-23.5 -41t-12.5 -42.5q-19 -81 -22 -164q-1 -24 -1 -47v-313.5v-673v-672v-337.5q0 -67 7 -140.5t38 -134.5h1137z" />
    <glyph glyph-name="g_i" unicode="gi" horiz-adv-x="2433" 
d="M2322 1758v0v-1460q2 -63 10.5 -130.5t29 -116t58.5 -48.5h-503q35 0 54.5 41t29.5 100.5t13 119.5v920q0 74 -4 128.5t-10 93t-13.5 64t-15.5 40t-16 21.5t-14.5 8.5t-10.5 0.5t-5 -1zM1713 -173v0q233 -90 357 -307q88 -167 78 -349.5t-95 -347.5
q-104 -193 -279 -293.5t-382.5 -125.5t-408.5 9q-182 35 -358 92q-171 55 -348 90q-184 34 -370 38l44 159q189 -60 378 -135q232 -94 470.5 -162.5t490.5 -63.5q170 7 336 72.5t287.5 188.5t155.5 303q24 137 -19.5 272t-150.5 226q-118 91 -264 95t-281 -44
q-149 -56 -304 -141q-132 -72 -267 -129t-273.5 -67t-278.5 60q-125 66 -181.5 181.5t-25.5 254.5q38 146 140 253t224 189q-238 164 -336 437q-82 246 -23.5 492.5t242.5 428.5q185 176 431.5 227.5t486.5 -35.5h2h4t6.5 0.5t6.5 1.5q68 7 141 22v0v0q10 2 19 4v0v0
q146 38 268 101v0l1 1q48 24 91 51v0h1q114 71 195 140t124.5 116l43.5 47l230 -177q-166 -142 -363 -215t-368 -99t-260 -26h-1q-36 -1 -67 1v0q269 -132 405 -398q129 -270 75.5 -555.5t-271.5 -489.5q-222 -195 -507.5 -221.5t-539.5 122.5q-131 -85 -237 -198
q-48 -59 -37.5 -132.5t61.5 -127.5q67 -67 153 -84t176.5 -1t171.5 46q111 41 219 91q140 64 286 113q123 38 248 41t247 -42zM335 1273v0q-37 -238 27.5 -477.5t204.5 -433.5q57 -79 129.5 -146t159.5 -112q73 -37 155 -47q56 -4 109.5 10.5t103.5 38.5v0q84 55 132.5 142
t68.5 183q47 226 -4.5 457t-171.5 425q-101 169 -260 284q-56 40 -135 73.5t-150 20.5q-88 -19 -170 -56v0q-88 -63 -135.5 -160t-63.5 -202z" />
    <glyph glyph-name="i_i" unicode="ii" horiz-adv-x="1067" 
d="M419 289v0q1 -62 10 -129.5t29.5 -116t57.5 -48.5h-502q34 0 54 40.5t29.5 100.5t12.5 120v183v543v194q0 73 -3.5 127.5t-9.5 93.5t-13.5 64t-16 40t-16 21.5t-14 8t-10.5 1t-5 -1.5l88 49l309 171v-768v-543v-150zM220 1954v0q-75 0 -128.5 53.5t-53.5 128.5
t53.5 128.5t128.5 53.5q76 0 129 -53.5t53 -128.5t-53 -128.5t-129 -53.5zM649 256v0v1167q0 73 -3.5 127.5t-9.5 93t-13.5 64t-15.5 40t-16 21.5t-14.5 8.5t-10.5 1t-5 -1.5l88 49l309 171v-1708q2 -62 10.5 -129.5t29 -116t58.5 -48.5h-503q34 0 54 40.5t30 100t12 120.5z
M759 2201v0q-75 0 -128 53.5t-53 128.5t53 128.5t128 53.5q76 0 129 -53.5t53 -128.5t-53 -128.5t-129 -53.5z" />
    <glyph glyph-name="i_h" unicode="ih" horiz-adv-x="2322" 
d="M1798 1v0q34 0 53 32t28 78t12 89t3 68v2v254.5v474.5v401q0 79 -21.5 147.5t-71.5 114.5t-135 58q-75 9 -150 -6t-145 -40q-207 -72 -371 -215v-193v-738q0 -20 -2 -57q-2 -58 -2.5 -137t7.5 -155t29.5 -127t64.5 -51h-502q35 0 54.5 33.5t28.5 81.5t11 92.5t2 69.5
v282.5v577v588.5v318q0 10 -2 70t-10 133t-26 121.5t-51 35.5l132 72q102 57 204 113q78 43 148.5 113.5t98.5 158t-20 180.5q-51 87 -143 131t-197.5 54.5t-195.5 -3.5q-164 -25 -304 -115t-225 -233q-89 -159 -97 -342.5t63 -351.5q17 70 70.5 107.5t119 35.5t117.5 -52
q65 -71 49 -160t-101 -133q-89 -38 -172 10q-36 23 -59 59.5t-41 75.5q-3 7 -7 14q-90 189 -80 399q12 204 114.5 371.5t281.5 266.5q168 90 365.5 97t363.5 -95q74 -48 113.5 -121t29.5 -163q-15 -103 -80 -181.5t-150 -133.5v-1067q164 135 367 204q120 41 253 57t259 -12
q167 -45 245.5 -176t77.5 -297q1 -43 1 -145v-232q-1 -144 -1 -285t0.5 -238t0.5 -111q0 -6 1 -13q0 -29 3 -72t12.5 -86.5t28.5 -73.5t52 -30h-502zM443 297v0q1 -62 10 -130t29.5 -116.5t57.5 -48.5h-502q33 0 52 31t28.5 75t12.5 86t3 66v4q1 38 1 185.5v312.5
q-1 147 -1 231q0 45 1 90q2 85 0 169.5t-17 167.5q-1 12 -9.5 44.5t-24 57.5t-38.5 16q159 87 318 176q39 22 79 44v-322v-595v-544z" />
    <glyph glyph-name="i_k" unicode="ik" horiz-adv-x="2326" 
d="M440 286v0q2 -63 11 -130.5t29 -116t58 -48.5h-502q34 0 54 41t29.5 100.5t12.5 119.5v183v544v193q0 74 -3.5 128.5t-10 93t-14 64t-15.5 40t-16 21.5t-14.5 8.5t-10.5 0.5t-5 -2l89 49l308 171v-767v-544v-149zM1096 972v0q-47 -56 -80 -97v-589q2 -63 11 -130.5
t29 -116t58 -48.5h-502q34 0 54 41t29.5 100.5t12.5 119.5v1788q0 73 -3.5 127.5t-10 93t-14 64t-15.5 40.5t-16 21.5t-14.5 8t-10.5 1t-5 -1.5l382 211q59 47 105 116q75 124 42 243q-30 84 -94 129.5t-115 62.5q-210 72 -422.5 -2t-344.5 -266q-94 -145 -116.5 -322
t26.5 -347q56 95 160 95q75 0 128.5 -53t53.5 -129q0 -75 -53.5 -128t-128.5 -53q-76 0 -129 53t-53 128q0 11 1 21q-51 138 -53 292q-1 263 130 465q135 200 366 283q231 78 449 0q57 -18 128 -69.5t105 -147.5q38 -137 -47 -277q-54 -80 -123 -133v-1627q23 28 52 61
q103 122 212 229q188 186 368 308q227 153 430 196q78 17 152 17v0v0v-316l-77 13t-199 13.5t-262.5 -33t-272.5 -122.5q-60 -53 -111 -104v-1h-1l1019 -1209h-403z" />
    <glyph glyph-name="i_l" unicode="il" horiz-adv-x="1135" 
d="M448 296v0q2 -63 10.5 -130.5t29 -116t58.5 -48.5h-503q34 0 54 41t30 100.5t12 119.5v183v544v193q0 74 -3.5 128.5t-9.5 93t-13.5 64t-15.5 40t-16 21.5t-14.5 8.5t-10.5 0.5t-5 -2l88 49l309 171v-767v-544v-149zM1040 3439v0q121 -81 187.5 -206t61.5 -263
q-7 -138 -84.5 -249.5t-197.5 -161.5v-2263q1 -63 10 -130.5t29.5 -116t57.5 -48.5h-134v0h-234v0h-134q34 0 54 41t29.5 100.5t12.5 119.5v1788q0 73 -3.5 127.5t-9.5 93.5t-14 64t-16 40t-16 21.5t-14 8t-10.5 1t-5.5 -1.5l89 49l309 171v-22q104 49 170 148.5t73 221.5
q4 128 -58 243.5t-174 189.5q-223 137 -493 64q-244 -74 -409 -302q-153 -222 -164 -494t117 -509q10 69 60.5 114.5t119.5 45.5q76 0 129 -53t53 -129q0 -75 -53 -128t-129 -53q-53 0 -96.5 27.5t-66.5 73.5q-166 237 -175 546q-4 329 172 582q174 239 431 318
q288 77 526 -69z" />
    <glyph glyph-name="i_t" unicode="it" horiz-adv-x="1636" 
d="M1229 2583v0v-778h407v-40h-407v-1463q1 -102 24 -199q93 -53 201 -53q18 0 37 2v-40q-19 -2 -37 -2q-95 0 -181 39q-149 67 -244.5 219t-108.5 353q-1 21 -1 44v173.5t0.5 381.5t0.5 379v166h-378v40h378v251q0 74 -3.5 128.5t-9.5 93t-13.5 64t-16 40t-16 21.5t-14 8.5
t-11 0.5t-5.5 -1l89 48l168 93l50 28l88 49q80 58 129 140.5t54 177.5q5 127 -65.5 242.5t-197.5 190.5q-256 138 -566 64q-278 -75 -467 -303q-172 -220 -186 -489.5t128 -504.5q4 75 56 125.5t126 50.5q75 0 128.5 -53t53.5 -129q0 -75 -53.5 -128t-128.5 -53
q-73 0 -126 50l-2 -2q-212 246 -224 575q-4 329 197 583q197 239 488 317q326 77 595 -69q138 -80 213.5 -205t70.5 -264q-7 -110 -65.5 -205t-154.5 -157zM435 295v0q2 -63 11 -130.5t29.5 -116t57.5 -48.5h-502q34 0 54 41t29.5 100.5t12.5 119.5v183v544v193
q0 74 -3.5 128.5t-9.5 93t-14 64t-16 40t-16 21.5t-14 8.5t-10.5 0.5t-5.5 -1l89 48l308 171v-767v-544v-149z" />
    <glyph glyph-name="k_e" unicode="ke" horiz-adv-x="3251" 
d="M3076 583v0h19.5h47h52h37.5q-47 -155 -144.5 -284t-235.5 -214q-247 -142 -514.5 -100t-464.5 246q-188 207 -232 480t64 530v0.5v0.5q107 258 342 409q118 72 253 101q75 14 149.5 13t150.5 -11v0q243 -52 414.5 -226.5t236.5 -411.5h-203h-408h-425h-270
q-2 -197 57 -385l1.5 -3.5t3.5 -9.5t3.5 -11.5t3 -9.5l1.5 -4q46 -139 124 -265t189 -221q91 -79 206.5 -118t233.5 1v0q13 5 25 10v0v0q36 18 69 40v0q180 141 214 443zM1946 1156v0h1110q-58 207 -199 369q-62 70 -139.5 121t-169.5 69q-184 32 -351 -45
q-91 -48 -144.5 -132.5t-78 -185t-28.5 -196.5zM1530 247v0q176 -206 337.5 -344.5t303.5 -223t257.5 -127.5t199 -58t129 -15h45.5v-332q-236 4 -475.5 110t-468 277t-431.5 369.5t-366 386.5t-271 330v0l-1 1q-7 8 -13 16l-242 313l-22 26q-47 -56 -79 -97v-589
q1 -63 10 -130.5t29.5 -116t57.5 -48.5h-502q34 0 54 41t29.5 100.5t12.5 119.5v1788q0 73 -3.5 127.5t-9.5 93.5t-13.5 64t-16 40t-16 21.5t-14 8.5t-11 1t-4.5 -2l397 220v-1675q23 28 51 61q104 122 213 229q187 186 368 308q227 153 429 197q79 16 153 16v0v0v-316
l-77 13t-199 13.5t-263 -32.5t-273 -123q-59 -53 -110 -104q-1 0 -1 -1v0z" />
    <glyph glyph-name="k_o" unicode="ko" horiz-adv-x="3357" 
d="M3301 1152v0q112 -344 -45 -671q-164 -322 -506 -442q-344 -112 -671 45q-323 164 -442 506q-112 345 45 671q164 323 506 443q344 111 671 -45q322 -165 442 -507zM2811 106v0v0q166 110 209.5 367t-56.5 566q-106 301 -291.5 478.5t-381.5 173.5q-45 -10 -90 -25
q-41 -14 -80 -32v0q-159 -114 -200 -368.5t58 -558.5q108 -308 299 -486t391 -164v0q34 8 68 20q38 13 74 29zM1536 245v0q176 -206 337.5 -344.5t303.5 -223t257.5 -127.5t199 -58t129 -15h45.5v-332q-236 4 -475.5 110t-468 277t-431.5 369.5t-366 386.5t-271 330v0h-1
q-7 9 -13 18l-242 312v0l-22 26q-47 -56 -79 -97v-589q1 -63 10 -130.5t29.5 -116t57.5 -48.5h-502q34 0 54 41t29.5 100.5t12.5 119.5v1788q0 73 -3.5 127.5t-9.5 93.5t-13.5 64t-16 40t-16 21.5t-14 8.5t-11 1t-4.5 -2l397 220v-1675q23 28 51 61q104 122 213 229
q187 186 368 308q227 153 429 197q79 16 153 16v0v0v0v-316l-77 13t-199 13.5t-263 -32.5t-273 -123q-59 -53 -110 -104h-1v-1z" />
    <glyph glyph-name="r_a" unicode="ra" horiz-adv-x="2367" 
d="M2256 324v0v-11q-2 -42 3.5 -88t29 -73t79.5 -12q-5 -8 -16.5 -29t-25.5 -47q-15 -27 -27.5 -50t-16.5 -32q-58 -4 -118 -2t-116 19q-77 30 -92 103t-10 150q1 22 1 43q-65 -130 -185.5 -208.5t-263.5 -95.5q-130 -16 -258 19.5t-221 130.5q-87 94 -109 217t36 238
q60 108 165.5 172t220.5 103q181 65 363 128q126 44 251 88v75q1 46 1.5 95.5t0.5 85.5t-2 40v9q3 83 -10 167t-75 145q97 -30 178.5 -85.5t137.5 -141.5q46 -73 63 -152.5t16 -164.5q1 -56 0.5 -211.5t-0.5 -327.5v-297zM1946 388v0v656l-84 -30q-92 -33 -184 -65
q-35 -12 -71 -22q-83 -22 -159 -60q-78 -44 -126 -122t-65 -165q-36 -213 92 -387q31 -42 74 -80t94 -54q51 -14 102.5 0t96.5 41q82 49 138.5 124.5t91.5 163.5zM885 1674v0q123 57 250 57l-92 -269l-46.5 9.5t-117.5 10.5t-147.5 -21t-140.5 -83q-63 -84 -87 -127l-1 -1
q-3 -7 -18 -34.5t-33 -61t-32 -60.5v-812q2 -62 10.5 -129.5t29 -116t58.5 -48.5h-503q34 0 54 41t30 100.5t12 119.5v920q0 73 -3.5 128t-9.5 93.5t-13.5 63.5t-15.5 40t-16 21.5t-14.5 8.5t-10.5 1t-5 -2l88 49l309 171v-563q21 38 36 66q3 6 7 13t7 12.5t3 6.5
q20 34 60.5 90.5t101.5 120.5q118 124 250 185zM1946 1383v0q1 7 2 41.5t-4 82.5q1 -27 1.5 -61.5t0.5 -62.5z" />
    <glyph glyph-name="h_i" unicode="hi" horiz-adv-x="2290" 
d="M1638 297v0q2 -63 11 -130.5t29.5 -116t57.5 -48.5h-502q34 0 53 32.5t28.5 78t12 89t2.5 67.5v3q1 53 0 105v53v971q0 79 -21.5 148t-71.5 115t-135 58q-75 8 -150 -7t-145 -40q-207 -71 -371 -215v-193v-737q0 -21 -2 -57q-2 -59 -2.5 -137.5t7.5 -154.5t29.5 -127.5
t64.5 -51.5h-133h-235h-67.5h-66.5q35 0 54.5 34t28.5 81.5t11 92t2 69.5q1 56 0 111v56v1244v119v236q0 10 -1.5 70t-10 133t-26.5 121.5t-50 35.5q35 20 71 39q109 58 216 120q64 38 125 83q55 39 112 74q146 90 307 152q177 66 366 82.5t372 -34.5q152 -43 279.5 -138
t208.5 -233q86 -145 83 -313q-3 -84 -31 -163q-13 -29 -31.5 -48t-41.5 -35q-7 -5 -14 -11h-1q-73 -33 -140 -7t-101.5 89t-10.5 140q27 73 90.5 102.5t131.5 12t108 -84.5q5 111 -36.5 214.5t-113.5 187.5q-137 158 -329 227t-398 56q-228 -16 -435 -105.5t-390 -220.5
v-1078q160 131 358.5 200.5t406.5 62.5q97 -3 185 -38.5t151 -111.5q57 -73 80 -161.5t22 -180.5v-47q-1 -104 -1 -208v-244v-244v-244zM1870 265v0q0 28 0.5 149.5t0 278.5t-0.5 291v178q0 11 -1.5 73.5t-9.5 138.5t-26.5 126.5t-51.5 36.5l318 176q40 22 79 44v-104v-505
t0.5 -590t2.5 -314q0 -6 1 -13q1 -26 5 -64t13.5 -75.5t27.5 -63.5t48 -26h-502q33 0 52 31.5t28.5 76t12 87t3.5 66.5v2z" />
    <glyph glyph-name="k_i" unicode="ki" horiz-adv-x="2319" 
d="M2221 293v0q2 -63 11 -130.5t29.5 -116t57.5 -48.5h-502q34 0 54 41t29.5 100.5t12.5 119.5v183v544v193q0 74 -3.5 128.5t-9.5 93t-14 63.5t-16 40t-16 22t-14.5 8.5t-10.5 0.5t-5 -2l89 49l308 171v-767v-544v-149zM712 1208v0l-1 -1l1018 -1209h-403l-827 981
q-47 -56 -79 -97v-589q1 -63 10 -130.5t29.5 -116t57.5 -48.5h-502q34 0 54 41t29.5 100.5t12.5 119.5v1788q0 164 -16 238q-5 27 -10 46q-8 25 -16 40t-16 22t-14.5 8.5t-11 1t-4.5 -1.5l391 217q124 98 262 180q388 225 756 208q206 -11 386 -104q188 -98 295 -262
q111 -174 106 -385q-2 -61 -14 -118v0q-2 -56 -32 -100v0v0q-30 -43 -78 -65q-34 -14 -72 -14q-75 0 -128.5 53t-53.5 128q0 76 53.5 129t128.5 53q98 0 155 -87q14 204 -98 384q-101 152 -272.5 244t-377.5 104q-356 17 -734 -203q-145 -86 -276 -192v-1625q23 28 51 61
q104 122 213 229q187 186 368 308q227 153 429 196q39 9 78 13q38 4 75 4v-316l-77 13t-199 13.5t-263 -33t-273 -122.5q-59 -53 -110 -104z" />
    <glyph glyph-name="l_i" unicode="li" horiz-adv-x="1116" 
d="M424 294v0q1 -62 10 -129.5t29.5 -116t57.5 -48.5h-502q34 0 54 40.5t29.5 100.5t12.5 120v1787q0 74 -3.5 128.5t-9.5 93t-13.5 64t-16 40t-16 21.5t-14 8.5t-11 0.5l-4.5 -1l274 152q155 145 360 141q116 -6 213 -64.5t150 -155.5q53 -103 42 -216t-82 -200
q-54 -62 -137 -89q-31 -12 -65 -12q-75 0 -128 53.5t-53 128.5t53 128.5t128 53.5q76 0 129 -53.5t53 -128.5q0 -26 -7 -50q61 77 69.5 176.5t-37.5 189.5q-49 88 -136.5 141t-192.5 58q-124 3 -236 -60v-2302zM672 261v0v920q0 73 -3.5 127.5t-9.5 93.5t-13.5 64t-16 40
t-16 21.5t-14 8.5t-10.5 1t-5 -2l397 220v-1461q1 -62 10 -129.5t29.5 -116t58.5 -48.5h-503q34 0 54 40.5t29.5 100.5t12.5 120z" />
    <glyph glyph-name="h_g" unicode="hg" horiz-adv-x="3831" 
d="M1236 -1v0q34 0 54 40.5t29.5 100.5t12.5 120v1166q0 94 -27 152.5t-69.5 89.5t-90.5 42.5t-91 11t-72 -4.5q-132 -25 -234 -68t-172 -89q-87 -56 -138 -103v-1164q1 -62 10 -129.5t29.5 -116t57.5 -48.5h-502q34 0 54 40.5t29.5 100.5t12.5 120v1787q0 74 -3.5 128.5
t-9.5 93t-13.5 64t-16 40t-16 21.5t-14 8.5t-11 0.5l-4.5 -1l397 214l67 35v1q222 109 452 209t469 176q631 198 1157 119q301 -47 559 -184q272 -147 449 -373q152 -195 191 -397q39 -224 -56 -406q-5 -74 -56.5 -123.5t-124.5 -49.5q-75 0 -128.5 53t-53.5 128
q0 76 53.5 129t128.5 53q59 0 104.5 -33t65.5 -86q59 152 27 327q-37 193 -182 381q-169 213 -423 353t-560 188q-517 78 -1139 -117q-260 -83 -509.5 -194t-490.5 -231v-1064q47 39 115 83q97 64 252 119.5t362 60.5q91 1 165 -19q120 -32 196 -119q64 -77 88 -163.5
t24 -154.5q1 -15 1 -168v-351t-0.5 -351.5l-0.5 -153.5q2 -62 11 -129.5t29.5 -116t57.5 -48.5h-502zM3897 -682v0q22 -159 -22 -317.5t-143 -283.5q-114 -140 -273 -213t-336.5 -91t-347.5 7q-200 34 -394 97q-78 24 -158 46q-275 77 -560 82q16 61 33 121q5 19 10 39
q177 -57 362 -129q237 -95 480.5 -166.5t486 -67.5t473.5 136q18 5 36 18.5t34 27.5q9 7 17 13q46 37 86 80q77 84 117 190q77 217 -15 428q-59 125 -159.5 188.5t-223.5 73t-248 -26.5q-95 -29 -184.5 -71t-176.5 -90q-85 -45 -171.5 -86.5t-178.5 -70.5q-118 -35 -245 -28
t-233.5 67t-162.5 182q-59 144 -14 271.5t146.5 232.5t211.5 180q-236 167 -336 438q-82 244 -23 491.5t241 429.5q185 174 433 226.5t486 -35.5h1v0q37 -14 72 -31v0h2h-1v0v0v0v0q282 -140 417 -425q118 -269 57.5 -551.5t-279.5 -479.5q-220 -185 -502.5 -208.5
t-530.5 122.5q-13 -9 -25 -18q-61 -40 -120 -87t-101 -104q-38 -57 -28.5 -122.5t51.5 -116.5q62 -70 145 -90.5t172 -8t168 39.5q125 45 247 101q164 78 338 127q153 39 303 18.5t282 -108.5q113 -77 190.5 -193.5t93.5 -253.5zM2857 75v0q63 15 123 43v0q100 67 149.5 175
t64.5 224q28 222 -30 440.5t-182 402.5q-110 172 -283 279q-45 27 -95.5 47t-103.5 22q-53 -1 -107.5 -19.5t-102.5 -41.5v0q-98 -70 -145.5 -179.5t-59.5 -225.5q-29 -268 60 -523q82 -244 253 -436q86 -97 205.5 -163.5t253.5 -44.5z" />
    <glyph glyph-name="k_g" unicode="kg" horiz-adv-x="3700" 
d="M499 979v0q-47 -56 -80 -96v-590q2 -62 11 -129.5t29 -116t58 -48.5h-502q34 0 54 40.5t29.5 100.5t12.5 120v1787q0 165 -16 239q-5 26 -11 45q-7 26 -15.5 41t-16.5 22t-14.5 8.5t-10.5 0.5t-5 -1l236 131l-2 3q257 144 557.5 280t631.5 221q707 172 1282 -27
q316 -113 556 -337q251 -236 354 -538q73 -218 13 -368q-12 -66 -61.5 -109t-117.5 -43q-76 0 -129 53t-53 128q0 76 53 129t129 53q54 0 97.5 -28.5t66.5 -74.5q10 108 -36 247q-100 290 -331 512t-554 338q-564 196 -1259 27q-283 -73 -544 -184.5t-492 -236.5v-1632
q23 29 52 62q103 121 212 229q188 186 368 308q227 153 430 196q39 8 77 13q38 4 75 4v-317l-77 13.5t-199 14t-262.5 -33t-272.5 -122.5q-60 -54 -111 -104l-1 -2l1019 -1208h-403zM3864 -692v0q22 -158 -22 -316.5t-143 -284.5q-114 -139 -273 -212t-336.5 -91t-347.5 7
q-201 34 -394 97q-79 24 -158 46q-275 77 -560 82q16 61 33 121q5 19 10 39q177 -57 362 -130q237 -94 480.5 -165.5t485.5 -68t474 136.5q17 5 35.5 18.5t34.5 27.5q9 7 16 13q47 36 87 80q76 84 117 190q77 217 -15 428q-59 125 -159.5 188.5t-223.5 73t-248 -26.5
q-95 -29 -184.5 -71.5t-176.5 -89.5q-85 -45 -171.5 -86.5t-178.5 -70.5q-118 -35 -245 -28t-233.5 67t-163.5 182q-58 144 -13 271.5t146.5 232.5t211.5 180q-236 167 -336 438q-82 244 -23 491.5t241 429.5q185 174 432.5 226.5t486.5 -35.5v0h1q36 -14 72 -31v0h1v0v0v0
v0h-1q283 -140 418 -425q118 -269 57.5 -551.5t-279.5 -479.5q-220 -185 -502.5 -208.5t-531.5 122.5q-12 -9 -25 -18q-60 -40 -119 -87t-102 -104q-37 -57 -27.5 -122.5t51.5 -116.5q61 -70 144 -90.5t172 -8t169 39.5q125 45 246 101q164 78 339 127q152 39 302.5 18
t282.5 -108q113 -77 190.5 -193.5t93.5 -254.5zM2823 66v0q64 15 124 43v0q100 67 149.5 175t64.5 224q28 222 -30.5 440.5t-181.5 402.5q-111 172 -283 279q-45 27 -95.5 47t-103.5 21q-53 0 -107.5 -18.5t-102.5 -41.5v0q-98 -70 -145.5 -179.5t-60.5 -225.5
q-28 -269 61 -524q82 -243 253 -435q85 -97 205 -163.5t253 -44.5z" />
    <glyph glyph-name="l_g" unicode="lg" horiz-adv-x="2677" 
d="M49 -1v0q34 0 54 40.5t29.5 100.5t12.5 120v1787q0 74 -3.5 128.5t-9.5 93t-13.5 64t-16 40t-16 21.5t-14 8.5t-11 0.5l-4.5 -1l316 175q154 132 319.5 250.5t351.5 207.5q241 111 483 135q268 25 492 -65q280 -114 458 -392q168 -270 179 -585q5 -168 -44 -282
q-57 -130 -167 -187q-46 -32 -104 -32q-76 0 -129 53t-53 128q0 76 53 129t129 53q75 0 128.5 -53t53.5 -129q0 -20 -5 -40q35 41 57 94q46 105 41 265q-12 317 -178.5 573t-433.5 368q-206 82 -450 64t-494 -134q-165 -78 -315.5 -183t-290.5 -223v-2299q1 -62 10 -129.5
t29.5 -116t57.5 -48.5h-502zM2698 -677v0q22 -159 -22 -317t-143 -284q-114 -140 -273 -212.5t-336.5 -91t-347.5 7.5q-200 33 -394 96q-79 24 -158 46q-275 78 -560 82q16 61 33 121q5 20 10 39q177 -57 362 -129q237 -94 480.5 -166t486 -68t473.5 136q18 5 36 18.5
t34 27.5q9 7 16 13q47 37 87 81q77 83 117 189q77 217 -15 428q-59 125 -159.5 188.5t-223.5 73t-248 -26.5q-95 -28 -184.5 -70.5t-176.5 -89.5q-85 -46 -171.5 -87.5t-178.5 -70.5q-118 -35 -245 -28t-233.5 67t-162.5 182q-59 144 -14 271.5t146.5 232.5t211.5 180
q-236 167 -336 438q-82 244 -23 491.5t241 429.5q185 174 432.5 226.5t486.5 -35.5h1v0q36 -13 72 -30v0l1 -1v0v0v0v0v0q282 -140 417 -425q118 -269 57.5 -551.5t-279.5 -478.5q-220 -186 -502.5 -209t-530.5 122q-13 -9 -26 -17q-60 -41 -119 -88t-101 -104
q-38 -57 -28.5 -122.5t51.5 -116.5q62 -70 145 -90t171.5 -8t168.5 40q125 44 247 100q164 78 338 128q153 38 303 17.5t282 -108.5q113 -77 190.5 -193.5t93.5 -253.5zM1657 80v0q64 15 124 44v0q100 66 149.5 174.5t64.5 223.5q28 222 -30 440.5t-182 403.5
q-111 171 -283 278q-45 27 -95.5 47t-103.5 22q-53 -1 -107.5 -19.5t-102.5 -41.5v0q-98 -69 -145.5 -179t-60.5 -226q-28 -268 61 -523q82 -244 253 -436q86 -96 205.5 -163t252.5 -45z" />
    <glyph glyph-name="t_g" unicode="tg" horiz-adv-x="3072" 
d="M963 12v0q-18 -1 -36 -1q-96 0 -181 38q-149 68 -244.5 219.5t-108.5 352.5v185v393v394v172h-378v40h378v252q0 74 -3.5 128.5t-9.5 93t-14 63.5t-16 40t-16 21.5t-14.5 8.5t-10.5 1t-5 -2l258 143h-1q230 150 474 284t513 209q275 71 552 32q286 -41 516 -194
q180 -124 271.5 -271t122.5 -285.5t30 -237.5q-2 -247 -153 -408q-11 -13 -25 -24q-12 -11 -25 -20l-2 2q-39 -21 -86 -21q-75 0 -128.5 53t-53.5 129q0 75 53.5 128t128.5 53q74 0 125.5 -49.5t56.5 -124.5q69 125 69 282q1 94 -29 227t-117.5 274t-260.5 260
q-220 145 -490.5 186t-543.5 -30q-232 -64 -444.5 -174t-413.5 -238v-791h408v-40h-408v-1462q2 -102 24 -199q94 -53 202 -53q18 0 36 1v-40zM3125 -686v0q22 -159 -22 -317t-144 -284q-113 -139 -272 -212t-336.5 -91t-347.5 7q-201 34 -394 97q-79 24 -158 46
q-275 77 -560 82q16 60 33 121q5 19 10 39q177 -57 362 -130q237 -94 480.5 -165.5t485.5 -68t474 136.5q17 5 35.5 18.5t34.5 27.5q9 7 16 13q47 36 87 80q76 84 117 189q77 218 -15 429q-59 125 -159.5 188.5t-223.5 73t-248 -27.5q-95 -28 -184.5 -70.5t-176.5 -89.5
q-85 -46 -171.5 -87t-178.5 -70q-118 -36 -245 -28.5t-233.5 67.5t-163.5 182q-58 144 -13 271.5t146.5 232.5t211.5 180q-236 166 -336 438q-82 244 -23 491.5t241 428.5q184 175 432 227.5t487 -35.5v0h1q36 -14 72 -31v0q1 0 1 -1v0v0h-0.5h-0.5v0q283 -139 418 -424
q117 -270 57 -552t-279 -479q-221 -185 -503 -208.5t-531 122.5q-12 -9 -25 -18q-60 -40 -119 -87t-102 -105q-37 -56 -27.5 -122t51.5 -116q61 -70 144 -90.5t172 -8t169 39.5q125 45 246 101q164 78 339 127q152 39 302.5 18t282.5 -109q112 -76 190 -193t94 -254z
M2084 72v0q64 15 124 43v0q100 67 149.5 175t64.5 224q28 221 -30.5 439.5t-181.5 403.5q-111 171 -283 278q-45 28 -95.5 48t-103.5 21q-53 0 -107.5 -18.5t-102.5 -41.5v0q-98 -70 -145.5 -179.5t-60.5 -225.5q-28 -269 61 -524q82 -243 253 -435q85 -97 205 -163.5
t253 -44.5z" />
    <glyph glyph-name="g_j" unicode="gj" horiz-adv-x="2311" 
d="M391 139v0q-238 165 -336 438q-82 245 -23.5 491.5t242.5 428.5q185 176 431.5 227.5t486.5 -35.5q140 13 286.5 57t238.5 137l4 -4l121 -109l-60.5 -19t-152 -43t-189 -39.5t-174.5 -10.5v0q269 -133 405 -399q129 -270 75.5 -555.5t-271.5 -489.5
q-222 -194 -507.5 -220.5t-539.5 122.5q-131 -86 -237 -198q-48 -59 -37.5 -132.5t60.5 -127.5q68 -68 154 -85t176.5 -1t171.5 46q111 42 219 91q140 65 286 113q123 39 248 42t247 -42q42 -16 82 -38q-2 -116 -14 -230q-103 36 -214 28t-213 -44q-17 -5 -34 -12
q-127 -51 -259 -123q-6 -3 -11 -6q-132 -71 -267 -128t-273.5 -67.5t-278.5 59.5q-125 66 -181.5 182t-25.5 254q38 147 140 253.5t224 188.5zM338 1268v0q-37 -238 27.5 -477.5t204.5 -433.5q57 -79 129.5 -146.5t159.5 -111.5q73 -38 155 -47q56 -5 109.5 10t103.5 38v0
q84 55 132.5 142t68.5 183q47 226 -4.5 457t-171.5 425q-101 169 -260 284q-56 40 -135 73.5t-150 20.5q-88 -19 -170 -56v0q-88 -63 -135.5 -160t-63.5 -201zM2076 -842v0q39 36 75 80q2 -49 -1 -97q-15 -170 -94 -324q-104 -192 -279 -293t-382.5 -126t-408.5 10
q-182 35 -358 91q-171 55 -348 90q-184 35 -370 38l44 160q189 -61 378 -136q232 -93 470.5 -162t490.5 -63q169 6 335.5 71.5t287.5 188.5t156 303q13 75 6 151zM2228 41v0q1 -100 -2 -201q-1 -11 -1 -23q1 -87 -19 -169v0q-33 -166 -129 -305q-79 -112 -194.5 -178
t-254.5 -60q-142 12 -252.5 95t-178.5 204v0v0v0h177q55 -122 160 -203q46 -34 101 -49q67 -14 132 8q26 19 42.5 49t27.5 60v0q21 55 35 113q31 139 37.5 283.5t5.5 287.5q-1 26 -1 51q0 44 1 175q0 165 0.5 383.5t0 402.5t-2.5 248q-1 88 -17 175q-7 44 -29 83
q-6 10 -17.5 18t-23.5 3q160 88 319 177q39 21 78 43l0.5 -244t1.5 -561.5t2 -570.5t1 -295z" />
    <glyph glyph-name="j_j" unicode="jj" horiz-adv-x="999" 
d="M426 1747v0l1 -243.5t1.5 -561.5t1.5 -570.5t1 -295.5q1 -100 -2 -200q-1 -12 -1 -24q1 -86 -19 -169v0q-33 -166 -129 -305q-79 -111 -194.5 -177.5t-254.5 -59.5q-142 12 -252.5 94.5t-178.5 204.5v0v0v0h178q54 -122 159 -204q46 -34 102 -48q66 -14 131 7
q26 20 42.5 50t27.5 60v0q22 55 35 112q31 140 37.5 284t5.5 287v52v175q0 165 0.5 383t0 402.5t-2.5 248.5q-1 88 -17 175q-6 44 -29 82q-6 10 -17 18.5t-24 3.5q160 87 319 176q39 22 78 43zM917 -125v0q4 100 3 200q-1 43 -1.5 295.5t-1.5 570.5t-1.5 561.5l-0.5 243.5
q-44 -24 -88 -49q-155 -85 -309 -170q12 5 23 -3.5t18 -18.5q22 -38 29 -82q16 -87 17 -175q2 -64 2.5 -248.5t0 -402.5t-0.5 -383q-1 -131 -1 -175v-52q2 -143 -4.5 -287t-38.5 -284q-12 -55 -32 -108l-6 -13.5t-15 -32t-19 -35.5q-19 -31 -44.5 -55.5t-56.5 -30.5
q116 13 213 76.5t165 159.5q97 139 130 305v0q19 83 19 169v24zM530 -499v0v-2v1v1z" />
    <glyph glyph-name="g_p" unicode="gp" horiz-adv-x="3747" 
d="M2077 -973v0h53q-25 -103 -73 -197q-104 -193 -279 -293.5t-382.5 -125.5t-408.5 9q-182 35 -358 92q-171 55 -348 90q-184 34 -370 38l44 159q189 -61 378 -135q232 -94 470.5 -163t490.5 -63q169 7 335.5 72.5t287.5 188.5t156 302q3 13 4 26zM392 151v0
q-238 165 -336 438q-82 246 -23.5 492t242.5 429q185 176 431.5 227.5t486.5 -36.5q140 13 286.5 57t238.5 137l4 -4l121 -108l-60.5 -19.5t-152 -43.5t-189 -39.5t-174.5 -10.5v0v0v0q269 -132 405 -399q37 -75 59 -154q64 -238 0 -472q-66 -243 -255 -419
q-222 -194 -507.5 -220.5t-539.5 122.5q-131 -85 -237 -198q-48 -59 -37.5 -132.5t60.5 -127.5q68 -67 154 -84t176.5 -1t171.5 46q111 41 219 90q140 65 286 113q123 39 248 42t247 -42q7 -3 14 -5v-247q-92 20 -188.5 9.5t-184.5 -40.5q-149 -56 -304 -141
q-132 -72 -267 -129t-273.5 -67t-278.5 59q-125 66 -181.5 182t-25.5 255q38 146 140 253t224 188zM339 1280v0q-37 -238 27.5 -477.5t204.5 -433.5q57 -79 129.5 -146.5t159.5 -111.5q73 -37 155 -47q56 -5 109.5 10t103.5 39v0q84 55 132.5 142t68.5 183
q47 226 -4.5 456.5t-171.5 425.5q-101 168 -260 284q-56 40 -135 73.5t-150 20.5q-88 -19 -170 -57v0q-88 -62 -135.5 -159t-63.5 -202zM3438 1470v0q216 -221 254 -528q27 -274 -98.5 -512t-367.5 -371q-259 -132 -540 -92t-492 240v-85q-1 -106 -1 -265v-290t1 -154
q0 -95 21 -189q4 -19 12.5 -43.5t24 -43t39.5 -18.5h-502q20 0 33.5 14t22.5 31q26 55 33 118.5t7 122.5v102v567.5v694v393.5v24q1 72 -4 146t-30 141q-3 9 -11 23t-19 23t-25 3q160 87 318 176l80 44v-262q110 107 250 171q257 112 525 63t469 -244zM2811 -3v0q61 0 121 8
q124 64 209 175.5t132 240.5q95 262 62.5 550t-207.5 510q-69 87 -169.5 149t-213.5 57q-325 -30 -551 -265v-1158q121 -128 281.5 -197.5t335.5 -69.5z" />
    <glyph glyph-name="q_j" unicode="qj" horiz-adv-x="2455" 
d="M1521 -164v0q0 10 0.5 64.5t0 126t-0.5 131.5v79q-174 -166 -402.5 -222.5t-460.5 8.5q-189 56 -336.5 185.5t-228.5 310.5q-109 257 -56 530q3 16 7 32q23 98 68 189q111 218 316 351q14 9 29 18q114 67 244 98q62 15 126 20q351 27 632 -190q3 2 45 25t103 57l122 68
t101 56v0v-5v-56v-421v-619v-561.5v-248.5q1 -71 11 -141q1 -2 1 -5q3 -25 11.5 -60.5t25.5 -63.5t49 -28h-98h-308h-97q31 0 48 26.5t25 60.5t11 58q1 1 1 3q11 62 11 124zM1362 162v0q88 56 159 132v356v552q1 70 -3 141t-23 138q-126 123 -290 185q-74 30 -158.5 46
t-163.5 -1q-148 -39 -251 -146t-163.5 -249t-81.5 -288q-7 -43 -10 -84q-2 -27 -2 -55q-5 -166 37 -337q10 -40 23 -79q47 -141 133 -255.5t217 -181.5q311 -41 577 126zM2359 90v0q1 -100 -2 -200q-1 -12 -1 -24q1 -86 -19 -169v0q-33 -166 -129 -305q-59 -83 -140 -142.5
t-178 -83.5q-63 -15 -131 -11q-142 11 -252 94q-3 2 -5 4q-107 82 -174 201v0h178q7 -16 15 -32q53 -103 144 -172q46 -34 102 -49q50 -11 100 0q16 4 31 8q26 20 43 50q16 30 27 59q21 56 35 113q31 139 37.5 283.5t5.5 287.5v51v176q0 165 0.5 383t0 402.5t-2.5 248.5
q-1 88 -17 174q-7 45 -29 83q-6 10 -17 18.5t-24 2.5q160 88 320 177q38 22 77 43l1 -243.5t1.5 -561.5t1.5 -570.5t1 -295.5z" />
    <glyph glyph-name=".notdef" horiz-adv-x="1024" 
 />
    <glyph glyph-name=".notdef" horiz-adv-x="1024" 
 />
    <glyph glyph-name=".null" horiz-adv-x="0" 
 />
    <glyph glyph-name="nonmarkingreturn" horiz-adv-x="682" 
 />
    <glyph glyph-name="space" unicode=" " horiz-adv-x="508" 
 />
    <glyph glyph-name="space" unicode="&#xa0;" horiz-adv-x="508" 
 />
    <glyph glyph-name="exclam" unicode="!" horiz-adv-x="467" 
 />
    <glyph glyph-name="quotedbl" unicode="&#x22;" horiz-adv-x="825" 
 />
    <glyph glyph-name="numbersign" unicode="#" horiz-adv-x="3103" 
 />
    <glyph glyph-name="dollar" unicode="$" horiz-adv-x="1402" 
 />
    <glyph glyph-name="percent" unicode="%" horiz-adv-x="1866" 
 />
    <glyph glyph-name="ampersand" unicode="&#x26;" horiz-adv-x="2383" 
d="M2005 248v0v0l42 -38.5t104 -88t125.5 -88.5t106.5 -39h-124h-9h-46h-1h-133q35 0 39 19.5t-9.5 47.5t-33.5 56t-36 47t-17 20l-65 65q-187 -147 -451 -215q-137 -44 -284 -44h-15q-32 -1 -65 -1q-232 0 -434.5 64t-355.5 177t-240.5 262t-87.5 319q0 151 68.5 285
t190.5 242t287 180q-62 83 -94 176q-45 143 -6.5 286.5t154.5 258.5q118 114 287.5 175t356.5 57q48 -1 95 -8q32 -3 63 -10h1q1 0 2 -1q241 -57 386 -258l-111 -81q10 53 -4.5 95.5t-39.5 73t-45 47t-22 16.5q-127 75 -274 81q-140 5 -267 -53t-215 -166
q-86 -110 -115 -246.5t5 -271.5q14 -53 37 -103q11 -24 24 -47q9 -18 20 -35q59 -95 133 -176.5t145 -151.5l579 -578l241 -241l24 32q65 93 100.5 201.5t35.5 227.5q0 45 -6 89q-1 9 -9.5 48.5t-28 88t-52.5 85.5t-81 37h89h46h48h78l22 -36q87 -149 87 -319v-8
q-3 -139 -63 -264t-167 -228q-20 -18 -41 -36zM1213 30v0q199 0 370 79.5t288 216.5l-482 482l-340 340q-75 73 -153 160v0q-69 69 -123 89t-91.5 10.5t-56.5 -26.5q-120 -108 -188 -253t-68 -310q0 -218 114 -396.5t305.5 -285t424.5 -106.5z" />
    <glyph glyph-name="quotesingle" unicode="'" horiz-adv-x="385" 
 />
    <glyph glyph-name="parenleft" unicode="(" horiz-adv-x="587" 
 />
    <glyph glyph-name="parenright" unicode=")" horiz-adv-x="586" 
 />
    <glyph glyph-name="asterisk" unicode="*" horiz-adv-x="648" 
 />
    <glyph glyph-name="plus" unicode="+" horiz-adv-x="1463" 
 />
    <glyph glyph-name="comma" unicode="," horiz-adv-x="355" 
d="M341 187v0q3 -15 3 -30q0 -16 -3 -31q-5 -25 -13 -44.5t-14.5 -31l-6.5 -11.5v0v0q-19 -38 -58 -75t-104 -61q18 9 27 23q12 20 12 39q0 14 -2 23.5l-2 9.5v0v0q-67 4 -111 51t-43 114q4 65 49.5 109t109.5 44q55 0 97 -34t57 -86v0q0 -2 1 -4v-1v-1v-1q1 -1 1 -2v0z" />
    <glyph glyph-name="hyphen" unicode="-" horiz-adv-x="1478" 
 />
    <glyph glyph-name="hyphen" unicode="&#xad;" horiz-adv-x="1478" 
 />
    <glyph glyph-name="period" unicode="." horiz-adv-x="359" 
d="M182 316v0q65 0 112 -47t47 -112t-47 -112t-112 -47q-67 0 -113.5 48.5t-45.5 116.5q4 65 49.5 109t109.5 44z" />
    <glyph glyph-name="slash" unicode="/" horiz-adv-x="1096" 
 />
    <glyph glyph-name="zero" unicode="0" horiz-adv-x="1840" 
 />
    <glyph glyph-name="one" unicode="1" horiz-adv-x="2794" 
d="M1896 3221v0q131 0 223.5 -93t92.5 -224t-92.5 -223.5t-223.5 -92.5t-223.5 92.5t-92.5 223.5t92.5 224t223.5 93zM2288 3805v0q291 -237 423 -587q43 -117 63 -239.5t20 -246.5v-229v-209.5v-209.5v-526v-551v-496v-357v-137q0 -10 -7 -15q-5 -6 -15 -6h-1h-3
q-110 -3 -219 -1q-55 1 -109 1h-675h-779h-322.5h-322.5h-268q-9 0 -15 6.5t-6 14.5v34v253v434v533v549v485v337v40q-2 77 2 154q26 380 245 694q219 306 564 462q357 155 744 105q381 -53 681 -292zM1080 38v0h780h216v32v299h-30h-350q-10 0 -15 6q-5 5 -5 14v46v299h-31
h-350q-9 0 -14 6q-6 5 -6 14v46v299h-30h-350q-9 0 -14 6q-6 5 -6 14v47v299h-30h-350q-10 0 -14 6q-6 4 -6 14v46v299h-31h-350v-293v-545v-487v-353v-112q27 1 54 -1q18 -1 35 -1h223h674zM2751 2628v0v46q1 54 0 109q-11 381 -224 700q-210 307 -548 464
q-355 159 -740 108q-376 -54 -669 -294q-287 -241 -408 -594q-36 -108 -52 -218.5t-16 -223.5v-241v-422v-192h51h350q8 0 14 -6t6 -14v-47v-298h30h350q8 0 14 -6t6 -14v-47v-299h30h350q9 0 14.5 -5.5t5.5 -14.5v-46v-299h31h350q8 0 14 -6t6 -14v-46v-299h30h350
q8 0 14 -6t6 -14v-46v-305h388h247v12v250v427v527v544v485v345z" />
    <glyph glyph-name="two" unicode="2" horiz-adv-x="3307" 
d="M2472 1697v0q0 -219 -107 -399t-287 -287t-399 -107t-399 107t-287 287t-107 399t107 399t287 287t399 107t399 -107t287 -287t107 -399zM1699 2640v0q0 -13 -10 -17t-20 0t-10 17v86v371v232q0 13 10 17.5t20 0t10 -17.5v-85v-371v-233zM1484 2686v0l-80 454
q-2 13 7 19.5t19 5t13 -13.5q2 -16 5 -32l6 -34q20 -111 39 -221q21 -117 41 -233q2 -13 -6.5 -19.5t-18.5 -5t-13 13.5l-8 44zM1252 2810v0l-36 98q-60 158 -115 318q-3 12 4.5 18.5t18.5 5t16 -13.5q55 -159 114 -317q19 -49 37 -98q4 -13 -4 -19.5t-19 -5t-16 13.5z
M1281 2732v0q-4 12 3.5 18.5t18.5 5t16 -13.5q16 -41 31 -83q12 -36 25 -70q4 -13 -3.5 -19.5t-18.5 -5t-16 13.5l-26 70q-14 42 -30 84zM941 2932v0q-12 15 -17 33q-2 13 6 19.5t18.5 5t14.5 -13.5q4 -15 15 -28l2 -2q12 -14 18 -32q4 -13 -4 -19.5t-18.5 -5t-15.5 13.5
t-14 23q-3 3 -5 6zM1048 2748v0q-2 5 -5 10q-16 32 -36 62q-6 11 -0.5 19t16.5 9.5t19 -8.5q19 -29 35 -61q4 -7 7 -14q14 -25 29 -49q9 -13 17 -27q25 -43 49 -85q22 -40 45 -80q6 -12 0 -20.5t-16.5 -9.5t-17.5 10q-24 40 -46 80l-48 84q-9 15 -18 29q-15 25 -30 51z
M686 2849v0q-2 2 -4 5q-30 42 -67 79q-9 10 -5 19.5t14 13.5t19 -5q38 -38 70 -81q29 -38 60 -73q4 -4 8 -9q76 -88 149 -178q8 -11 4 -21t-13.5 -13.5t-18.5 6.5q-73 90 -149 178q-5 5 -10 11q-30 33 -57 68zM1086 2434v0q9 -10 5 -20t-14 -14t-19 5q-23 27 -45 54
q-26 35 -56 67q-9 10 -5 19.5t14 13.5t19 -5q30 -32 57 -66q21 -28 44 -54zM542 2625v0q-10 8 -9 19t9.5 16.5t19.5 -0.5q21 -16 40 -34q18 -17 39 -32q10 -9 8.5 -19.5t-10 -16.5t-19.5 1q-20 15 -38 33q-19 17 -40 33zM970 2317v0q10 -9 6 -18.5t-14 -13.5t-20 4
q-28 24 -57 47q-99 84 -198 167q-10 9 -6 18.5t14 13.5t20 -4q64 -53 128 -107q63 -53 127 -107zM255 2496v0q-11 7 -10 17.5t10 16.5t20 0q106 -64 215 -124q42 -24 84 -49q62 -40 128 -73q11 -7 10 -17t-9.5 -16.5t-20.5 -1.5q-66 33 -129 73q-41 26 -83 50
q-109 60 -215 124zM852 2151v0q-34 24 -71 42q-14 8 -28 15q-11 7 -10 17.5t9.5 17t20.5 0.5q14 -8 28 -15q37 -19 71 -42q10 -8 8.5 -19t-10 -17t-18.5 1zM302 2219v0q13 -5 26 -9l36 -14q109 -39 217 -78q108 -40 217 -79q11 -5 12.5 -16t-5 -19t-18.5 -4q-16 6 -31 12
q-16 5 -32 11q-216 79 -433 158q-12 5 -13.5 15.5t5 18.5t19.5 4zM66 1961v0q-13 3 -14.5 13t5.5 18.5t19 7.5q42 -8 84 -15q64 -11 127 -23q119 -21 239 -42q106 -18 212 -37q8 -2 17 -3q12 -3 14 -13t-5 -18.5t-20 -7.5q-42 8 -84 15q-183 32 -365 65q-109 19 -217 38z
M735 1717v0q13 0 17.5 -10t0 -20t-17.5 -10h-66h-461q-13 0 -17.5 10t0 20t17.5 10h66h461zM314 1476v0q13 1 17.5 -8t0 -19.5t-17.5 -12.5q-60 -8 -119 -21q-62 -14 -124 -22q-13 0 -17 9t0 19t17 12q62 8 124 22q59 13 119 21zM386 1489v0q5 1 9 2q175 30 349 61
q13 2 20 -6.5t5 -18.5t-14 -13q-175 -32 -350 -62q-4 -1 -8 -1q-13 -2 -19.5 6.5t-5 18.5t13.5 13zM302 1174v0q-13 -3 -19.5 4.5t-5 18.5t13.5 16q31 11 63 23q32 11 64 23q11 4 21 8q4 1 8 3q2 1 4 1q3 1 5 2t5 2q28 10 57 20q14 6 28 11q48 17 97 35q12 4 24 9l24 8
q48 18 96 35q12 4 18.5 -4t5 -18.5t-12.5 -15.5l-32 -12q-15 -5 -31 -11l-356 -130q-39 -14 -77 -28zM497 1038v0q12 5 20.5 -1t9.5 -16.5t-10 -17.5q-92 -52 -184 -106l-58 -34q-12 -6 -20.5 0.5t-9.5 17t10 17.5l58 34q91 54 184 106zM593 1047v0q-11 -6 -19.5 0
t-9.5 16.5t9 18.5q69 43 141 81q70 37 138 79q11 7 19.5 1t9.5 -17t-9 -18q-68 -43 -138 -80q-72 -38 -141 -81zM827 1008v0q10 8 20 4t14 -13.5t-6 -18.5q-112 -99 -229 -194q-30 -24 -60 -49q-10 -7 -20.5 -3t-14 13.5t6.5 17.5q30 25 59 49q117 95 230 194zM942 1105v0
q6 5 14 5.5t14 -5.5t6 -14.5t-6 -14.5l-12 -10l-28 -24q-7 -5 -14.5 -5.5t-14.5 5.5q-5 6 -5.5 14.5t5.5 14.5q7 5 14 11q13 11 27 23zM755 627v0q9 10 18 6.5t13.5 -13.5t-2.5 -21q-43 -54 -89 -106q-26 -30 -52 -61q-8 -9 -17.5 -5.5t-13.5 13.5t3 20q26 31 52 61
q45 52 88 106zM1086 960v0q-26 -32 -53 -64q-36 -41 -70 -84q-31 -40 -65 -78q-31 -34 -60 -69q-8 -10 -17.5 -6.5t-13.5 13.5t3 21q29 35 60 70q33 38 65 77q34 43 70 85q27 31 53 63q9 10 18.5 6.5t13.5 -14t-4 -20.5zM1224 870v0q-5 -9 -10 -17q-11 -21 -23 -41l-50 -86
q-90 -156 -181 -313q-7 -11 -17.5 -10t-16.5 10t0 20q5 9 10 17q12 20 23 41q115 199 231 399q7 11 17.5 9.5t16.5 -10t0 -19.5zM1337 816v0q5 11 15.5 12.5t18.5 -5t4 -18.5q-2 -7 -5 -14l-24 -66q-29 -80 -58 -159q-34 -95 -69 -190q-6 -17 -13 -35l-66 -184
q-5 -11 -16 -12.5t-19 5t-4 18.5q5 15 11 30l18 50q52 143 104 285q11 32 23 64q20 55 40 109zM1496 773v0q3 13 13 14.5t18.5 -5.5t6.5 -20l-8 -48q-2 -8 -3 -17q-12 -66 -24 -133q-28 -160 -56 -321q-3 -13 -13 -14.5t-19 5.5t-7 20q2 10 4 21l8 44zM1659 561v0
q0 13 9.5 17.5t19.5 0t11 -17.5q2 -248 0 -497q-1 -13 -11 -17t-19.5 0t-9.5 17q2 249 0 497zM1699 633v0q-2 -13 -11.5 -17.5t-19 0t-9.5 17.5q2 60 0 120q0 13 9.5 17.5t19 0t11.5 -17.5q2 -60 0 -120zM1921 436v0q8 -44 16 -89q8 -46 16 -93q2 -13 -6.5 -20t-18.5 -5.5
t-13 14.5q-8 47 -17 94q-8 44 -15 88q-2 13 6.5 20t18.5 5t13 -14zM1909 501v0q1 -13 -8 -17t-19 0t-13 17q-4 37 -12 73q-6 33 -11 66q-4 29 -11 57q-9 35 -13 71q0 13 9.5 17t19.5 0t11 -17q3 -28 11 -55q2 -6 3 -12q6 -26 9 -53q1 -4 1 -9q5 -32 11 -63q8 -37 12 -75z
M2177 387v0q39 -110 79 -219q4 -12 -4 -18.5t-18.5 -5t-15.5 12.5l-24 66q-3 7 -6 15q-31 87 -63 174t-63 174q-20 54 -39 107q-21 56 -41 112q-4 12 4 18.5t18.5 5t16.5 -12.5q1 -5 3 -9l26 -72q35 -96 70 -193q29 -78 57 -155zM2201 832v0q51 -88 102 -177l128 -222
q6 -11 0 -20t-16.5 -10t-17.5 10q-17 29 -33 58q-116 199 -231 399q-6 11 0.5 19.5t17 10t17.5 -9.5q16 -29 33 -58zM2593 639v0q21 -26 42 -51q54 -64 107 -128q8 -10 4 -20t-13.5 -13.5t-18.5 5.5q-5 5 -9 11q-23 27 -46 55q-79 94 -159 189q-40 47 -80 95q-25 30 -50 59
q-49 60 -99 119q-8 10 -4 20.5t13.5 14t18.5 -6.5q28 -32 55 -65q119 -142 239 -284zM2820 765v0q9 -8 5.5 -17.5t-13.5 -14t-21 3.5q-45 39 -91 77q-80 68 -162 135q-9 9 -5.5 18.5t13.5 13.5t21 -3q81 -68 161 -136q46 -38 92 -77zM2387 1076v0q-9 9 -5.5 18.5t13.5 13.5
t20 -3q19 -16 37 -31q22 -19 44 -37q9 -9 5.5 -18.5t-13.5 -13.5t-20 4q-32 26 -64 53q-8 7 -17 14zM3103 898v0q10 -7 9 -18t-9.5 -17t-20.5 0q-143 87 -290 168q-11 7 -10 17.5t9.5 16.5t20.5 1q147 -81 291 -168zM2664 1105v0q-14 7 -27 17q-13 9 -27 17q-20 10 -40 21
q-44 21 -84 48q-11 8 -9.5 18.5t10 16.5t19.5 -1q41 -26 84 -48q20 -10 40 -21q14 -8 27 -17t27 -17q7 -4 15 -8q20 -11 40 -23q10 -8 8.5 -18.5t-10 -16.5t-19.5 0q-19 13 -39 23q-8 4 -15 9zM3056 1174v0l-32 12q-15 6 -31 11q-108 40 -217 79q-108 39 -216 79
q-12 5 -13.5 15.5t5 18.5t18.5 4q10 -3 20 -7q21 -7 43 -15q36 -13 72 -26.5t72 -26.5q145 -52 289 -105q12 -5 13.5 -16t-5 -18.5t-18.5 -4.5zM3292 1433v0q12 -3 13.5 -13t-5 -18.5t-19.5 -7.5q-94 14 -187 33q-95 20 -191 34q-13 2 -14.5 12t5 18.5t19.5 7.5
q96 -14 192 -33q93 -19 187 -33zM2842 1512v0q12 -3 14 -13t-5 -18.5t-20 -7.5l-110 20q-59 10 -119 21q-12 3 -13.5 13t5 18.5t19.5 6.5q59 -11 119 -21q55 -9 110 -19zM3150 1677v0h-67h-461q-13 0 -17 10t0 20t17 10h67h461q12 0 16.5 -10t0 -20t-16.5 -10zM2686 1895v0
q128 22 255 45q55 9 111 19q114 20 229 41q13 1 19.5 -7.5t5 -18.5t-13.5 -13q-33 -6 -65 -11q-10 -2 -19 -4l-366 -64l-114 -20q-58 -11 -115 -21q-13 -1 -19.5 7.5t-5 18.5t13.5 13q21 3 41 7q22 4 43 8zM2570 2000v0q-12 -4 -18.5 4t-5 19t13.5 16q18 6 37 13q12 5 25 9
q109 40 217 79q108 40 217 79q12 4 18.5 -4t5 -18.5t-13.5 -15.5q-23 -9 -46 -17l-16 -6zM2486 2186v0q14 8 29 17q22 13 45 25q91 53 183 106l138 80l52 30q75 43 149 86q12 6 20.5 0t9.5 -16.5t-9 -17.5q-20 -11 -39 -22q-18 -11 -35 -21l-98 -56q-112 -65 -224 -129
q-50 -30 -101 -59l-100 -58q-12 -6 -20.5 0.5t-9.5 17t10 17.5zM2636 2474v0q-11 -7 -19 -1t-9.5 16.5t8.5 19.5q61 48 120 99q27 25 55 48q11 8 21 4t13.5 -13.5t-5.5 -18.5l-56 -48q-62 -55 -128 -106zM2415 2289v0q-10 -7 -20 -3t-13.5 13.5t5.5 17.5q35 29 69 59
q45 40 93 77q10 7 18.5 1t10 -17t-8.5 -19q-45 -35 -87 -73q-33 -29 -67 -56zM2271 2434v0q21 24 42 49q6 8 13 16q59 71 119 142t119 142l150 178q9 10 18.5 6.5t13.5 -13.5t-4 -21q-12 -14 -23 -28q-16 -18 -32 -37q-30 -36 -59 -71q-90 -107 -179 -213q-75 -90 -150 -179
q-9 -9 -18.5 -5.5t-13.5 13.5t4 21zM2133 2524v0q17 29 33 57q73 126 145 252l86 148q7 10 17.5 9t16.5 -9.5t0 -19.5q0 -2 -1 -3l-2 -4q-4 -6 -8 -13q-2 -3 -3 -6q-4 -7 -8 -13q-3 -5 -5 -10q-1 -1 -2 -3q-1 -1 -2 -3l-1 -1v-1v0l-1 -1l-186 -322q-22 -39 -44 -77
q-7 -11 -17.5 -10t-17 9.5t-0.5 20.5zM2149 2930v0q-6 -12 -17 -13.5t-18.5 5t-3.5 19.5q37 94 70 189q18 53 38 106q5 12 15.5 13.5t18.5 -5t4 -18.5q-19 -53 -37 -106q-33 -96 -70 -190zM2021 2578v0q-6 -12 -17 -13.5t-18.5 5t-3.5 19.5q23 59 43 119q25 78 57 154
q5 11 15 10t17 -10t2 -21q-30 -72 -54 -147q-19 -59 -41 -116zM1862 2620v0q-3 -12 -13 -13.5t-18.5 5t-7.5 19.5q3 17 6 33t6 33q16 90 32 181q24 136 48 273q3 12 13 13.5t18.5 -5t6.5 -19.5q-5 -33 -11 -66z" />
    <glyph glyph-name="three" unicode="3" horiz-adv-x="2505" 
d="M1454 1261v0q72 -43 114 -114q43 -72 43 -159q0 -88 -43 -159q-7 -14 -16 -26q20 49 20 105q0 115 -81 196t-196 81t-196 -81t-81 -196q0 -56 21 -105q-9 12 -17 26q-43 71 -43 159q0 87 43 159q42 71 114 114t159 43t159 -43zM2168 3337v0q288 -311 330 -732
q7 -94 5 -188v-42v-355v-459v-438v-282v-122v-427v-278q0 -13 -10 -17.5t-20 0t-10 17.5v76v421v287v142v364v458v427v270v13q0 24 -1 49q-4 215 -84 416q-154 371 -498 579q-335 194 -721 159q-435 -48 -741 -362q-305 -326 -327 -772q-2 -73 -1 -146v-56v-393v-459v-355
v-115v-324v-452v-227q0 -13 -10 -17.5t-20 0t-10 17.5v62v384v435v154v246v437v448v286q0 142 27 278.5t86 265.5q90 193 239 345q1 0 2 1l2 2l1.5 1.5t1 1.5t1.5 1q2 3 5 5l12 12q18 17 37 34q38 34 78 64q88 66 187 116q386 186 806 100q370 -81 633 -356zM2102 3166v0
q249 -303 254 -695v-119v-60v-393v-452v-354v-125v-358v-315v-285q0 -13 -10 -17t-20 0t-10 17v148v233v422v181v232v411v442v320v23v45q0 146 -39 287q-115 382 -450 599q-326 198 -705 146q-404 -67 -662 -384q-221 -286 -223 -648v-150v-75v-422v-418v-209v-204v-435
v-260v-284q0 -13 -10 -17t-20 0t-10 17v149v109v108v402v370v118v348v451v341v22v42q0 173 54 338q63 191 191 347q5 7 10 13q27 35 58 63q2 2 3 2q0 1 1 1q1 2 3 4l10 10l4 4q17 16 35 31q77 68 165 120q174 102 371.5 133t395.5 -9q362 -79 604 -361zM1476 3350v0
q350 -82 561 -374q85 -121 126.5 -260.5t41.5 -286.5v-250v-419v-399v-195v-262v-327v-267v-300q0 -13 -10 -17t-20 0t-10 17v88v398v183v401v134v304v425v369v47q3 94 -5 187q-23 190 -120 352t-253 272q-305 208 -670 148q-190 -36 -346.5 -144.5t-256.5 -272.5
q-97 -162 -120 -350q-6 -68 -6 -135v-298v-427v-309v-134v-402v-270v-270v-296q0 -13 -10 -17t-20 0t-10 17v90v401v165v404v274v176v408v389v32q-4 129 14 257q33 188 138 348q29 43 61 82q16 19 34 38q8 9 17 18l4 4q1 2 3 4q0 -1 -0.5 -1.5l-1 -1l-1 -1l-0.5 -0.5
l0.5 0.5l1.5 1.5q69 69 150 123q158 102 341 135t367 -6zM1470 3130v0q163 -42 294 -147.5t208 -254.5q83 -167 84 -353v-34v-17v-314v-407v-273v-179v-333v-185v-400v-223q0 -13 -10 -17t-20 0t-10 17v59v352v344v163v356v131v352v393v71v141q-6 340 -259 565
q-130 110 -292 153t-329 12q-179 -36 -320 -148.5t-217 -279.5q-63 -144 -62 -301v-50v-25v-350v-374v-137v-334v-288v-187v-396v-218q0 -13 -10 -17.5t-20 0t-10 17.5v60v359v340v149v391v164v292v399v69v138q0 183 81 348q40 80 98 150q15 18 32 35l14 16h1l1.5 1.5l3 3
l2.5 2.5q33 34 71 62q144 110 319 145.5t350 -8.5zM723 2924v0q-1 -1 -0.5 -0.5l2.5 2.5q-1 0 -1 -1zM1433 2944v0q155 -38 274.5 -141.5t181.5 -250.5q49 -122 49 -255v-53v-26v-702v-483v-467v-556q0 -13 -10 -17t-20 0t-10 17v46v679v447v463v642q0 131 -48 251t-144 212
q-117 110 -268.5 151t-308.5 5q-163 -42 -282 -156t-167 -274q-18 -66 -22 -131.5t-3 -132.5v-29v-643v-525v-457v-544q0 -13 -10 -17.5t-20 0t-10 17.5v46v687v431v483v212v423q0 120 40 233q28 75 72 141q23 33 49 64q3 3 5 6q11 14 24 26l4 4q2 2 4 3l8 8
q124 117 285.5 159.5t326.5 3.5zM1276 2071v0q-131 0 -223.5 93t-92.5 224t92.5 223.5t223.5 92.5t224 -92.5t93 -223.5t-93 -224t-224 -93zM1276 1925v0q131 0 224 -93t93 -224h-633q0 131 92.5 224t223.5 93z" />
    <glyph glyph-name="four" unicode="4" horiz-adv-x="3147" 
d="M2995 1251v0q56 -273 105 -546q23 -122 46 -243q1 -13 -7.5 -19.5t-18.5 -5t-13 13.5l-84 440l-18 100q-28 155 -62 309q-36 162 -104.5 313t-192.5 264q-117 105 -271 135q-79 12 -159 7t-159 -15l-34 -4q-89 -12 -179 -14.5t-178 19.5q-75 22 -142.5 60t-132.5 81
q-15 11 -31 21q-71 48 -147.5 83t-163.5 40q-65 3 -125.5 -17t-100.5 -72v-1l22 -22q247 -249 566 -394q12 -6 11 -16t-10 -16.5t-21 -1.5q-175 79 -331 192q-275 199 -467 479l-42 64q-37 59 -78.5 115t-93.5 103q-58 50 -131 74.5t-148 6.5l34 -62q185 -335 414 -640
q229 -308 503 -577q66 -66 141 -120.5t164 -85.5q108 -32 219 -47q82 -11 162 -30q331 -89 503 -386q88 -163 95 -345.5t-66 -351.5q-6 -12 -16 -11t-16.5 10t-1.5 21q18 41 30 84q50 175 18 351.5t-143 320.5q-101 128 -244 205q-80 41 -165.5 62t-174.5 33
q-93 14 -182 38.5t-170 74.5q-77 49 -143.5 111.5t-128.5 128.5q-261 273 -482 579q-220 306 -396 639q-4 9 -0.5 17t12.5 12q91 32 181 4.5t160 -88.5q54 -48 96.5 -106t81.5 -119q20 -31 41 -62q77 -113 169 -214q5 7 10 13q1 287 37 572q32 254 93 503q9 50 44 87
q34 27 77 23q49 -6 82 -37.5t48 -77.5q13 -43 14.5 -90t0.5 -93q-1 -23 -1 -46q-1 -132 -4 -264q-2 -87 -5 -173q76 98 151 195l118 152q20 26 39 52q43 59 90 113q27 30 62.5 45.5t74.5 -2.5q34 -20 49 -55.5t10 -73.5q-7 -44 -28 -83.5t-45 -75.5q-5 -8 -10 -15
q-36 -56 -75 -112q-89 -126 -159.5 -261t-74.5 -289q59 179 202 301q83 67 179 116q76 40 151 79q33 17 65 34q8 5 17 10q39 25 83 31q47 -1 71 -42q23 -45 4.5 -89.5t-50.5 -78.5q-56 -56 -123 -98q-44 -29 -84.5 -61.5t-70.5 -77.5q-97 -157 -49 -335q128 -4 255 16
q30 4 59 7q90 11 180 10.5t176 -27.5q146 -50 253 -162q121 -127 185.5 -288t98.5 -331zM1435 2897v0q-62 -80 -123 -159q-62 -79 -123 -158q-5 -137 -12 -274q93 -33 176 -88q-2 95 24.5 185.5t70.5 173.5q65 117 142 226l60 88q7 12 15 23q49 67 75 142q10 34 -1.5 73
t-53.5 43q-20 -1 -36.5 -12.5t-28.5 -26.5q-23 -26 -43 -53q-8 -10 -15 -20q-33 -42 -65 -83zM845 2278v0q52 35 114 46t124 3q28 -3 54 -10q14 265 20 530q2 121 3 241q0 22 1 45q1 44 -0.5 88t-14.5 85q-13 39 -49 66.5t-79 10.5q-21 -11 -30.5 -32.5t-14.5 -43.5v-3
q-14 -56 -26 -113q-97 -451 -102 -913zM1418 2177v0q73 -50 150.5 -90t166.5 -55q5 -1 11 -2q-43 178 47 336q44 73 113 124q31 23 63 44q42 27 81 58q32 25 63 66.5t15 84.5q-14 27 -37.5 24t-45.5 -16q-34 -18 -69 -36q-17 -9 -33 -18q-33 -17 -67 -34
q-77 -38 -151.5 -81.5t-136.5 -102.5q-127 -127 -170 -302zM1641 3726v0q-103 61 -164 164t-61 227q0 125 61 228t164 164q102 61 227 61t228 -61q19 -12 37 -25q-71 30 -151 30q-109 0 -199 -53.5t-143.5 -143.5t-53.5 -200q0 -109 53.5 -199t143.5 -143.5t199 -53.5
q80 0 151 29q-18 -12 -37 -24q-103 -61 -228 -61t-227 61z" />
    <glyph glyph-name="five" unicode="5" horiz-adv-x="3307" 
d="M1652 3591v0q-143 59 -205 201q-59 156 16 304q77 136 226 179q163 38 300 -56q11 -8 9 -20q-1 -7 -5 -12t-11 -6q-6 -1 -12 3q-128 48 -247 -19q-89 -57 -120.5 -154t9.5 -195q49 -105 151 -145t211 0q11 4 17.5 -3t6 -17t-8.5 -17q-158 -106 -337 -43zM1483 4045v0
q-51 -137 15 -267q69 -124 205 -161q65 -16 128 -5q-68 7 -128 43q-102 64 -138 175t10 223q36 81 105 130t153 59q-83 14 -165 -15q-130 -53 -185 -182zM1769 -511v0q143 -59 204 -201q59 -156 -16 -304q-76 -136 -225 -179q-163 -38 -301 55q-8 7 -8 17t6 17t18 3
q130 -50 250 18q89 56 120.5 153.5t-8.5 194.5q-49 105 -150 145.5t-208 1.5q-7 -4 -12 -3q-7 1 -11.5 6t-4.5 12q-2 12 8 20q158 107 338 44zM1937 -965v0q51 137 -14 267q-69 124 -205 161q-65 16 -129 5q69 -7 128 -43q103 -64 138.5 -175t-9.5 -223q-37 -81 -105.5 -130
t-153.5 -59q83 -14 165 15q130 53 185 182zM1659 3231v0q1 13 10.5 17t19 0t10.5 -17q-3 -86 0 -171q-1 -13 -10.5 -17t-19 0t-10.5 17q-3 85 0 171zM1659 2990v0q1 13 10.5 17.5t19 0t10.5 -17.5q-3 -224 0 -448q-1 -13 -10.5 -17.5t-19 0t-10.5 17.5q-3 224 0 448z
M1484 2588v0q-27 151 -53 302q-14 76 -27 152q-2 12 7 19t19 5.5t13 -14.5q2 -14 5 -29l6 -36q20 -114 40 -227.5t40 -226.5q2 -13 -6.5 -20t-19 -5t-12.5 14q-3 17 -6 33t-6 33zM1228 2778v0q-25 69 -50 139q-38 106 -77 210q-4 12 4 18.5t18.5 5.5t16.5 -13
q39 -105 76 -210q25 -70 51 -140q4 -12 -4 -18.5t-19 -5t-16 13.5zM1257 2699v0q-4 12 3.5 18.5t18.5 5.5t16 -13q43 -109 80 -220q4 -12 -4 -18.5t-19 -5t-15 13.5q-37 110 -80 219zM1156 2463v0q-57 100 -115 200q-57 99 -115 199q-6 12 0 20.5t16.5 9.5t17.5 -10
q8 -12 15 -25q10 -16 19 -32q53 -93 107 -186q62 -107 123 -214q6 -11 0 -19.5t-16.5 -9.5t-17.5 9q-9 15 -17 29q-8 15 -17 29zM765 2657v0q-38 44 -75 89q-37 44 -75 89q-8 10 -3.5 20t14 13.5t17.5 -5.5q28 -33 55 -65q88 -104 175 -209l64 -76q25 -29 50 -59
q50 -59 99 -119q8 -10 4 -20t-13.5 -13.5t-18.5 5.5q-27 33 -55 65q-119 142 -238 285zM538 2530v0q-10 9 -6.5 18.5t14 13.5t20.5 -4l28 -24q12 -9 23 -19q151 -127 302 -253q26 -22 51 -43q9 -9 5.5 -18.5t-13.5 -13.5t-20 4q-26 21 -51 42l-190 160q-82 68 -163 137z
M255 2397v0q-11 8 -9.5 18.5t10 16.5t19.5 0q49 -30 100 -58q29 -16 58 -33q10 -7 9 -17.5t-9.5 -16.5t-20.5 -1q-28 17 -58 33q-50 29 -99 58zM488 2263v0q-11 6 -10 16.5t9.5 17t20.5 0.5q56 -29 110 -62q36 -22 72 -43q91 -52 182 -105q11 -7 9.5 -17.5t-10 -16.5
t-19.5 0q-91 53 -182 104q-37 21 -72 43q-54 34 -110 63zM291 2082v0q-12 5 -13 16t5.5 19t18.5 4q33 -13 66 -24q42 -14 83 -31q12 -5 13 -16t-5 -18.5t-19 -3.5q-41 16 -83 31q-33 11 -66 23zM798 1940v0q12 -4 13.5 -15t-5.5 -19t-19 -4q-84 28 -168 60q-49 19 -100 37
q-12 5 -13 16t5.5 18.5t18.5 4.5q50 -18 100 -37q83 -32 168 -61zM66 1863v0q-13 3 -14.5 13t5 18.5t19.5 6.5q18 -3 35 -6q25 -4 49 -9l366 -64l114 -20q58 -10 115 -20q12 -3 14 -13t-5 -19t-20 -7q-21 4 -42 7l-42 8l-148 26q-108 19 -217 38q-58 10 -115 20
q-57 11 -114 21zM492 1618v0q13 0 17.5 -10t0 -19.5t-17.5 -10.5q-142 1 -284 0q-13 1 -17.5 10.5t0 19.5t17.5 10q142 1 284 0zM735 1578v0q-78 1 -157 0q-13 1 -17.5 10.5t0 19.5t17.5 10q79 1 157 0q13 0 17.5 -10t0 -19.5t-17.5 -10.5zM317 1379v0q13 1 19.5 -7.5
t5 -18.5t-13.5 -13q-68 -13 -136 -24l-116 -20q-13 -2 -19.5 6.5t-5 18.5t14.5 13q57 11 115 21q68 11 136 24zM414 1355v0q-13 -2 -20 6.5t-5 18.5t14 14q88 18 176 31q83 12 165 29q13 2 20 -6.5t5 -18.5t-14 -14q-82 -16 -165 -29q-89 -13 -176 -31zM302 1076v0
q-13 -4 -19.5 4t-5 19t13.5 16q29 10 58 21q2 1 5 1q180 66 361 132l72 26q12 4 18.5 -4t5 -18.5t-12.5 -16.5q-32 -11 -63 -22q-217 -79 -433 -158zM691 1051v0q11 6 19.5 0t10 -16.5t-9.5 -17.5q-74 -43 -147 -86q-143 -86 -289 -166q-12 -6 -20.5 0.5t-9.5 17t10 16.5
q145 81 288 166zM786 1060v0q-11 -6 -19.5 0t-9.5 16.5t9 18.5q42 25 86 49q11 6 19.5 -0.5t10 -17t-9.5 -17.5q-43 -23 -86 -49zM671 779v0q11 8 21 3.5t13.5 -14t-5.5 -17.5q-35 -28 -69 -57q-32 -29 -65 -55q-11 -8 -21 -3.5t-13.5 14t6.5 17.5q33 27 65 55q33 30 68 57z
M771 811v0q-10 -8 -20 -4t-14 13.5t6 18.5q55 47 111 93l88 74q10 8 20 4t13.5 -13.5t-5.5 -18.5q-64 -54 -129 -108q-35 -30 -70 -59zM1086 862v0l-36 -44l-18 -22q-100 -118 -199 -237q-20 -23 -40 -47l-150 -178q-8 -10 -17.5 -6.5t-14 14t3.5 20.5q26 31 53 63l2 2
q119 143 239 285l112 134q19 22 37 44q9 9 18.5 5.5t13.5 -13.5t-4 -20zM1224 771v0q-16 -28 -33 -57q-90 -156 -180 -313q-25 -43 -51 -86q-7 -11 -17.5 -10t-16.5 9.5t0 20.5q17 29 33 57q115 200 231 400q7 10 17.5 9t16.5 -9.5t0 -20.5zM1256 495v0q5 12 16 13.5
t18.5 -5t3.5 -19.5q-50 -131 -96 -263l-58 -162q-6 -12 -16.5 -13.5t-18.5 5t-4 19.5q30 80 58 161q46 133 97 264zM1337 717v0q5 12 16 13.5t18.5 -5t3.5 -18.5l-34 -94q-9 -26 -19 -52q-5 -12 -15.5 -13.5t-18.5 5t-4 19.5l18 52q17 47 35 93zM1443 145v0
q-3 -13 -13 -14.5t-19 5t-7 19.5l6 36l6 30l80 454q3 12 13 13.5t18.5 -5t6.5 -19.5q-6 -33 -11 -65q-29 -161 -57 -322q-12 -66 -23 -132zM1659 655v0q0 13 10 17.5t20 0t10 -17.5v-85v-371v-233q0 -13 -10 -17.5t-20 0t-10 17.5v85v371v233zM1953 155v0q2 -13 -6.5 -19.5
t-18.5 -5t-13 14.5t-6 27q-10 31 -10 64q1 13 11 17t19.5 0t9.5 -17q0 -29 9 -56q3 -12 5 -25zM1823 664v0q-1 13 7 19.5t18.5 5t13.5 -13.5q33 -178 62 -356q2 -13 -6.5 -19.5t-18.5 -5t-13 14.5q-30 178 -63 355zM2177 288v0q20 -54 39 -109q20 -55 40 -109
q4 -13 -4 -19.5t-18.5 -5t-15.5 13.5q-2 6 -5 12q-12 34 -25 68q-63 175 -126 349q-40 109 -80 219q-4 12 4 18.5t18.5 5t16.5 -13.5q8 -23 16 -45q7 -18 13 -35l62 -170q32 -89 65 -179zM2278 601v0q79 -132 153 -266q6 -12 -0.5 -20.5t-16.5 -9.5t-17 10q-74 134 -154 265
q-6 12 0.5 20.5t17 9.5t17.5 -9zM2133 771v0q-6 12 0.5 20.5t16.5 9.5t18 -9q12 -21 23 -42q22 -40 46 -78q6 -12 0 -20.5t-16.5 -9.5t-18.5 9q-24 39 -45 79q-12 21 -24 41zM2526 620v0q42 -51 85 -102q65 -78 131 -156q8 -10 4 -20t-13.5 -14t-18.5 6q-66 77 -131 156
l-86 102q-7 10 -3 20t13.5 13.5t18.5 -5.5zM2299 890v0q6 -7 12 -13q85 -97 165 -198q7 -11 1.5 -19t-16.5 -9.5t-20 8.5q-72 92 -150 179l-20 24q-8 10 -4 20t13.5 13.5t18.5 -5.5zM2820 667v0q9 -9 5.5 -18.5t-14 -13.5t-20.5 4q-71 62 -145 121q-9 9 -5.5 18.5t13.5 13.5
t21 -3q73 -60 145 -122zM2387 978v0q-9 9 -5.5 18.5t13.5 13.5t20 -4q27 -22 54 -45q69 -56 136 -114q9 -9 5.5 -18.5t-13.5 -13.5t-21 4q-67 58 -135 114q-27 22 -54 45zM3103 799v0q10 -7 9 -17.5t-9.5 -16.5t-20.5 0q-4 2 -8 5l-66 38q-104 60 -207 120q-57 32 -114 65
q-19 11 -39 23q-81 47 -162 93q-11 8 -10 18t9.5 16.5t20.5 0.5q20 -12 40 -23l34 -20q160 -92 321 -185q101 -58 202 -117zM2560 1256v0q-12 6 -13.5 16.5t5 18.5t18.5 4q16 -6 32 -11q15 -6 31 -12q108 -39 217 -79l216 -78q12 -5 13.5 -16t-5 -19t-18.5 -4l-50 18
q-7 2 -13 5q-48 17 -96 35q-24 9 -48 17q-145 53 -289 105zM3292 1334v0q12 -3 13.5 -13t-5 -18.5t-19.5 -6.5l-84 14q-183 33 -366 65l-114 20t-115 20q-12 3 -13.5 13t5 18.5t19.5 7.5q42 -8 84 -15q4 -1 9 -1q178 -32 357 -63q57 -10 114 -21q57 -10 115 -20zM2793 1578
v0q-13 1 -17.5 10.5t0 19.5t17.5 10q178 1 357 0q12 0 16.5 -10t0 -19.5t-16.5 -10.5q-179 1 -357 0zM2622 1618v0q42 1 84 0q13 -1 17 -10.5t0 -19t-17 -10.5q-42 1 -84 0q-13 1 -17 10.5t0 19t17 10.5zM2975 1807v0q-13 -2 -19.5 6.5t-5 18.5t13.5 13q73 14 146 26
q86 13 171 30q13 2 19.5 -6.5t5 -18.5t-13.5 -13q-86 -18 -172 -31q-73 -11 -145 -25zM2878 1830v0q13 2 19.5 -6.5t5 -19t-13.5 -12.5q-41 -8 -81 -15q-98 -17 -195 -34q-13 -2 -19.5 6.5t-5 19t13.5 13.5l196 34zM3066 2082v0q-16 -5 -31 -11q-16 -6 -31 -12
q-217 -78 -434 -157q-12 -4 -18.5 4t-5 18.5t13.5 15.5q15 6 31 12q16 5 31 11q166 61 333 121q50 18 101 37q12 3 18.5 -4.5t5 -18.5t-13.5 -16zM2486 2087v0q18 11 37 22q18 10 37 21q50 29 101 59q110 63 220 127l118 68q42 24 83 48q12 6 20.5 -0.5t9.5 -17t-9 -17.5
q-32 -18 -63 -36q-6 -3 -11 -6q-81 -47 -161 -93t-161 -93q-52 -30 -105 -61q-48 -27 -96 -55q-12 -6 -20.5 0t-9.5 16.5t10 17.5zM2613 2357v0q-10 -9 -20 -5t-13.5 14t5.5 19q54 48 110 93q49 39 96 80q10 8 20 4t14 -13.5t-5 -18.5q-48 -42 -97 -81q-56 -45 -110 -92z
M2523 2333v0q10 8 20 4t13.5 -13.5t-5.5 -18.5q-36 -33 -74 -63q-31 -25 -62 -51q-10 -8 -20 -4t-13.5 13.5t5.5 18.5q31 26 62 51q37 31 74 63zM2271 2335v0q7 9 14 17q20 24 41 49q99 118 199 237q19 23 39 47q40 48 81 95q34 42 69 83q9 9 18.5 5.5t13.5 -13.5t-4 -20
q-27 -33 -55 -66l-238 -284q-26 -30 -51 -60q-49 -59 -99 -118q-9 -9 -18.5 -5.5t-13.5 13.5t4 20zM2133 2425v0q17 29 33 58q68 118 136 235q47 82 95 164q7 11 17.5 10t16.5 -9.5t0 -20.5q-16 -29 -33 -58q-37 -63 -74 -127l-156 -272q-7 -11 -17.5 -9.5t-17 10t-0.5 19.5
zM2021 2480v0q-6 -12 -16.5 -13.5t-18.5 5t-4 18.5q5 14 10 27q9 27 19 53q35 96 69 191l58 158q9 23 17 46q31 86 63 173q5 12 15.5 13.5t18.5 -5.5t4 -19q-13 -37 -27 -74l-2 -6q-51 -139 -101 -278q-13 -36 -26 -71q-20 -54 -40 -109t-39 -109zM1904 2763v0
q-3 -13 -13 -14.5t-18.5 5t-6.5 19.5l16 92q18 93 33 187q2 13 12 14.5t18.5 -5.5t7.5 -19q-14 -94 -32 -187q-9 -46 -17 -92zM1852 2694v0q3 13 13 14.5t18.5 -5.5t6.5 -19l-14 -80l-14 -82q-3 -12 -13 -14t-18.5 5t-7.5 20q8 41 15 81q6 40 14 80z" />
    <glyph glyph-name="six" unicode="6" horiz-adv-x="2932" 
d="M2916 2386v0q9 -3 12.5 -12t-0.5 -17q-78 -132 -209 -211q-117 -66 -245 -110q-68 -26 -138 -47t-144 -27q-126 -8 -248 28.5t-218 120.5l-6 6q-40 -11 -83 -1q-2 0 -4 1q-124 -209 -219 -431q-165 -396 -212 -823q-47 -426 28 -849q1 -13 -7.5 -19.5t-18.5 -5t-13 14.5
q-9 52 -17 104q-59 422 -1 844q10 70 23 140q-6 1 -11 6q-50 49 -83 109q-12 21 -23 43q-163 52 -318 125q-138 65 -246 172q-51 55 -94 117q-43 63 -96 118q-26 27 -57 48q-17 11 -34 21q-16 8 -32 18q-63 41 -82 115q-16 61 -25 123q-4 25 -9 50q-9 51 -19 101
q-8 43 -15 85q-2 9 3 17.5t16 7.5q98 -9 196 -29.5t185 -71.5q44 -30 83 -66q28 -26 59 -49q42 -29 88 -48q35 -15 68 -34q66 -43 104 -111.5t65 -141.5q7 -19 15 -38q40 -95 74 -193q19 -58 36 -117q8 -25 16 -51q18 -61 42 -120q35 -91 102 -163q66 324 199 627
q70 153 152.5 299.5t170.5 290.5q13 20 25 41q40 64 79 129q29 49 59 99q148 246 254 512q7 19 14 37q-9 3 -12 14q-9 53 -28 102h-3q-120 -13 -240 3q-101 20 -190 73q-83 42 -137 117q-30 51 -51 106q-13 32 -28 63q-45 92 -109 172q-8 11 -4 21.5t18 12.5q120 13 238 -9
q106 -26 173 -112q50 -60 112 -107q33 -27 64 -55q68 -63 121.5 -138t83.5 -162q7 -21 12 -43q11 34 21 68q61 201 69.5 409.5t-54.5 409.5q-4 13 4 19.5t19 5t15 -13.5q16 -49 28 -100q44 -204 23 -410.5t-88 -403.5q-53 -155 -124.5 -302t-154.5 -289q-50 -86 -102 -171
q-23 -37 -45 -74q-31 -51 -62 -101l-72 -122q34 -6 66 3v1v0q2 0 4 1v0q1 0 2 1q46 16 84.5 50t70.5 69q41 46 87 82t106 54q137 35 279 36q285 4 563 -64z" />
    <glyph glyph-name="seven" unicode="7" horiz-adv-x="1557" 
 />
    <glyph glyph-name="eight" unicode="8" horiz-adv-x="1702" 
 />
    <glyph glyph-name="nine" unicode="9" horiz-adv-x="1851" 
 />
    <glyph glyph-name="colon" unicode=":" horiz-adv-x="357" 
 />
    <glyph glyph-name="semicolon" unicode=";" horiz-adv-x="357" 
 />
    <glyph glyph-name="less" unicode="&#x3c;" horiz-adv-x="1368" 
 />
    <glyph glyph-name="equal" unicode="=" horiz-adv-x="1456" 
 />
    <glyph glyph-name="greater" unicode="&#x3e;" horiz-adv-x="1383" 
 />
    <glyph glyph-name="question" unicode="?" horiz-adv-x="1521" 
 />
    <glyph glyph-name="at" unicode="@" horiz-adv-x="2328" 
 />
    <glyph glyph-name="A" unicode="A" horiz-adv-x="2311" 
d="M2029 408v0q1 -1 18.5 -42t47.5 -101.5t67 -120.5t75.5 -102t73.5 -42h-586q35 0 42.5 41.5t-1 101.5t-24 120t-29 101l-13.5 41v0l-69 183h-1220l-68 -180q-1 -1 -13.5 -42t-27.5 -101.5t-23 -120.5t0 -102t43 -42h-307q34 0 73 42t76.5 102t68 120.5t49 102l18.5 41.5
v0l844 2215h43zM426 628v0h1189l-594 1559z" />
    <glyph glyph-name="B" unicode="B" horiz-adv-x="2045" 
d="M1343 1429v0q196 -4 354.5 -99t253 -255t94.5 -354q0 -196 -96 -357t-257 -256.5t-356 -95.5l-1321 -1q31 0 50 34t29 85.5t15 106.5q1 18 2 35v2101q-1 17 -2 35q-5 55 -15 106.5t-29 85.5t-50 34h368l611 -2h109q173 0 315 -84.5t226.5 -226.5t84.5 -314
q0 -195 -106.5 -349.5t-279.5 -228.5zM1023 2592v0h-560v0v0q-7 -13 -12 -29q-21 -65 -27 -148q-1 -8 -2 -24.5t-1.5 -31.5t-1.5 -20v-910h632q142 46 245 150q83 83 130.5 192.5t47.5 235.5q0 140 -59 260.5t-160 205t-232 119.5zM464 52v0h759q152 53 264 165
q94 94 148 219t54 268q0 179 -83.5 328.5t-223.5 244t-317 112.5h-646l0.5 -168t0.5 -384.5v-382t1 -178.5q1 -23 3 -46q6 -83 27 -148q5 -17 13 -30z" />
    <glyph glyph-name="C" unicode="C" horiz-adv-x="2338" 
d="M2239 551v0q12 -12 33.5 -31.5t40.5 -37.5t25 -23q-52 -61 -111 -115q-246 -221 -563 -302t-638 -5q-277 70 -499.5 243.5t-356.5 425.5q-145 281 -150 592t132 596q122 250 331 428t475 259q313 92 629 31t573 -262q-74 -58 -147 -116q-42 -32 -83 -64
q-98 109 -216.5 195t-255.5 138q-125 48 -258 58q-62 4 -123 -1q-34 -3 -66 -9l-14 -2q-12 -2 -23.5 -4t-53 -16.5t-113.5 -46.5v0v0v0v0v0q-154 -82 -258.5 -218.5t-157.5 -301.5q-74 -233 -61.5 -477.5t97.5 -476.5t227 -425q120 -163 285 -290t360 -186t403 -14v0v0v0
q90 26 172 66.5t153 102.5q135 123 212 289z" />
    <glyph glyph-name="D" unicode="D" horiz-adv-x="2120" 
d="M1781 2282v0q165 -165 252 -375.5t87 -442.5v-307q0 -231 -87 -441.5t-252 -375.5q-290 -286 -690 -332q-23 -2 -185.5 -3.5t-368 -3t-364 -2.5l-158.5 -1q31 0 50 34t29.5 85.5t14.5 107.5q1 21 1 350.5v734.5v734.5t-1 350.5q-4 56 -14.5 107t-29.5 85t-50 34h948
q110 0 216 -20q346 -66 602 -319zM883 2581v0h-418q-1 0 -2.5 -3.5t-3.5 -9t-4.5 -10.5t-3.5 -8q-21 -65 -27 -147q-2 -24 -3 -47v-326.5t-0.5 -711t-0.5 -717.5v-314q0 -4 1 -18t2 -28.5t1 -23.5q6 -82 27 -147q2 -6 5 -13.5t5.5 -12.5t3.5 -5l498 2q30 0 60.5 2t53 4
t25.5 2q73 15 123 42.5t63 38.5l1.5 1.5l1 1t1 0.5h0.5q143 112 247.5 264.5t162.5 335.5t58 386v329q0 231 -74.5 436.5t-207.5 367.5t-311 267q-55 30 -108.5 43t-89.5 16v0v0v0v0.5v0v-0.5q-41 3 -86 3z" />
    <glyph glyph-name="E" unicode="E" horiz-adv-x="1829" 
d="M1829 2621v0v-134q0 31 -35.5 50.5t-88.5 30t-109 13.5h-1132v0q0 -1 -1 -2q-7 -13 -12 -29q-21 -65 -27 -147q-1 -9 -2 -25t-1.5 -31t-0.5 -21v-938h911v-40h-911v-1055q0 -5 0.5 -20t1.5 -31.5t2 -24.5q6 -83 27 -148q6 -16 13 -30v0v-1h1138q55 4 106 14.5t85 29.5
t34 50v-134h-1812q31 0 50 34t29.5 85.5t14.5 107.5l2 34v2101q-1 17 -2 35q-4 55 -14.5 106.5t-29.5 85.5t-50 34h1814z" />
    <glyph glyph-name="F" unicode="F" horiz-adv-x="1830" 
d="M15 2621v0h1815v-1v-133q0 31 -35 50.5t-88.5 29.5t-109.5 14h-1132q-1 0 -1 -1v-1q-7 -13 -13 -29q-21 -65 -27 -147q0 -9 -1 -25t-2 -31t-1 -21v-938h911v-40h-911v-1055q0 -5 1 -20t2 -31.5t1 -24.5q6 -83 27 -148q6 -16 13 -30q14 -27 35 -37q4 -2 9 -3t10 -1h-503
q31 0 50 34t29.5 85.5t14.5 107.5q2 17 2 34v2101q0 17 -2 35q-4 55 -14.5 106.5t-29.5 85.5t-50 34z" />
    <glyph glyph-name="G" unicode="G" horiz-adv-x="2485" 
d="M1995 1037v0h127h162.5h139h61.5q-34 0 -52 -33t-26 -73.5t-11 -69.5q0 -4 -1 -8q-7 -59 -7 -119q0 -243 3 -485q1 -122 2 -243l-50 27.5t-114.5 63.5t-114.5 63.5t-56 31.5q-64 -40 -132 -73q-282 -132 -588 -127.5t-584 144.5q-466 248 -644 745q-95 282 -62.5 572.5
t185.5 545.5q139 225 351.5 378t469.5 215q298 69 592 2.5t534 -254.5q-74 -58 -147 -115q-42 -33 -83 -65q-91 101 -199 182q-175 132 -387 187q-98 24 -198 24q-52 0 -103 -7q-8 -1 -19 -2q-18 -2 -37.5 -5t-33.5 -11q-75 -23 -147 -56h1v0v0h-1v0q-155 -82 -259 -219.5
t-157 -303.5q-73 -233 -60.5 -477.5t97.5 -476t229 -425.5q119 -161 284 -288t359.5 -185t401.5 -14l10 3.5t24.5 8t29 9.5t23.5 9q43 15 84 34q77 37 141 95q19 22 35 97t16 241v0v218v13q1 39 -4 79q0 1 -1 3q-3 24 -11 57.5t-25 60t-48 26.5z" />
    <glyph glyph-name="H" unicode="H" horiz-adv-x="2177" 
d="M2158 6v0q9 -4 19 -4h-502q29 0 45 25.5t23 50.5q23 78 26 159q1 15 1.5 162t0.5 346.5v374.5v232h-1351v-167.5v-334v-338v-190.5q0 -37 2 -73q4 -79 23 -155q4 -18 12.5 -39t23 -37t37.5 -16h-503q24 0 38.5 17.5t22.5 37.5q29 72 34 154.5t2 163.5v66v307v650v645.5
v309.5q-1 43 -7 86q0 4 -1 8q-2 29 -10 70t-26 74.5t-53 33.5h503q-23 0 -38 -17t-23.5 -39.5t-13.5 -41.5q-18 -78 -21 -159q-1 -14 -1 -143.5t-0.5 -304t-0.5 -327v-201.5h1351v156v311.5v314v175.5q0 54 -9 108v6q-3 27 -11.5 64.5t-26 67.5t-49.5 30h502
q-21 0 -35.5 -15t-23 -35.5t-13.5 -38.5q-21 -76 -24.5 -156.5t-1.5 -161.5v-65q0 -68 0.5 -364t0.5 -645t0.5 -608t0.5 -278q3 -76 20 -150q5 -28 18 -58t39 -44z" />
    <glyph glyph-name="I" unicode="I" horiz-adv-x="517" 
d="M498 6v0q9 -4 19 -4h-502q23 0 37.5 17.5t22.5 37.5q29 72 34 154.5t3 163.5q-1 34 -1 66v307v650v645.5v309.5q-1 43 -6 86q-1 4 -1 8q-3 29 -11 70.5t-26 74.5t-52 33h502q-22 0 -36 -15t-22.5 -35.5t-13.5 -38.5q-21 -76 -24.5 -156.5t-1.5 -161.5v-65q0 -68 0.5 -364
t0.5 -645t0.5 -608t0.5 -278q3 -76 19 -150q6 -28 19 -58t39 -44z" />
    <glyph glyph-name="J" unicode="J" horiz-adv-x="1142" 
d="M640 2625v0h502q-34 0 -51.5 -32t-25.5 -71.5t-11 -67.5q-1 -3 -1 -6q-8 -61 -9 -123v-223t0.5 -462.5t1 -465t0.5 -231.5q1 -109 -3 -218q-1 -9 -1 -18q0 -79 -18 -154v0q-33 -166 -129 -305q-78 -111 -193 -177t-252 -61q-143 11 -254.5 94t-180.5 205v0v0v0h177
q55 -122 160 -203q46 -34 101 -49q67 -14 132 8q37 31 56 76q37 79 54.5 166.5t23.5 174.5q13 187 13 375q1 91 1.5 443.5t-0.5 703t-6 439.5l2 1q-6 47 -16.5 88t-28.5 67t-44 26z" />
    <glyph glyph-name="K" unicode="K" horiz-adv-x="1950" 
d="M1745 215v0q34 -52 70 -99t71 -77.5t64 -30.5h-442l-936 1638l-152 -138v-189v-379v-383.5v-217.5v-9v-39q2 -86 19 -170q4 -20 12.5 -47t24 -48t42.5 -21h-503q24 0 38.5 18t22.5 38q29 72 34 154t2 164q-1 34 -1 66q0 62 1 307v650v645.5t-1 309.5q0 43 -6 86q0 4 -1 8
q-2 29 -10 70t-26 74t-53 33h503q-28 0 -45 -22t-26.5 -55t-14 -66t-6.5 -55q0 -5 -1 -10q-1 -25 -2.5 -181.5t-2 -353.5t-0.5 -323l906 825l-42 -38l20.5 21t50.5 52.5t60 67.5t50 68t21.5 52.5t-27.5 20.5h293q-49 0 -97 -29t-88 -61q-6 -4 -11 -8q-58 -43 -112 -92
q-72 -65 -223.5 -203.5t-285.5 -260.5q-89 -81 -130 -118z" />
    <glyph glyph-name="L" unicode="L" horiz-adv-x="1826" 
d="M1602 46v0q55 4 106 14t84.5 29.5t33.5 49.5v-133h-300.5h-619.5h-605h-286q23 0 37.5 17.5t22.5 37.5q30 72 35 154t2 164q-1 34 -1 66v486.5v781v524.5v40v80q-1 43 -6 86q-1 4 -1 8q-3 29 -10.5 70t-26 74t-52.5 33h502q-21 0 -35.5 -15t-23 -35t-13.5 -38
q-20 -75 -24 -155t-2 -160q1 -32 1 -63v-345.5v-614.5v-589v-293q0 -67 6.5 -140.5t37.5 -133.5h1138z" />
    <glyph glyph-name="M" unicode="M" horiz-adv-x="2716" 
d="M2707 8v0q5 -1 9 -1h-97h-36v0h-235v0h-134q22 0 36.5 16.5t22.5 35.5q30 70 35 148.5t3 157.5q-1 29 -1 58v187q1 265 1.5 671.5t-0.5 743t-4 390.5l-2 -2v-1q-27 -43 -184 -295.5t-358.5 -576.5t-360.5 -580t-189 -305q-11 17 -164.5 263.5t-355.5 572.5t-360.5 580.5
t-180.5 288.5v-4v-181v-503.5v-619.5v-530v-236q2 -57 10 -115q0 -2 1 -5q3 -27 11 -64.5t25.5 -67.5t49.5 -30h-234q23 0 37 16.5t22 35.5q25 58 31.5 124t6.5 129v333v714t-0.5 700.5t-0.5 323.5q-4 79 -23 154q-4 19 -13 40t-23 37t-37 16h89h136h110l1021 -1642
q23 37 177 285t349.5 562.5t345.5 556l150 241.5h76.5h109h97h40.5q-21 0 -35 -15t-23 -35t-13 -38q-21 -76 -25 -156.5t-2 -161.5q1 -33 1 -65v-296v-626.5v-623v-299.5q0 -30 2 -60q3 -76 21 -150q6 -27 20.5 -57.5t44.5 -38.5z" />
    <glyph glyph-name="N" unicode="N" horiz-adv-x="2185" 
d="M1949 2627v0h55.5h78.5h70h32q-25 0 -40 -18.5t-23.5 -43.5t-13.5 -44q-17 -81 -20 -164q0 -26 -0.5 -287.5t-0.5 -632v-722.5v-559v-152h-47l-1887 2390v-4v-184v-508.5v-625.5v-535v-237q1 -65 10 -129q1 -2 1 -5q3 -27 11 -64.5t25.5 -67.5t50.5 -30h-31.5h-74h-80
h-49.5q21 0 34.5 14t22 33.5t13.5 36.5q22 80 25 164q1 36 1.5 348t0.5 717t-0.5 718t-2.5 349q-3 78 -23 154q-5 17 -13.5 37.5t-22.5 35.5t-36 15h41h100.5h116h90.5l1684 -2132v277.5v636.5v638.5t-1 310.5q-2 85 -21 168q-5 20 -13.5 43t-23.5 41t-39 18z" />
    <glyph glyph-name="O" unicode="O" horiz-adv-x="2647" 
d="M2617 1570v0q22 -108 25 -217q6 -286 -102.5 -541.5t-308.5 -448t-468 -290.5q-400 -135 -797 -23.5t-667 436.5q-258 328 -288 733t177 767q208 344 562.5 516t754.5 121q422 -66 723 -351t389 -702zM1884 168v0q64 36 118 82q179 159 257.5 377.5t75 457t-69.5 455.5
q-65 217 -189 416.5t-300.5 349t-399.5 218.5q-149 45 -300.5 33.5t-290.5 -81.5q-139 -74 -237 -196.5t-153 -267.5q-86 -234 -81 -483t86 -487t223 -438q118 -168 285.5 -301t366.5 -195.5t412 -16.5l6 1.5t14 4.5t16 5.5t13 3.5l48 18q51 20 100 44z" />
    <glyph glyph-name="P" unicode="P" horiz-adv-x="2026" 
d="M1179 2621v0q53 0 106 -7q206 -27 374.5 -143.5t267.5 -298.5q99 -189 99 -398.5t-99 -398.5q-99 -181 -266.5 -297.5t-371.5 -144.5q-150 -15 -302 -8q-56 1 -112 1h-456v-109v-208v-208v-36v-70q1 -81 16 -161q3 -22 11.5 -53.5t25 -56.5t45.5 -25h-134v0h-235v0h-133
q23 0 37.5 17.5t22.5 37.5q29 72 34.5 154t2.5 164q-1 34 -1 66v568v345.5v344.5v534v40v80q-1 43 -6 86q-1 4 -1 8q-3 29 -11 70t-26 74t-52 33h133v0h235v0h134h-8h122h548zM419 966v0h633q270 74 444 293q139 183 166.5 408t-64.5 436q-85 188 -245 313.5t-363 164.5
h-110h-214.5h-201.5q-30 -58 -37.5 -127.5t-7.5 -134.5v-203v-430.5v-453.5v-266z" />
    <glyph glyph-name="Q" unicode="Q" horiz-adv-x="2655" 
d="M2593 -106v0l59 -154q-105 -39 -211 -11t-194 92q-64 46 -118 103t-104 118q-45 53 -91 103q-96 -50 -200 -83q-401 -124 -792.5 -3.5t-653.5 448.5q-245 320 -275 722q-24 420 193 780q215 339 573 503.5t756 106.5q411 -71 703.5 -351.5t382.5 -687.5
q56 -281 -7.5 -553t-228.5 -497t-414 -366q43 -47 84 -95q65 -79 137 -151l-3 4q57 -56 125.5 -69t131.5 -2.5t105 27zM798 2480v0q-52 -22 -100.5 -60t-88.5 -79q-86 -87 -145 -194q-121 -223 -139 -476.5t43 -496.5q66 -267 214.5 -502.5t371.5 -399.5q94 74 207 112
q200 67 407 23q216 -49 371 -209q151 105 243 262t129 335q74 368 -34.5 733t-358.5 643q-106 117 -236.5 207.5t-281.5 139.5q-136 45 -279 43q-169 -7 -323 -81zM1890 168v0q4 3 9 5q3 1 5 3q-188 189 -454 207q-255 15 -462 -135q168 -113 348.5 -154.5t356.5 -2.5l3 1
t8 2.5t9.5 3t6.5 2.5q23 7 46 15q64 23 124 53z" />
    <glyph glyph-name="R" unicode="R" horiz-adv-x="2184" 
d="M1867 315v0q44 -63 102 -136t116.5 -127t98.5 -54h-474l-634 927h-81h-156h-207h-212v-64q0 -84 -0.5 -210.5t-0.5 -232t1 -125.5q1 -81 15 -160q3 -23 11.5 -54t25 -56.5t45.5 -25.5h-502q23 0 37.5 18t22.5 38q30 72 35 154t2 163q-1 35 -1 67v307v650v645.5v309.5
q-1 43 -6 86q-1 4 -1 8q-3 29 -10.5 70t-26 74t-52.5 33l187 1t437 0.5t459.5 -6t273.5 -17.5q367 -94 553 -424q91 -170 100.5 -360t-63.5 -367q-75 -176 -215 -302.5t-322 -182.5zM420 965v0h632v0v0v0q281 77 457 310q132 184 155 405.5t-69 428.5q-86 185 -245 309
t-359 161h-80h-94h-168h-185q-30 -57 -37.5 -127t-6.5 -134q-1 -28 0 -56v-29v-748v-520z" />
    <glyph glyph-name="S" unicode="S" horiz-adv-x="1856" 
d="M1837 808v0q19 -127 -14 -248t-108 -224q-103 -139 -248 -216.5t-310.5 -100t-330.5 6.5q-226 42 -427.5 150.5t-383.5 245.5v0v0q61 62 122 125q22 23 44 45q56 -165 184 -283q116 -103 261 -134t296 0q159 31 295.5 110t215.5 226q71 142 42 285.5t-132 259.5
q-114 122 -263 186.5t-307 108.5q-10 3 -20 7v-1q-8 2 -16 5q-60 19 -121 39h2q-153 49 -291.5 131.5t-227.5 219.5q-70 116 -74 246.5t53 253.5q65 133 182.5 221t259.5 124q156 37 315 17q149 -14 290 -62q127 -47 244 -124.5t203 -182.5l-138 -123q-72 169 -209 292
q-113 109 -265 142q-67 14 -139.5 16.5t-138.5 -13.5q-218 -61 -282 -279q-44 -148 -8 -298q43 -137 155 -229q100 -84 218.5 -133.5t243.5 -82.5v0q136 -39 268.5 -93.5t246.5 -138.5q121 -91 205 -219t108 -278z" />
    <glyph glyph-name="T" unicode="T" horiz-adv-x="2668" 
d="M66 2627v0h2550v-134q0 31 -35.5 50.5t-88.5 29.5t-110 14h-128.5t-293.5 -0.5t-290.5 -1t-132.5 -0.5q-7 -13 -12 -29q-21 -65 -27 -147q-2 -24 -3 -47q-1 -20 -0.5 -336.5t1 -731.5t1 -732t1.5 -339q6 -83 27 -148q5 -16 13 -30q14 -27 34 -37q5 -2 10 -3q4 -1 9 -1
h-502q31 0 50 34t29 85.5t15 107.5q0 21 0.5 338.5t0.5 733.5t0.5 739.5l0.5 323.5q-1 17 -2 35q-7 112 -41 186h-843q-56 -4 -109 -14t-88.5 -29.5t-35.5 -50.5v134z" />
    <glyph glyph-name="U" unicode="U" horiz-adv-x="2193" 
d="M1960 2617v0h233q-20 0 -34 -14t-23 -33.5t-13 -36.5q-21 -83 -25 -178.5t-2 -188.5v-68v-262v-395v-365.5v-186.5q0 -220 -119 -416q-143 -233 -382.5 -356.5t-510.5 -119.5v0q-61 1 -122 9q-259 36 -470 187t-316 393q-73 186 -65 386q1 42 0 84v43v319v454.5v341.5v45
q1 44 0 89q-1 56 -10 111v4q-4 26 -12 61.5t-25 64t-49 28.5h502q-28 0 -44.5 -24t-25 -54t-11.5 -52q-15 -82 -16 -165q-1 -26 0 -52v-26v-258v-375v-339.5v-161.5v-26q-1 -99 2.5 -196t19.5 -195q22 -142 77 -277.5t160 -237.5q134 -118 311.5 -137t346.5 22
q324 76 537 332q86 107 134 235t48 265v295v343.5v438.5v295v28v55q-2 58 -11 116q0 2 -1 3q-3 25 -11 59t-25.5 61.5t-47.5 27.5z" />
    <glyph glyph-name="V" unicode="V" horiz-adv-x="2704" 
d="M2704 2627v0q-35 0 -76.5 -41t-82.5 -101t-75 -120t-54.5 -100.5t-20.5 -41.5l-1019 -2219h-54l-1046 2279q-21 44 -52 102t-67 113t-73 92t-69 37h568q-34 0 -38 -41.5t10 -102t35 -121t37.5 -101t17.5 -42.5l852 -1856l878 1914q18 43 37.5 101.5t31.5 115.5t7 95
t-37 38h290z" />
    <glyph glyph-name="W" unicode="W" horiz-adv-x="4338" 
d="M4338 2627v0q-35 0 -76.5 -41t-82.5 -101t-75 -120t-54.5 -100.5t-21.5 -41.5l-1018 -2219v0h-54l-790 1720l-789 -1720v0h-54l-1046 2279q-21 44 -52 102t-67 113t-73 92t-70 37h569q-34 0 -38 -41.5t10 -102t35 -121t37.5 -101t17.5 -42.5l852 -1856v0v0l646 1409
l-234 511v0v0v1q-21 44 -52 102t-67 112.5t-73 91.5t-69 37h568q-34 0 -38 -41.5t10 -102t35 -121t38 -102l17 -41.5v0v0l852 -1856v0v0l878 1914q17 43 36.5 101.5t32 115.5t7.5 95t-38 38h291z" />
    <glyph glyph-name="X" unicode="X" horiz-adv-x="2148" 
d="M2148 4v0h-600q33 0 32.5 39t-20.5 96.5t-47 116.5t-50 102l-489 838l-506 -866q-24 -46 -50 -101.5t-43 -106.5t-16 -84.5t31 -33.5h-284q42 0 102.5 59.5t119 137t99.5 137.5l524 897l-575 984v0l-26 41.5t-68 102t-90.5 121t-95.5 102t-81 41.5h604q-28 0 -31 -29.5
t10 -76t35 -98.5t45 -98t39 -76l16 -30v0l396 -678l396 678v0l17 30t40.5 76t47 98t38 98.5t12 76t-31.5 29.5h292q-43 0 -105 -61.5t-121.5 -140.5t-99.5 -140.5l-40 -61.5v0l-422 -721l657 -1124q24 -39 66 -100t91.5 -123.5t98 -106.5t83.5 -44z" />
    <glyph glyph-name="Y" unicode="Y" horiz-adv-x="2593" 
d="M2299 2627v0h69h98.5h87.5h39q-23 0 -44 -13t-39 -26q-52 -42 -98 -91q-95 -102 -179 -213q-79 -105 -261.5 -360.5t-346.5 -485.5q-98 -139 -150 -211v-149v-298v-300v-168q0 -47 5 -93q4 -71 24 -139q4 -17 13 -35t22.5 -31.5t33.5 -13.5h-503q33 0 51 31t26 69.5
t11 65.5q0 3 1 6q8 53 8 107v250.5v342v246.5q-22 31 -179 253t-345 488.5t-304 431.5q-65 91 -77 108q-43 62 -94 117q-5 5 -10 12q-18 20 -41 43t-49 39.5t-53 16.5h133.5h241h216.5q-29 0 -28.5 -28.5t15.5 -68t32.5 -74t26.5 -49.5q1 -2 2 -3q29 -52 151 -229
t270 -388.5t260.5 -370l112.5 -158.5q39 54 191.5 267.5t308.5 431.5q92 128 152 212q55 77 105 159q6 9 24.5 41.5t41 75.5t38 84.5t16 69.5t-25.5 28z" />
    <glyph glyph-name="Z" unicode="Z" horiz-adv-x="2389" 
d="M2389 400v0v-406h-2374q36 41 336 386.5t684.5 788.5t674.5 777.5t307 354.5h-1339q-63 -2 -130 -10.5t-115.5 -29t-48.5 -58.5v406h1957q-50 -56 -418.5 -480t-824 -947.5t-763.5 -879.5h1759q62 2 130 10.5t116.5 29t48.5 58.5z" />
    <glyph glyph-name="bracketleft" unicode="[" horiz-adv-x="743" 
 />
    <glyph glyph-name="backslash" unicode="\" horiz-adv-x="1097" 
 />
    <glyph glyph-name="bracketright" unicode="]" horiz-adv-x="742" 
 />
    <glyph glyph-name="asciicircum" unicode="^" horiz-adv-x="720" 
 />
    <glyph glyph-name="underscore" unicode="_" horiz-adv-x="1449" 
 />
    <glyph glyph-name="grave" unicode="`" horiz-adv-x="648" 
 />
    <glyph glyph-name="a" unicode="a" horiz-adv-x="1462" 
d="M1462 156v0q-5 -9 -16 -29.5t-25 -45.5q-15 -28 -27.5 -51t-17.5 -32l-33 -1.5t-80.5 0.5t-92.5 10.5t-71 28.5q-46 41 -54.5 103.5t-4.5 125.5q1 24 1 45q-61 -124 -175 -201.5t-250 -98.5q-124 -20 -247.5 7t-221.5 108q-101 88 -135.5 214.5t18.5 251.5
q60 122 176 192t241 111q138 49 276 97q159 55 317 111v257q0 26 1 53q5 70 -5 137q-18 82 -77 112.5t-135 34.5q-123 11 -250.5 -23.5t-212.5 -129.5q-10 21 -20 41q-37 74 -73 148v0l-2 5q60 4 121 9q166 16 334 12t320 -70v0q138 -62 221 -181.5t88 -271.5
q2 -127 1.5 -355t-1.5 -403v-137v-11q-1 -43 4 -88.5t29 -72.5t79 -12zM1026 370v0l14 34v656q-41 -14 -82 -29l-180 -64q-38 -13 -77 -25q-80 -22 -154 -57q-86 -47 -138.5 -139t-63.5 -187q-17 -190 94 -345q55 -75 134 -123q47 -26 97 -22.5t97 25.5q91 41 155 113.5
t104 162.5z" />
    <glyph glyph-name="b" unicode="b" horiz-adv-x="1945" 
d="M1664 1512v0q216 -220 254 -527q27 -275 -98.5 -512.5t-367.5 -370.5q-258 -132 -538 -92.5t-492 237.5q3 -59 13 -115.5t29.5 -95t52.5 -38.5h-502q20 0 33.5 14t22.5 31q26 55 33 118.5t7 123.5v102v566.5v694v394.5v24q1 71 -4 145t-30 141q-3 10 -11 23.5t-19 22.5
t-24 3q159 87 317 176l80 44v-1099q110 107 251 171q256 112 524 63t469 -244zM1037 39v0q61 0 121 9q124 64 209 175t132 241q95 262 62.5 550t-207.5 510q-69 86 -169 148.5t-214 57.5q-325 -30 -551 -266v-1157q121 -128 281.5 -198t335.5 -70z" />
    <glyph glyph-name="c" unicode="c" horiz-adv-x="1611" 
d="M1611 588v0v0q-63 -202 -207 -356t-347 -220q-173 -52 -349 -23t-325 133q-161 116 -256 289t-114 370q-18 198 41.5 387t191.5 338q130 143 310 215q104 39 208.5 45.5t213.5 -7.5v-1q166 -33 304 -131.5t230 -240.5q-1 0 -6 -2v0v0q-60 -33 -120 -65q-94 178 -250 303
q-140 109 -317 105q-84 0 -165 -22t-149 -75q-43 -36 -73 -85.5t-50 -101.5q-62 -161 -59.5 -336t49.5 -340q43 -156 124 -298t202 -250q93 -83 210 -122.5t239 -1.5v0v0q12 5 25 10v0v0q36 18 69 40v0q179 141 213 443h157v0v0z" />
    <glyph glyph-name="d" unicode="d" horiz-adv-x="1906" 
d="M1906 -2v0h-134h-369q33 0 53 38.5t30 95t13 115.5q-179 -169 -414 -224t-470 17q-194 63 -340.5 202t-219.5 329q-71 189 -54 389.5t119 375.5q104 174 270.5 286t367.5 141q205 28 398.5 -34.5t343.5 -205.5v66q1 115 1 288.5t-4 276.5q0 10 -1 21q-1 53 -9 108.5
t-36 98.5q-6 9 -17 16.5t-23 2.5q159 87 318 176q39 22 79 44v-5v-205v-564.5v-694v-593v-262.5q1 -72 12 -142v-4q3 -26 11.5 -61t25.5 -63.5t49 -28.5zM1340 173v0q88 56 160 132v1161q-121 127 -282 197q-86 37 -178 55q-80 19 -160 8q-167 -37 -278.5 -158.5t-172 -282
t-72.5 -317.5q-15 -169 20.5 -350.5t130 -333.5t255.5 -236q311 -41 577 125z" />
    <glyph glyph-name="e" unicode="e" horiz-adv-x="1628" 
d="M1454 598v0h19h46.5h52.5h38q-48 -155 -145 -284t-236 -214q-246 -142 -513.5 -100t-464.5 246q-189 207 -233 480t64 530v0.5v0.5q108 258 343 409q117 72 253 101q75 14 149.5 13t149.5 -11v-1q244 -51 415 -226t236 -411h-203h-407.5h-425h-270.5q-1 -197 58 -385
l1 -4t3 -9.5t4 -11.5t3 -9.5l1 -3.5q47 -139 124.5 -265t189.5 -222q90 -78 206 -117t234 1v0v0q12 5 25 10v0v0q36 18 69 40v0q179 141 214 443zM324 1171v0h1109q-58 207 -199 369q-61 70 -139 121t-170 69q-183 32 -351 -45q-91 -48 -144.5 -132.5t-78 -185t-27.5 -196.5
z" />
    <glyph glyph-name="f" unicode="f" horiz-adv-x="1247" 
d="M1517 2599v0v0v0v0v0l-93 -189l-33 31t-100.5 66.5t-172 52t-246.5 -8.5q-10 -1 -40.5 -16t-58 -54.5t-29.5 -113.5v-568h420v-40h-420v-1446q2 -62 11 -129.5t29.5 -116t57.5 -48.5h-502q34 0 54 40.5t29.5 100.5t12.5 120v1479h-421v40h421v46v106v108t-1 56
q7 134 76.5 244.5t190.5 174.5q15 8 31 15l10 4v0l0.5 0.5t1 0.5h0.5q121 51 248.5 62.5t246.5 5.5q98 -4 196 -14v0v0v0h1q39 -1 82 -4z" />
    <glyph glyph-name="g" unicode="g" horiz-adv-x="1813" 
d="M2066 -477v0q88 -167 78 -349.5t-95 -347.5q-104 -192 -279 -293t-382.5 -126t-408.5 10q-182 35 -358 91q-171 55 -348 90q-184 35 -370 38l44 160q189 -61 378 -135q232 -94 470.5 -163t490.5 -63q170 6 336 71.5t287.5 188.5t155.5 303q24 137 -19.5 272.5
t-150.5 226.5q-118 90 -264 94t-281 -44q-149 -55 -304 -141q-132 -71 -267 -128t-273.5 -67t-278.5 59q-125 66 -181.5 182t-25.5 255q38 146 140 252.5t224 188.5q-238 165 -336 438q-82 245 -23.5 491.5t242.5 429.5q185 176 431.5 227t486.5 -36q140 13 286.5 57
t238.5 137l4 -4v0l122 -108l-61 -19.5t-152.5 -43.5t-189 -39.5t-174.5 -10.5v0v0v0v0q269 -132 405 -399q129 -270 75.5 -555.5t-271.5 -489.5q-222 -194 -507.5 -220.5t-539.5 122.5q-131 -85 -237 -198q-48 -59 -37.5 -132.5t61.5 -127.5q67 -68 153 -84.5t176.5 -1
t171.5 46.5q111 41 219 90q140 65 286 113q123 39 248 42t247 -42q233 -91 357 -308zM530 1638v0v0q-88 -62 -135.5 -159.5t-63.5 -201.5q-37 -238 27.5 -477.5t204.5 -433.5q57 -79 129.5 -146.5t159.5 -111.5q73 -38 155 -47q56 -5 109.5 10t103.5 38v0q84 55 132.5 142.5
t68.5 183.5q47 225 -4.5 456t-171.5 425q-101 169 -260 284q-56 41 -135 74t-150 20v0v0q-88 -19 -170 -56z" />
    <glyph glyph-name="h" unicode="h" horiz-adv-x="1736" 
d="M1218 -1v0q34 0 54 40.5t29.5 100t12.5 119.5v1167q0 94 -27 152.5t-69.5 89.5t-90 42.5t-91 11t-72.5 -5.5q-132 -24 -234 -67.5t-172 -88.5q-87 -56 -138 -103v-1164q2 -62 10.5 -129.5t29 -116t58.5 -48.5h-134v0h-235v0h-134q34 0 54 40.5t30 100t12 119.5v1788
q0 74 -3.5 128.5t-9.5 93t-13.5 64t-15.5 40t-16 21.5t-14.5 8.5t-10.5 0.5t-5 -1l88 48l309 171v-1111q47 39 116 83q96 64 251 119.5t362 60.5q91 1 165 -19q121 -33 196 -119q65 -77 88.5 -163.5t24.5 -154.5q1 -30 0 -52v-972q1 -62 10 -129.5t29.5 -116t57.5 -48.5
h-502z" />
    <glyph glyph-name="i" unicode="i" horiz-adv-x="517" 
d="M111 442v0v544v194q0 73 -3.5 127.5t-9.5 93t-13.5 64t-16 40t-16 21.5t-14 8.5t-11 1t-4.5 -1.5l88 49l309 171v-768v-544v-149q1 -62 10 -129.5t29.5 -116t57.5 -48.5h-502q34 0 54 40.5t29.5 100t12.5 119.5v183zM221 1958v0q-75 0 -128.5 53.5t-53.5 128.5
t53.5 128.5t128.5 53.5t128.5 -53.5t53.5 -128.5t-53.5 -128.5t-128.5 -53.5z" />
    <glyph glyph-name="j" unicode="j" horiz-adv-x="529" 
d="M431 1757v0l1 -243.5t1.5 -561.5t1.5 -570.5t1 -295.5q1 -100 -2 -200q-1 -12 -1 -24q1 -86 -19 -169v0q-33 -166 -129 -305q-79 -111 -194.5 -177.5t-254.5 -59.5q-142 11 -252.5 94t-178.5 205v0v0v0h178q54 -122 159 -204q46 -34 102 -49q66 -13 131 8
q26 20 42.5 49.5t27.5 59.5v0q22 56 35 113q31 139 37.5 283.5t5.5 287.5v51v175q0 166 0.5 384t0 402.5t-2.5 248.5q-1 88 -17 174q-6 45 -29 83q-6 10 -17 18t-24 3q160 88 319 177q39 22 78 43z" />
    <glyph glyph-name="k" unicode="k" horiz-adv-x="1730" 
d="M500 979v0q-48 -56 -80 -96v-590q2 -62 10.5 -129.5t29 -116t58.5 -48.5h-503q34 0 54 40.5t30 100t12 119.5v1788q0 74 -3.5 128.5t-9.5 93t-13.5 64t-15.5 40t-16 21.5t-14.5 8.5t-10.5 0.5t-5 -1l397 219v-1675q23 29 51 62q104 121 213 229q188 185 368 307
q227 154 430 197q78 17 152 17v0v0v0v-317l-77 13.5t-199 14t-262.5 -33t-272.5 -122.5q-60 -54 -111 -105h-1v-1l1019 -1208h-404z" />
    <glyph glyph-name="l" unicode="l" horiz-adv-x="517" 
d="M517 -1v0h-502q34 0 54 40.5t29.5 100t12.5 119.5v1788q0 74 -3.5 128.5t-9.5 93t-14 64t-16 40t-15.5 21.5t-14 8.5t-11 0.5t-5.5 -1l398 219v-2328q1 -62 10 -129.5t29.5 -116t57.5 -48.5z" />
    <glyph glyph-name="m" unicode="m" horiz-adv-x="2899" 
d="M2385 -1v0q17 0 29 10t21 24q30 53 38 119t8 124v168.5v348.5v366v235q0 46 -4.5 91t-21.5 89q-26 61 -77 97t-116 46q-73 10 -144.5 -3t-140.5 -36q-209 -68 -378 -210q18 -64 21.5 -130t2.5 -132v-39v-275v-371v-220q1 -73 11 -146q1 -2 1 -4q3 -25 11.5 -60.5
t25.5 -63.5t49 -28h-503q17 0 29.5 10t20.5 24q30 53 38 119t8 124v169.5v349v366.5v235q0 47 -4.5 94.5t-24.5 91.5q-28 60 -80 94t-116 42q-76 9 -150.5 -5.5t-145.5 -40.5q-208 -71 -373 -215q0 -24 0.5 -216.5t2 -432t3 -424t3.5 -209.5q0 -3 1 -7q3 -28 11 -67.5
t25.5 -70.5t51.5 -31h-503q22 0 36.5 15.5t23 36t13.5 38.5q22 84 24 170v177.5t-1 371.5t-4.5 387t-10.5 222q-2 13 -10.5 45t-24 56.5t-38.5 15.5q159 87 318 176q39 22 79 44v-244q103 84 222 143q110 54 248 89.5t277 32.5t250.5 -65t168.5 -201q167 137 372 205
q119 41 250 56t255 -12q223 -57 298 -275q18 -57 23 -115.5t5 -118.5v-142v-330.5v-332t1 -165.5q2 -92 22 -182q5 -19 13.5 -41.5t23.5 -39.5t38 -17h-502z" />
    <glyph glyph-name="n" unicode="n" horiz-adv-x="1735" 
d="M1218 -1v0q34 0 54 40.5t29.5 100t12.5 119.5v1167q0 94 -27 152.5t-69.5 89.5t-90.5 42.5t-91 11t-72 -5.5q-132 -24 -234 -67.5t-172 -88.5q-87 -56 -138 -103v-1164q1 -62 10 -129.5t29.5 -116t57.5 -48.5h-502q34 0 54 40.5t29.5 100t12.5 119.5v921q0 73 -3.5 127.5
t-9.5 93t-13.5 64t-16 40t-16 21.5t-14 8.5t-11 1t-4.5 -1.5l88 49l309 171v-244q47 39 115 83q97 64 252 119.5t362 60.5q91 1 165 -19q120 -33 196 -119q64 -77 88 -163.5t24 -154.5q1 -30 0 -52v-972q2 -62 11 -129.5t29.5 -116t57.5 -48.5h-502z" />
    <glyph glyph-name="o" unicode="o" horiz-adv-x="1771" 
d="M1720 1157v0q112 -344 -45 -671q-165 -322 -507 -442q-344 -112 -671 45q-322 164 -442 506q-112 345 45 671q164 323 506 443q345 112 671 -45q323 -165 443 -507zM1230 111v0v0q165 111 208.5 367.5t-56.5 566.5q-106 300 -291.5 477.5t-381.5 173.5q-45 -10 -90 -25
q-41 -14 -79 -32v0q-160 -114 -201 -368.5t58 -558.5q108 -308 299.5 -486t390.5 -164v0q35 8 69 20q38 13 74 29z" />
    <glyph glyph-name="p" unicode="p" horiz-adv-x="1945" 
d="M1664 1489v0q217 -220 254 -527q27 -275 -98 -512.5t-367 -370.5q-259 -133 -540 -92.5t-493 239.5v-84v-265.5v-289.5v-154q1 -96 21 -189q5 -20 13.5 -44t23.5 -43t40 -19h-503q21 0 34.5 14t21.5 32q26 54 33.5 117.5t7.5 123.5v102v567v694v394v24q1 71 -4.5 145.5
t-29.5 140.5q-4 10 -11.5 24t-18.5 22.5t-25 2.5l318 176q40 22 79 44v-262q111 107 251 171q256 113 524.5 63.5t468.5 -244.5zM1037 16v0q62 0 121 9q124 64 209 175t132 241q96 262 63 550t-207 510q-69 86 -169.5 148.5t-214.5 57.5q-325 -30 -551 -266v-1157
q121 -128 282 -198t335 -70z" />
    <glyph glyph-name="q" unicode="q" horiz-adv-x="1928" 
d="M1928 -862v0h-502q30 0 47 27t25.5 60.5t11.5 57.5v3q11 62 12 125v287v364v163q-174 -165 -403 -222t-460 8q-190 56 -337.5 185.5t-227.5 310.5q-79 181 -74 377.5t92 373.5q90 177 243.5 299t345.5 169q201 45 399 1t359 -171q140 76 279 154q46 26 92 51v-4v-205
v-565.5v-694v-593v-262.5q1 -71 12 -142q0 -2 1 -4q3 -26 11 -61t25.5 -63.5t48.5 -28.5zM1362 150v0q88 56 160 132v149v572v58v116v7q1 72 -3.5 144.5t-22.5 141.5q-127 122 -291 185q-74 29 -158.5 45.5t-162.5 -1.5q-164 -44 -272 -167t-165.5 -283.5t-68.5 -316.5
q-13 -168 23.5 -346.5t130.5 -328.5t253 -232q311 -41 577 125z" />
    <glyph glyph-name="r" unicode="r" horiz-adv-x="1135" 
d="M885 1685v0q123 57 250 56l-92 -268l-46.5 9t-117.5 10.5t-147.5 -21t-140.5 -82.5q-63 -84 -87 -127l-1 -1q-3 -7 -18 -34.5t-33 -61.5t-32 -60v-812q2 -62 10.5 -129.5t29 -116t58.5 -48.5h-503q34 0 54 40.5t30 100t12 119.5v921q0 73 -3.5 127.5t-9.5 93t-13.5 64
t-15.5 40t-16 21.5t-14.5 8.5t-10.5 1t-5 -1.5l88 49l309 171v-563q21 38 36 66q3 6 7 13t7 12t3 6q20 34 60.5 91t101.5 121q118 123 250 185z" />
    <glyph glyph-name="s" unicode="s" horiz-adv-x="1380" 
d="M1313 694v0q67 -120 58 -249t-92 -239q-89 -111 -217.5 -162t-268.5 -46v0v0q-215 13 -403 118v0q-52 28 -101 61h-1q-11 8 -23 15q-60 41 -120 83v0v0l-100 75l137 137q33 -132 126.5 -233.5t223.5 -140.5v0q68 -18 137 -2v0v0q137 26 239 119q90 88 104.5 200
t-53.5 218q-77 109 -192.5 162.5t-240.5 88.5v-1q-71 22 -140.5 47.5t-133.5 62.5q-22 8 -43 24t-39 32q-3 3 -7 6q-46 39 -80 90q-68 106 -53 231q21 138 118.5 229.5t230.5 120.5v0q117 22 236 18q132 1 256 -42q105 -40 196 -105q69 -49 124 -112l-93 -82
q-50 117 -146 200q-96 89 -226 98q-5 1 -10 1q-62 6 -123 -6q-101 -25 -157 -111q-56 -100 -48 -216q10 -119 98 -200q69 -64 152.5 -98.5t171.5 -60.5q50 -15 99 -32q124 -42 230 -113t174 -186z" />
    <glyph glyph-name="t" unicode="t" horiz-adv-x="1109" 
d="M702 1761v0v-1463q1 -102 24 -199q93 -53 201 -53q18 0 37 2v-41q-19 -1 -37 -1q-95 0 -181 39q-149 67 -244.5 219t-108.5 352q-1 22 -1 45v173.5t0.5 381.5t0.5 379v166h-378v40h378v251q0 74 -3.5 128.5t-9.5 93t-13.5 64t-16 40t-16 21.5t-14 8.5t-11 0.5t-5.5 -1
l89 48l309 172v-826h407v-40h-407z" />
    <glyph glyph-name="u" unicode="u" horiz-adv-x="1727" 
d="M1636 181v0q21 -43 91 -24q-4 -9 -16 -30t-26 -47q-14 -27 -26.5 -49.5l-17.5 -31.5l-21.5 -0.5t-53.5 -1t-63.5 0t-52.5 4.5q-92 13 -128 97q-19 63 -15 130v15q-164 -138 -369 -205q-124 -43 -261.5 -58.5t-265.5 17.5q-141 41 -217.5 150t-89.5 251q-9 136 -4 275
q2 62 2 122v458q0 9 -3 58.5t-12 106.5t-26 93.5t-46 24.5q140 77 279 155q59 33 118 65v-337v-349.5v-349v-349.5v-28q-1 -35 1 -70q8 -85 54.5 -147.5t130.5 -85.5q76 -18 153.5 -7t150.5 36q225 70 403 225v198.5v355.5v319q0 24 -2.5 88.5t-11 134.5t-26.5 114t-48 32
q149 82 298 165q50 27 99 55q0 -33 0.5 -195t0.5 -373.5v-407.5v-271v-117q0 -20 -1 -43q-2 -44 0.5 -89t21.5 -80z" />
    <glyph glyph-name="v" unicode="v" horiz-adv-x="1893" 
d="M1848 1764v0h45l-833 -1759h-166l-764 1614q-35 60 -73 102.5t-74 42.5h419l723 -1527z" />
    <glyph glyph-name="w" unicode="w" horiz-adv-x="2775" 
d="M2730 1762v0h45l-746 -1574l-87 -185h-167l-364 769l-276 -584l-88 -185h-166l-764 1614q-35 60 -73 102.5t-74 42.5h419l723 -1528l277 585l-377 798q-35 60 -73 102.5t-74 42.5h419l276 -582l275 582h45l-298 -629l425 -899z" />
    <glyph glyph-name="x" unicode="x" horiz-adv-x="1472" 
d="M1247 236v0q33 -56 72.5 -110.5t79 -91.5t73.5 -37h-446l-401 727l-401 -727h-46l424 769l-411 745q-34 57 -73.5 112.5t-79.5 93t-74 37.5h445l370 -669l369 669h46l-393 -710z" />
    <glyph glyph-name="y" unicode="y" horiz-adv-x="1874" 
d="M1873 1765v0l-810 -1711q-51 -116 -108.5 -231.5t-129.5 -223.5q-165 -247 -378 -359q-158 -82 -322 -83q-101 0 -193 32l68 185l46 -28t120.5 -54t161.5 -26t171 51q161 108 293 304q118 185 206 385h-2h-122l-648 1370v0v0l-116 244q-35 60 -73 102.5t-74 42.5h420
l723 -1527l723 1527h44z" />
    <glyph glyph-name="z" unicode="z" horiz-adv-x="1780" 
d="M1780 409v0v-133v-273h-1765l1282 1451h-934q-62 -1 -130 -10t-116.5 -29.5t-48.5 -57.5v406h1555l-1282 -1451h1031v0v0h112q63 1 130.5 10t116.5 29.5t49 57.5z" />
    <glyph glyph-name="braceleft" unicode="{" horiz-adv-x="1003" 
 />
    <glyph glyph-name="bar" unicode="|" horiz-adv-x="423" 
 />
    <glyph glyph-name="braceright" unicode="}" horiz-adv-x="988" 
 />
    <glyph glyph-name="asciitilde" unicode="~" horiz-adv-x="800" 
 />
    <glyph glyph-name="exclamdown" unicode="&#xa1;" horiz-adv-x="445" 
 />
    <glyph glyph-name="cent" unicode="&#xa2;" horiz-adv-x="1630" 
 />
    <glyph glyph-name="sterling" unicode="&#xa3;" horiz-adv-x="1915" 
 />
    <glyph glyph-name="currency" unicode="&#xa4;" horiz-adv-x="1430" 
 />
    <glyph glyph-name="yen" unicode="&#xa5;" horiz-adv-x="1898" 
 />
    <glyph glyph-name="brokenbar" unicode="&#xa6;" horiz-adv-x="327" 
 />
    <glyph glyph-name="section" unicode="&#xa7;" horiz-adv-x="1442" 
 />
    <glyph glyph-name="dieresis" unicode="&#xa8;" horiz-adv-x="689" 
 />
    <glyph glyph-name="copyright" unicode="&#xa9;" horiz-adv-x="2061" 
 />
    <glyph glyph-name="registered" unicode="&#xae;" horiz-adv-x="466" 
 />
    <glyph glyph-name="macron" unicode="&#xaf;" horiz-adv-x="787" 
 />
    <glyph glyph-name="degree" unicode="&#xb0;" horiz-adv-x="247" 
 />
    <glyph glyph-name="plusminus" unicode="&#xb1;" horiz-adv-x="1455" 
 />
    <glyph glyph-name="acute" unicode="&#xb4;" horiz-adv-x="648" 
 />
    <glyph glyph-name="cedilla" unicode="&#xb8;" horiz-adv-x="317" 
 />
    <glyph glyph-name="questiondown" unicode="&#xbf;" horiz-adv-x="1537" 
 />
    <glyph glyph-name="Agrave" unicode="&#xc0;" horiz-adv-x="2311" 
d="M2029 408v0q1 -1 18.5 -42t47.5 -101.5t67 -120.5t75.5 -102t73.5 -42h-586q35 0 42.5 41.5t-1 101.5t-24 120t-29 101l-13.5 41v0l-69 183h-1220l-68 -180q-1 -1 -13.5 -42t-27.5 -101.5t-23 -120.5t0 -102t43 -42h-307q34 0 73 42t76.5 102t68 120.5t49 102l18.5 41.5
v0l844 2215h43zM426 628v0h1189l-594 1559zM1409 2851v0l-78 51t-182 113.5t-191 104.5t-112 31l185 130l448 -388z" />
    <glyph glyph-name="Aacute" unicode="&#xc1;" horiz-adv-x="2310" 
d="M2029 408v0q1 -1 18.5 -42t47.5 -101.5t67 -120.5t75.5 -102t72.5 -42h-585q35 0 42.5 41.5t-1.5 101.5t-24 120t-28.5 101l-13.5 41v0l-70 183h-1219l-68 -180q-1 -1 -13.5 -42t-27.5 -101.5t-23 -120.5t0 -102t42 -42h-306q34 0 73 42t76.5 102t68 120.5t49 102
l18.5 41.5v0l844 2215h43zM426 628v0h1189l-594 1559zM1479 3145v0q-25 12 -111.5 -30t-191 -105t-182.5 -114l-78 -51l-70 43l448 387z" />
    <glyph glyph-name="Acircumflex" unicode="&#xc2;" horiz-adv-x="2310" 
d="M2029 408v0q0 -1 18 -42t48 -101.5t67 -120.5t75.5 -102t72.5 -42h-585q35 0 42 41.5t-1.5 101.5t-23.5 120t-28.5 101l-13.5 41v0l-70 183h-1219l-69 -180q0 -1 -12.5 -42t-27.5 -101.5t-23 -120.5t0 -102t42 -42h-306q34 0 73 42t76.5 102t68 120.5t49 102l18.5 41.5v0
l844 2215h43zM426 628v0h1189l-594 1559zM1162 3030v0q-23 -19 -41.5 -35.5t-34 -31t-27 -26.5t-20.5 -22t-15 -18t-10 -14.5t-6.5 -11.5t-4 -9t-1.5 -6.5t0.5 -4t0.5 -2v-0.5h-193l256 291l1 2l95 108v0l96 -108l257 -293h-193v0.5t0.5 2t0 4t-1.5 6.5t-3.5 9t-6.5 11.5
t-10 14.5t-15 18t-21 22t-27 26.5t-33.5 31t-42.5 35.5v0v0z" />
    <glyph glyph-name="Atilde" unicode="&#xc3;" horiz-adv-x="2310" 
d="M2029 408v0q0 -1 18 -42t48 -101.5t66.5 -120.5t75.5 -102t73 -42h-585q34 0 41.5 41.5t-1 101.5t-24 120t-28.5 101l-13 41v0l-70 183h-1219l-69 -180q0 -1 -12.5 -42t-27.5 -101.5t-23 -120.5t0 -102t42 -42h-306q34 0 73 42t76.5 102t68 120.5t49 102l18.5 41.5h-1
l845 2215h43zM426 628v0h1189l-595 1559zM883 2936v0l-36 67l-37 67q4 3 39.5 17.5t93 23.5t128.5 -3t146 -61q40 -27 76 -32t63.5 2t43 16l15.5 9l99 -117q-27 -24 -77.5 -44.5t-115.5 -21.5q-89 -4 -190 61q-46 30 -89 37.5t-78 2t-56.5 -13.5t-24.5 -10z" />
    <glyph glyph-name="Adieresis" unicode="&#xc4;" horiz-adv-x="2311" 
d="M2030 408v0q0 -1 18 -42t48 -101.5t66.5 -120.5t75.5 -102t73 -42h-585q34 0 41.5 41.5t-1 101.5t-24 120t-28.5 101l-13 41v0l-70 183h-1219l-69 -180q-1 -1 -13 -42t-27 -101.5t-23 -120.5t0 -102t42 -42h-307q35 0 74 42t76.5 102t68 120.5t48.5 102l18 41.5v0
l845 2215h43zM427 628v0h1189l-595 1559zM913 2864v0q-61 0 -103 43.5t-41 106.5q3 58 44.5 98t99.5 40q59 0 101.5 -42.5t42.5 -101.5t-42.5 -101.5t-101.5 -42.5zM1414 2864v0q-61 0 -103 43.5t-41 106.5q3 58 44.5 98t99.5 40q59 0 101.5 -42.5t42.5 -101.5t-42.5 -101.5
t-101.5 -42.5z" />
    <glyph glyph-name="Aring" unicode="&#xc5;" horiz-adv-x="2311" 
d="M2030 408v0q0 -1 18 -42t48 -101.5t66.5 -120.5t75.5 -102t73 -42h-585q34 0 41.5 41.5t-1 101.5t-24 120t-28.5 101l-13 41v0l-70 183h-1219l-69 -180q-1 -1 -13.5 -42t-27 -101.5t-22.5 -120.5t0 -102t42 -42h-307q35 0 74 42t76.5 102t68 120.5t48.5 102l18 41.5v0
l845 2215h42zM427 628v0h1189l-595 1559zM1163 2851v0q-59 0 -104 45q-42 45 -41 106q3 59 45 99.5t100 40.5q59 0 102.5 -43.5t43.5 -102.5t-43.5 -102t-102.5 -43zM1058 3000v0q-1 -44 30 -77q32 -32 75 -32t74.5 31t31.5 74t-31.5 74.5t-74.5 31.5q-42 0 -72.5 -29.5
t-32.5 -72.5z" />
    <glyph glyph-name="AE" unicode="&#xc6;" horiz-adv-x="2835" 
d="M1187 2623v0v0h1648v-134q0 32 -35 51t-88.5 29.5t-109.5 13.5h-1131q-1 0 -1 -1l-1 -1q-6 -13 -12 -29q-21 -65 -27 -147q0 -9 -1 -25t-2 -31t-1 -21v-332v-606h230h681v-40h-666h-245v-224v-498v-40v-293q0 -5 1 -20t2 -31.5t1 -24.5q6 -82 27 -148q6 -16 13 -30v0
l1 -1h296h473h368q55 4 106.5 14.5t85 29.5t33.5 50v-134h-1812q31 0 50 34t29.5 85.5t14.5 107.5l2 34v327h-706l-68 -180v0q-2 -4 -14.5 -45.5t-27 -101.5t-22 -119.5t0.5 -100.5t42 -41h-307q29 0 61 30t64 76t61 98q43 80 71 142l28 62l800 2098l44 117h1h42zM1117 628
v0v1307l-5 491v0l-685 -1798h690z" />
    <glyph glyph-name="Ccedilla" unicode="&#xc7;" horiz-adv-x="2338" 
d="M2027 277v0q135 123 212 290q12 -12 33.5 -32t40.5 -37.5t25 -23.5q-52 -60 -111 -114q-174 -158 -389.5 -245.5t-447.5 -97.5l-34 -91q52 -17 93 -64q32 -45 23 -102q-9 -48 -50 -78q-31 -21 -71 -28.5t-79 -6.5q-35 0 -60.5 3t-32.5 4l17 99q41 -7 91.5 -6t77.5 17
q4 3 6 6t2 6q2 10 0 16t-5 10q-14 18 -41 28t-44 12l-61 9l21 58l40 108q-130 5 -257 36q-277 69 -499.5 242.5t-356.5 425.5q-145 282 -150 592.5t131 596.5q123 250 332 427.5t475 259.5q313 92 629 30.5t573 -262.5q-73 -57 -147 -115q-41 -32 -83 -65
q-98 109 -216.5 195t-255.5 139q-125 48 -258 58q-62 4 -123 -2q-34 -3 -66 -9l-14 -2q-12 -1 -23.5 -3.5t-53 -16.5t-113.5 -47v0v0v0v0v0q-154 -81 -258.5 -218t-157.5 -302q-74 -232 -61.5 -477t97 -476.5t227.5 -425.5q120 -162 285 -289.5t360 -186t403 -14.5v1v0v0
q90 26 172 66t153 102z" />
    <glyph glyph-name="Egrave" unicode="&#xc8;" horiz-adv-x="1829" 
d="M108 2397v0q-4 55 -14 106.5t-29.5 85.5t-49.5 34h1814v-134q0 32 -35.5 51t-88.5 29.5t-110 13.5h-1131v0q-1 -1 -1 -2q-7 -13 -13 -29q-20 -65 -26 -147q-1 -9 -2 -25t-2 -31t-1 -21v-938h912v-40h-912v-1055q0 -5 1 -20t2 -31.5t2 -24.5q6 -82 26 -148q6 -16 13 -30h1
v-1h1138q55 4 106 14.5t84.5 29.5t33.5 50v-134h-1811q30 0 49.5 34t29.5 85.5t14 107.5q2 17 3 34v2101q-1 17 -3 35zM1168 2850v0l-78 51t-182.5 114t-191 105t-111.5 30l185 130l448 -387z" />
    <glyph glyph-name="Eacute" unicode="&#xc9;" horiz-adv-x="1829" 
d="M109 2397v0q-4 55 -14.5 106.5t-29.5 85.5t-50 34h1814v-134q0 32 -35 51t-88.5 29.5t-109.5 13.5h-1131h-1q0 -1 -1 -2q-7 -13 -12 -29q-21 -65 -27 -147q-1 -9 -2 -25t-1.5 -31t-0.5 -21v-938h911v-40h-911v-1055q0 -5 0.5 -20t1.5 -31.5t2 -24.5q6 -82 27 -148
q6 -16 13 -30v0v-1h1138q55 4 106 14.5t85 29.5t34 50v-134h-1812q31 0 50 34t29.5 85.5t14.5 107.5l2 34v2101q-1 17 -2 35zM1238 3150v0q-24 12 -111 -30t-191 -105t-182.5 -114l-78.5 -51l-69 43l448 387z" />
    <glyph glyph-name="Ecircumflex" unicode="&#xca;" horiz-adv-x="1830" 
d="M109 2397v0q-4 55 -14.5 106.5t-29.5 85.5t-50 34h1815v-134q0 32 -35.5 51t-88.5 29.5t-110 13.5h-1131h-1v-2q-7 -13 -13 -29q-20 -65 -26 -147q-1 -9 -2 -25t-2 -31t-1 -21v-938h912v-40h-912v-1055q0 -5 1 -20t2 -31.5t2 -24.5q6 -82 26 -148q6 -16 13 -30h1v-1h1137
q56 4 107 14.5t84.5 29.5t33.5 50v-134h-1812q31 0 50 34t29.5 85.5t14.5 107.5q2 17 3 34v2101q-1 17 -3 35zM922 3030v0q-23 -19 -41.5 -35.5t-34 -31t-27 -26.5t-20.5 -22t-15 -18t-10 -14.5t-6.5 -11.5t-3.5 -9t-1.5 -6.5t0 -4t0.5 -2v-0.5h-193l256 291l1 2l95 108h1
l95 -108l257 -293h-193v0.5t0.5 2t0 4t-1.5 6.5t-3.5 9t-6.5 11.5t-10 14.5t-15 18t-20.5 22t-27 26.5t-34 31t-41.5 35.5v0h-1z" />
    <glyph glyph-name="Edieresis" unicode="&#xcb;" horiz-adv-x="1829" 
d="M109 2397v0q-4 55 -14.5 106.5t-29.5 85.5t-50 34h1814v-134q0 32 -35.5 51t-88.5 29.5t-109 13.5h-1132v0q0 -1 -1 -2q-7 -13 -12 -29q-21 -65 -27 -147q-1 -9 -2 -25t-1.5 -31t-0.5 -21v-938h911v-40h-911v-1055q0 -5 0.5 -20t1.5 -31.5t2 -24.5q6 -82 27 -148
q6 -16 13 -30v0v-1h1138q55 4 106 14.5t84.5 29.5t33.5 50v-134h-1811q31 0 50 34t29.5 85.5t14.5 107.5l2 34v2101q-1 17 -2 35zM709 2849v0q-60 0 -102 44t-42 106q4 59 45.5 99t98.5 40q59 0 102 -43t43 -101q0 -59 -43 -102t-102 -43zM1210 2849v0q-60 0 -102 44
t-42 106q4 59 45.5 99t98.5 40q59 0 102 -43t43 -101q0 -59 -43 -102t-102 -43z" />
    <glyph glyph-name="Igrave" unicode="&#xcc;" horiz-adv-x="542" 
d="M522 2623v0q-22 0 -36 -15t-22.5 -35t-13.5 -38q-21 -76 -25 -157t-2 -161q1 -33 1 -66v-363.5t0.5 -645t0.5 -608t1 -277.5q3 -76 19 -150q6 -28 18.5 -58.5t39.5 -44.5q9 -4 19 -4h-503q24 0 38.5 18t22.5 38q29 72 34 154t2 163q-1 35 -1 67v307q0 285 0.5 650
t0.5 645.5t-1 309.5q0 43 -6 86q0 4 -1 8q-2 29 -10 70t-26 74t-53 33h503zM-46 3149v0l185 130l448 -387l-70 -43l-78 51t-182.5 113.5t-191 105t-111.5 30.5z" />
    <glyph glyph-name="Iacute" unicode="&#xcd;" horiz-adv-x="543" 
d="M519 2623v0q-22 0 -36 -15t-22.5 -35t-13.5 -38q-21 -76 -25 -157t-2 -161q1 -33 1 -66v-363.5t0.5 -645t0.5 -608t1 -277.5q3 -76 19 -150q6 -28 18.5 -58.5t39.5 -44.5q9 -4 19 -4h-503q24 0 38.5 18t22.5 38q29 72 34 154t2 163q-1 35 -1 67v307q0 285 0.5 650
t0.5 645.5t-1 309.5q0 43 -6 86q0 4 -1 8q-2 29 -10 70t-26 74t-53 33h503zM-49 2892v0l448 387l185 -130q-25 12 -111.5 -30.5t-191 -105t-182.5 -113.5l-78 -51z" />
    <glyph glyph-name="Icircumflex" unicode="&#xce;" horiz-adv-x="549" 
d="M523 2623v0q-22 0 -36 -15t-22.5 -35t-13.5 -38q-21 -76 -25 -157t-2 -161q1 -33 1 -66v-363.5t0.5 -645t0.5 -608t1 -277.5q3 -76 19 -150q6 -28 18.5 -58.5t39.5 -44.5q9 -4 19 -4h-503q24 0 38.5 18t22.5 38q29 72 34 154t2 163q-1 35 -1 67v307q0 285 0.5 650
t0.5 645.5t-1 309.5q0 43 -6 86q0 4 -1 8q-2 29 -10 70t-26 74t-53 33h503zM271 3249v0l96 -109l257 -292h-194l0.5 0.5t1 2t0 4t-1.5 6t-3.5 8.5t-6.5 12t-10 15t-15 18t-21 22t-27 26.5t-34 31t-42 35.5v0v0q-23 -19 -41.5 -35.5t-34 -31t-27 -26.5t-20.5 -22t-15 -18
t-10.5 -15t-6.5 -12t-3.5 -8.5t-1.5 -6t0.5 -4t0.5 -2v-0.5h-193l256 291l1 1l95 109v0z" />
    <glyph glyph-name="Idieresis" unicode="&#xcf;" horiz-adv-x="562" 
d="M527 2623v0q-21 0 -35 -15t-23 -35t-13 -38q-21 -76 -25 -157t-2 -161q1 -33 1 -66v-363.5v-645t0.5 -608t0.5 -277.5q4 -76 20 -150q5 -28 18 -58.5t40 -44.5q9 -4 18 -4h-502q23 0 37.5 18t22.5 38q30 72 35 154t2 163q-1 35 -1 67v307v650v645.5v309.5q-1 43 -6 86
q-1 4 -1 8q-3 29 -10.5 70t-26 74t-52.5 33h502zM170 2994v0q0 -59 -42.5 -102t-101.5 -43q-61 0 -103 44t-41 106q3 59 44.5 99t99.5 40q59 0 101.5 -43t42.5 -101zM527 3138v0q59 0 101.5 -43t42.5 -101q0 -59 -42.5 -102t-101.5 -43q-61 0 -103 44t-41 106q3 59 44.5 99
t99.5 40z" />
    <glyph glyph-name="Eth" unicode="&#xd0;" horiz-adv-x="2340" 
d="M1399 2604v0q346 -67 602 -319q165 -166 252 -376t87 -442v-307q0 -232 -87 -442t-252 -376q-290 -286 -690 -332q-23 -2 -185.5 -3.5t-368 -3t-364 -2l-158.5 -0.5q31 0 50 34t29.5 85.5t14.5 106.5q0 17 0.5 288t0.5 648h-315v308h315q0 374 -0.5 642t-0.5 284
q-4 56 -14.5 107.5t-29.5 85.5t-50 34h948q110 0 216 -20zM1980 1121v0v330q0 231 -74.5 436t-207.5 367.5t-311 266.5q-55 30 -108.5 43.5t-89.5 16.5q-41 3 -86 3h-419q0 -1 -1.5 -4.5t-4 -8.5t-4.5 -10t-3 -8q-21 -65 -27 -148q-2 -24 -3 -47v-271.5v-615.5h357v-308
h-358v-614.5v-258.5q0 -5 1 -18.5t2 -28.5t1 -24q6 -82 27 -147q2 -6 5 -13t5.5 -12.5t3.5 -5.5l498 2q30 0 60.5 2t53 4t25.5 3q73 15 123 42t63 39q1 0 1.5 0.5l1 1l1 1l0.5 0.5q143 111 247.5 263.5t162.5 336t58 385.5z" />
    <glyph glyph-name="Ntilde" unicode="&#xd1;" horiz-adv-x="2185" 
d="M1949 2624v0h55.5h78.5h70h32q-25 0 -40 -18.5t-23.5 -43t-13.5 -44.5q-17 -81 -20 -164q0 -26 -0.5 -287.5t-0.5 -632v-722.5v-559v-152h-47l-1887 2390v-4v-184v-508.5v-625v-534.5v-238q1 -65 10 -128q1 -3 1 -6q3 -27 11 -64.5t25.5 -67.5t50.5 -30h-31.5h-74h-80
h-49.5q20 0 34 14.5t22.5 33.5t13.5 36q22 81 25 165q1 35 1.5 347.5t0.5 717.5t-0.5 717.5t-2.5 348.5q-3 78 -23 154q-5 17 -13.5 37.5t-22.5 35.5t-36 15h41h100.5h116h90.5l1684 -2132v277.5v636.5v638.5t-1 310.5q-2 85 -21 168q-5 20 -13.5 43.5t-23.5 41t-39 17.5z
M821 2927v0l-36 67l-37 67q4 4 39.5 18t93 23t128.5 -3t145 -61q41 -27 77 -32t63 2t43 16l16 9l99 -117q-28 -24 -78 -44.5t-116 -21.5q-88 -4 -190 62q-45 29 -88 36.5t-78 2t-57 -13.5t-24 -10z" />
    <glyph glyph-name="Ograve" unicode="&#xd2;" horiz-adv-x="2649" 
d="M2618 1558v0q22 -107 25 -217q6 -286 -102.5 -541.5t-308.5 -448t-468 -289.5q-400 -135 -797 -23.5t-667 435.5q-258 328 -288 733t177 768q208 344 562.5 515.5t754.5 120.5q422 -65 723 -350t389 -703zM2003 239v0q179 158 257.5 377t75 457.5t-69.5 454.5
q-65 218 -189 417t-300.5 349t-399.5 219q-149 44 -300.5 33t-290.5 -82q-139 -73 -237 -195.5t-153 -268.5q-86 -233 -81 -482.5t86 -487t223 -437.5q118 -168 285.5 -301.5t366.5 -195.5t412 -17l6 2t14 4.5l16 5t13 4.5q24 8 48 18q51 19 100 43q64 37 118 83zM1573 2852
v0l-78.5 51t-182.5 113.5t-191 104.5t-112 31l185 130l448 -388z" />
    <glyph glyph-name="Oacute" unicode="&#xd3;" horiz-adv-x="2649" 
d="M2618 1558v0q22 -107 25 -217q6 -286 -102.5 -541.5t-308.5 -448t-468 -289.5q-400 -135 -797 -23.5t-667 435.5q-258 328 -288 733t177 768q208 344 562.5 515.5t754.5 120.5q422 -65 723 -350t389 -703zM2003 239v0q179 158 257.5 377t75 457.5t-69.5 454.5
q-65 218 -189 417t-300.5 349t-399.5 219q-149 44 -300.5 33t-290.5 -82q-139 -73 -237 -195.5t-153 -268.5q-86 -233 -81 -482.5t86 -487t223 -437.5q118 -168 285.5 -301.5t366.5 -195.5t412 -17l6 2t14 4.5l16 5t13 4.5q24 8 48 18q51 19 100 43q64 37 118 83zM1642 3152
v0q-24 11 -111 -31t-191 -104.5t-182.5 -113.5l-78.5 -51l-70 42l448 388z" />
    <glyph glyph-name="Ocircumflex" unicode="&#xd4;" horiz-adv-x="2649" 
d="M2618 1558v0q22 -107 25 -217q6 -286 -102.5 -541.5t-308.5 -448t-468 -289.5q-400 -135 -797 -23.5t-667 435.5q-258 328 -288 733t177 768q208 344 562.5 515.5t754.5 120.5q422 -65 723 -350t389 -703zM2003 239v0q179 158 257.5 377t75 457.5t-69.5 454.5
q-65 218 -189 417t-300.5 349t-399.5 219q-149 44 -300.5 33t-290.5 -82q-139 -73 -237 -195.5t-153 -268.5q-86 -233 -81 -482.5t86 -487t223 -437.5q118 -168 285.5 -301.5t366.5 -195.5t412 -17l6 2t14 4.5l16 5t13 4.5q24 8 48 18q51 19 100 43q64 37 118 83zM1326 3030
v0q-23 -19 -42 -35.5t-34 -31t-27 -26.5t-20.5 -22t-15 -18t-10.5 -14.5t-6.5 -11.5t-3.5 -9t-1.5 -6.5t0 -4t1 -2l0.5 -0.5h-194l256 291l1 2l96 108v0l95 -108l257 -293h-193l0.5 0.5t0.5 2v4t-1.5 6.5t-3.5 9t-6.5 11.5t-10.5 14.5t-15 18t-20.5 22t-26.5 26.5t-34 31
t-42 35.5v0v0z" />
    <glyph glyph-name="Otilde" unicode="&#xd5;" horiz-adv-x="2649" 
d="M2618 1558v0q22 -107 25 -217q6 -286 -102.5 -541.5t-308.5 -448t-468 -289.5q-400 -135 -797 -23.5t-667 435.5q-258 328 -288 733t177 768q208 344 562.5 515.5t754.5 120.5q422 -65 723 -350t389 -703zM2003 239v0q179 158 257.5 377t75 457.5t-69.5 454.5
q-65 218 -189 417t-300.5 349t-399.5 219q-149 44 -300.5 33t-290.5 -82q-139 -73 -237 -195.5t-153 -268.5q-86 -233 -81 -482.5t86 -487t223 -437.5q118 -168 285.5 -301.5t366.5 -195.5t412 -17l6 2t14 4.5l16 5t13 4.5q24 8 48 18q51 19 100 43q64 37 118 83zM1047 2926
v0l-36 67l-37 67q4 3 39 17t93 23.5t128.5 -2.5t145.5 -62q41 -26 76.5 -31t63 1.5t43.5 16l16 9.5l99 -117q-28 -24 -78 -45t-116 -22q-89 -3 -190 62q-45 30 -88 37.5t-78.5 2t-57 -14t-23.5 -9.5z" />
    <glyph glyph-name="Odieresis" unicode="&#xd6;" horiz-adv-x="2652" 
d="M2622 1558v0q22 -107 25 -217q6 -286 -102.5 -541.5t-308.5 -448t-468 -289.5q-400 -135 -797 -23.5t-667 435.5q-258 328 -288 733t177 768q208 344 562.5 515.5t754.5 120.5q422 -65 723 -350t389 -703zM2007 239v0q179 158 257.5 377t75 457.5t-69.5 454.5
q-65 218 -189 417t-300.5 349t-399.5 219q-149 44 -300.5 33t-290.5 -82q-139 -73 -237 -195.5t-153 -268.5q-86 -233 -81 -482.5t86 -487t223 -437.5q118 -168 285.5 -301.5t366.5 -195.5t412 -17l6 2t14 4.5l16 5t13 4.5q24 8 48 18q51 19 100 43q64 37 118 83zM1078 2848
v0q-60 0 -102 44t-42 106q4 59 45.5 99t98.5 40q59 0 102 -43t43 -101q0 -59 -43 -102t-102 -43zM1579 2848v0q-60 0 -102 44t-42 106q4 59 45.5 99t98.5 40q59 0 102 -43t43 -101q0 -59 -43 -102t-102 -43z" />
    <glyph glyph-name="multiply" unicode="&#xd7;" horiz-adv-x="1150" 
 />
    <glyph glyph-name="Oslash" unicode="&#xd8;" horiz-adv-x="2647" 
d="M2618 1555v0q22 -108 25 -217v-30v-13q-8 -421 -246 -755.5t-633 -481.5q-293 -101 -592.5 -64.5t-555.5 197.5l-171 -207h-401l332 401q-40 41 -76 86q-145 180 -218.5 394.5t-73.5 437.5q0 173 45 343t135 326q209 343 563.5 515t753.5 121q298 -44 541 -205l180 217
h400l-344 -416q257 -272 336 -649zM396 1997v0q-83 -223 -81.5 -461.5t73 -468t200.5 -426.5l1288 1557q-209 220 -499 311q-149 45 -300.5 33.5t-290.5 -81.5q-139 -74 -237 -196.5t-153 -267.5zM2003 236v0q179 158 257.5 376.5t75 457t-69.5 455.5q-67 222 -195 425
l-1284 -1553q119 -120 264 -205.5t306.5 -119t330.5 3.5l6 2t14 4.5l16 5t13 4.5q24 8 48 17q51 20 100 44q64 36 118 83z" />
    <glyph glyph-name="Ugrave" unicode="&#xd9;" horiz-adv-x="2193" 
d="M2045 2466v0q-1 1 -1 2q-3 25 -11.5 59.5t-25.5 61.5t-48 27h234q-21 0 -35 -14t-22.5 -33t-12.5 -37q-22 -83 -26 -178t-2 -189q1 -35 1 -68v-261.5v-395v-365.5v-186q0 -221 -119 -416q-144 -234 -383 -357t-511 -120v0q-61 2 -121 9q-259 36 -470.5 187t-316.5 393
q-72 187 -64 387v84v42v319v454.5v341.5v45v89q-1 56 -10 111q0 2 -1 5q-3 25 -11 61t-25.5 64.5t-48.5 28.5h502q-28 0 -44.5 -24t-25 -54.5t-12.5 -52.5q-15 -82 -16 -165v-52v-26v-257.5v-375.5v-339v-162v-26q0 -98 3 -195.5t19 -194.5q23 -142 78 -278t160 -238
q134 -118 311.5 -137t346.5 22q324 77 536 332q86 108 134.5 235.5t48.5 264.5v296v343v438.5v295.5v27v55q-2 59 -11 117zM1351 2848v0l-78.5 51t-182.5 113.5t-191 105t-111 30.5l184 130l448 -387z" />
    <glyph glyph-name="Uacute" unicode="&#xda;" horiz-adv-x="2194" 
d="M2045 2466v0q0 1 -1 2q-3 25 -11 59.5t-25.5 61.5t-47.5 27h234q-21 0 -35 -14t-23 -33t-13 -37q-21 -83 -25 -178t-2 -189v-68v-261.5v-395v-365.5v-186q0 -221 -119 -416q-143 -234 -382 -357t-511 -120v0q-61 2 -122 9q-259 36 -470 187t-316 393q-73 187 -65 387
q1 42 0 84v42v319v454.5v341.5v45q1 45 0 89q-1 56 -10 111v5q-3 25 -11.5 61t-25.5 64.5t-49 28.5h502q-28 0 -44.5 -24t-24.5 -54.5t-12 -52.5q-15 -82 -16 -165v-52v-26v-257.5v-375.5v-339v-162v-26q-1 -98 2.5 -195.5t19.5 -194.5q22 -142 77 -278t160 -238
q134 -118 311.5 -137t346.5 22q324 77 537 332q86 108 134 235.5t48 264.5v296v343v438.5v295.5v27q1 28 0 55q-1 59 -11 117zM1560 3148v0q-24 12 -111 -30.5t-191 -105t-182.5 -113.5l-78.5 -51l-70 43l448 387z" />
    <glyph glyph-name="Ucircumflex" unicode="&#xdb;" horiz-adv-x="2193" 
d="M2044 2466v0v2q-3 25 -11.5 59.5t-25.5 61.5t-48 27h234q-21 0 -35 -14t-22.5 -33t-12.5 -37q-22 -83 -26 -178t-2 -189q1 -35 1 -68v-261.5v-395v-365.5v-186q0 -221 -119 -416q-144 -234 -383 -357t-511 -120v0q-61 2 -121 9q-259 36 -470.5 187t-316.5 393
q-72 187 -64 387v84v42v319v454.5v341.5v45v89q-1 56 -10 111q0 2 -1 5q-3 25 -11 61t-25.5 64.5t-48.5 28.5h502q-28 0 -44.5 -24t-25 -54.5t-12.5 -52.5q-15 -82 -16 -165v-52v-26v-257.5v-375.5v-339v-162v-26q0 -98 3 -195.5t19 -194.5q22 -142 77.5 -278t160.5 -238
q134 -118 311.5 -137t346.5 22q324 77 536 332q86 108 134.5 235.5t48.5 264.5v296v343v438.5v295.5v27v55q-2 59 -12 117zM1187 3028v0q-23 -19 -42 -36t-34 -31t-26.5 -26t-20.5 -22t-15 -18.5t-10.5 -15t-7 -11.5t-3.5 -8.5t-1 -6v-4t0.5 -2l0.5 -0.5h-193l256 291l1 1
l95 109v0l96 -109l257 -292h-194l0.5 0.5t1 2t0 4t-1.5 6t-3.5 8.5t-6.5 11.5t-10.5 15t-15 18.5t-20.5 22t-27 26t-34 31t-42 36v0v0z" />
    <glyph glyph-name="Udieresis" unicode="&#xdc;" horiz-adv-x="2193" 
d="M2045 2466v0q0 1 -1 2q-3 25 -11 59.5t-25.5 61.5t-47.5 27h233q-20 0 -34 -14t-23 -33t-13 -37q-21 -83 -25 -178t-2 -189v-68v-261.5v-395v-365.5v-186q0 -221 -119 -416q-143 -234 -382.5 -357t-510.5 -120v0q-61 2 -122 9q-259 36 -470 187t-316 393q-73 187 -65 387
q1 42 0 84v42v319v454.5v341.5v45q1 45 0 89q-1 56 -10 111v5q-4 25 -12 61t-25 64.5t-49 28.5h502q-28 0 -44.5 -24t-25 -54.5t-11.5 -52.5q-15 -82 -16 -165q-1 -26 0 -52v-26v-257.5v-375.5v-339v-162v-26q-1 -98 2.5 -195.5t19.5 -194.5q22 -142 77 -278t160 -238
q134 -118 311.5 -137t346.5 22q324 77 537 332q86 108 134 235.5t48 264.5v296v343v438.5v295.5v27v55q-2 59 -11 117zM955 2848v0q-61 0 -103 44t-41 106q3 59 44.5 99t99.5 40q59 0 101.5 -43t42.5 -101q0 -59 -42.5 -102t-101.5 -43zM1456 2848v0q-61 0 -103 44t-41 106
q3 59 44.5 99t99.5 40q59 0 101.5 -43t42.5 -101q0 -59 -42.5 -102t-101.5 -43z" />
    <glyph glyph-name="Yacute" unicode="&#xdd;" horiz-adv-x="2593" 
d="M2205 2324v0q6 10 25 42t41 75.5t38 85t16 69.5t-26 28h69h98.5h87.5h39q-22 0 -43.5 -13t-38.5 -27q-53 -41 -99 -91q-95 -101 -178 -212q-80 -105 -262.5 -360.5t-345.5 -485.5q-99 -139 -151 -211v-149.5v-297.5v-300v-168q0 -47 5 -94q4 -70 24 -139
q5 -16 13.5 -34.5t22 -31.5t33.5 -13h-502q33 0 50.5 30.5t25.5 69t11 65.5q0 4 1 7q8 53 8 106v251v341.5v247.5q-15 21 -124.5 176t-258.5 366t-284 402.5t-202 286.5q-29 40 -35 50q-44 61 -94 117l-11 11q-18 21 -41 44t-48.5 39.5t-53.5 16.5h133.5h241h216.5
q-29 0 -28.5 -29t15.5 -68t33 -74t26 -49q1 -2 2 -3q30 -52 151.5 -229t269.5 -388.5t260.5 -370.5l112.5 -159q24 34 113.5 159t204.5 285.5t217 303.5q69 97 117 164q56 77 105 158zM1705 3148v0q-25 12 -111.5 -30.5t-191 -105t-182.5 -113.5l-78 -51l-70 43l448 387z
" />
    <glyph glyph-name="Thorn" unicode="&#xde;" horiz-adv-x="1977" 
d="M1216 2156v0q213 -19 388.5 -136t275.5 -307q97 -194 89 -408t-121 -400q-115 -183 -299.5 -285.5t-400.5 -105.5v0h-731v-251q2 -61 11.5 -122t29.5 -103.5t55 -42.5h-96h-37h-232h-40h-93q30 0 49 33.5t29.5 84t14.5 105.5v2180q-4 56 -14.5 106.5t-29.5 84t-49 33.5
h93h40h232h37h96q-35 0 -55 -42.5t-29.5 -104t-11.5 -122.5v-194h638h34q64 1 127 -3zM1024 554v0q170 42 302 154t209 275t77 353q0 191 -77 354t-209 275t-303 154h-102h-116h-115h-273v-1565h607z" />
    <glyph glyph-name="germandbls" unicode="&#xdf;" horiz-adv-x="1916" 
d="M1810 1189v0q106 -190 106 -399q0 -104 -26 -205q-86 -295 -336 -473q-119 -85 -263 -122.5t-288 -7.5q-26 6 -52 15q-161 55 -257 194q-63 92 -73 205h40q5 -63 31 -121q58 -124 175 -195q64 -39 136 -56q56 -14 115 -15v0q128 34 228.5 148t159 287t58.5 378
q0 236 -76.5 427.5t-202.5 298.5v0v0q-65 25 -131 45q-24 7 -58.5 16t-62 16t-30.5 8q-15 3 -30 7v0q-50 12 -77 55q-15 31 -4.5 59t40.5 44q1 1 3 2t3.5 1.5l1.5 0.5q30 14 63 21l38 8q6 1 11 2q62 47 100 145t38 221q0 119 -35.5 214.5t-93.5 145.5v0q-29 6 -58 10
q-56 9 -112 10q-255 6 -474 -118v-2196q3 -61 12.5 -122t29.5 -103.5t55 -42.5h-97v-1h-308v1h-94q30 0 49 33t29.5 84t15.5 106v1985q24 44 55 85q105 136 253 217q275 146 586 103q129 -19 248 -73q86 -40 164 -107.5t115.5 -156.5t2.5 -191q-26 -67 -76.5 -117.5
t-113.5 -82.5q-62 -32 -129 -51t-135 -33q-32 -7 -63 -15q-2 0 -5 -1l-8 -2q-21 -5 -43 -14t-31 -24t9 -38q12 -13 29.5 -20t35.5 -10q3 -1 17 -4.5t31.5 -7.5t29.5 -7q147 -37 286 -98q135 -59 250.5 -150t192.5 -218z" />
    <glyph glyph-name="agrave" unicode="&#xe0;" 
d="M1352 330v0v-11q-1 -42 4 -88t29 -73t79 -12q-5 -8 -16 -29t-25 -46q-15 -28 -27.5 -51t-17.5 -32l-33 -1.5t-80.5 0.5t-92.5 11t-71 29q-46 41 -54.5 103.5t-4.5 125.5q1 23 1 45q-61 -125 -175 -202.5t-250 -98.5q-124 -20 -247.5 7.5t-221.5 108.5
q-101 87 -135.5 213.5t18.5 251.5q60 122 176 192.5t241 110.5q138 49 276 97q159 56 317 112v256q0 26 1 53q5 71 -5 138q-18 82 -77 112t-135 34q-123 12 -250.5 -23t-212.5 -130q-10 21 -21 42q-36 74 -72 147v0l-2 5q60 4 121 9q166 16 334 12t320 -70
q138 -62 221 -181.5t88 -270.5q2 -127 1.5 -355t-1.5 -404v-137zM1042 394v0v656q-41 -14 -83 -29q-89 -32 -179 -64q-38 -13 -77 -25q-80 -22 -154 -57q-86 -46 -138.5 -138t-63.5 -187q-17 -190 94 -345q55 -76 134 -124q47 -26 97 -22.5t97 25.5q91 42 155 114t104 163
q7 16 14 33zM979 1997v0l-78.5 51t-182.5 113.5t-191 105t-111 30.5l184 130l448 -388z" />
    <glyph glyph-name="aacute" unicode="&#xe1;" horiz-adv-x="1467" 
d="M1355 342v0v-11q-1 -42 4 -88t29 -73t79 -12q-5 -8 -16 -29t-25 -47q-15 -27 -27.5 -50t-17.5 -32l-33 -1.5t-80.5 0.5t-92.5 11t-71 29q-46 41 -54.5 103.5t-4.5 125.5q1 23 1 45q-61 -125 -175 -202.5t-250 -98.5q-124 -20 -247.5 7.5t-221.5 108.5
q-101 87 -135.5 213.5t18.5 251.5q60 122 176 192t241 111q138 49 276 97q159 56 317 112v256q0 26 1 53q5 71 -5 138q-18 82 -77 112t-135 34q-123 12 -250.5 -23t-212.5 -130l-20 42q-37 74 -73 147v0l-2 5q60 4 121 9q166 16 334 12t320 -70q138 -62 221 -181.5
t88 -270.5q2 -127 1.5 -355t-1.5 -404v-137zM1045 406v0v656q-42 -15 -83 -29q-90 -32 -179 -64q-38 -13 -77 -25q-80 -22 -154 -57q-86 -46 -138.5 -138t-63.5 -187q-17 -190 94 -346q55 -75 134 -123q47 -26 97 -22.5t97 25.5q91 42 155 114t104 163q7 16 14 33z
M1177 2297v0q-24 12 -111 -30.5t-191 -105t-182.5 -113.5l-78.5 -51l-70 42l449 388z" />
    <glyph glyph-name="acircumflex" unicode="&#xe2;" 
d="M1352 339v0v-11q-1 -42 4 -87.5t29 -72.5t79 -13q-5 -8 -16 -29t-25 -46q-15 -28 -27.5 -51t-17.5 -31l-33 -1.5t-80.5 0t-92.5 10.5t-71 29q-46 41 -54.5 103.5t-4.5 125.5q1 24 1 45q-61 -124 -175 -201.5t-250 -99.5q-124 -19 -247.5 8t-221.5 108
q-101 88 -135.5 214.5t18.5 250.5q60 123 176 193t241 111q138 49 276 97q159 55 317 111v257q0 26 1 53q5 70 -5 137q-18 82 -77 112.5t-135 34.5q-123 11 -250.5 -23.5t-212.5 -130.5l-20 42q-37 74 -73 148v0l-2 5q60 3 121 8q166 17 334 13t320 -71q138 -62 221 -181
t88 -271q2 -127 1.5 -355t-1.5 -403v-138zM1042 404v0v656l-78 -28q-92 -33 -184 -65q-38 -13 -77 -25q-80 -22 -154 -57q-86 -47 -138.5 -139t-63.5 -187q-17 -190 94 -345q55 -75 134 -123q47 -26 97 -23t97 26q91 41 155 113.5t104 162.5zM832 2173v0q-23 -19 -42 -35.5
t-34 -31t-26.5 -26.5t-20.5 -22t-15 -18t-10.5 -14.5t-7 -11.5t-3.5 -9t-1 -6.5v-3.5t0.5 -2l0.5 -1h-193l256 291l1 2l95 108v0l96 -108l257 -293h-194l0.5 1l1 2t0 3.5t-1.5 6.5t-3.5 9t-6.5 11.5t-10.5 14.5t-15 18t-20.5 22t-27 26.5t-34 31t-42 35.5v0v0z" />
    <glyph glyph-name="atilde" unicode="&#xe3;" 
d="M1352 339v0v-11q-1 -42 4 -87.5t29 -72.5t79 -13q-5 -8 -16 -29t-25 -46q-15 -28 -27.5 -51t-17.5 -31l-33 -1.5t-80.5 0t-92.5 10.5t-71 29q-46 41 -54.5 103.5t-4.5 125.5q1 24 1 45q-61 -124 -175 -201.5t-250 -99.5q-124 -19 -247.5 8t-221.5 108
q-101 88 -135.5 214.5t18.5 250.5q60 123 176 193t241 111q138 49 276 97q159 55 317 111v257q0 26 1 53q5 70 -5 137q-18 82 -77 112.5t-135 34.5q-123 11 -250.5 -23.5t-212.5 -130.5q-10 22 -21 43q-36 73 -72 147v0l-2 5q60 3 121 8q166 17 334 13t320 -71
q138 -62 221 -181t88 -271q2 -127 1.5 -355t-1.5 -403v-138zM1042 404v0v656q-40 -14 -79 -28q-91 -33 -183 -65q-38 -13 -77 -25q-80 -22 -154 -57q-86 -47 -138.5 -139t-63.5 -187q-17 -190 94 -345q55 -75 134 -123q47 -26 97 -23t97 26q91 41 155 113.5t104 162.5z
M522 2074v0l-37 68l-36 67q3 3 38.5 17t93 23.5t128.5 -2.5t146 -62q41 -26 76.5 -31t63 1.5t43 15.5l15.5 9l99 -116q-27 -24 -77.5 -45t-115.5 -22q-89 -3 -190 62q-45 30 -88 37t-78.5 2t-57 -13.5t-23.5 -10.5z" />
    <glyph glyph-name="adieresis" unicode="&#xe4;" 
d="M1352 339v0v-11q-1 -42 4 -87.5t29 -72.5t79 -13q-5 -8 -16 -29t-25 -46q-15 -28 -27.5 -51t-17.5 -31l-33 -1.5t-80.5 0t-92.5 10.5t-71 29q-46 41 -54.5 103.5t-4.5 125.5q1 24 1 45q-61 -124 -175 -201.5t-250 -99.5q-124 -19 -247.5 8t-221.5 108
q-101 88 -135.5 214.5t18.5 250.5q60 123 176 193t241 111q138 49 276 97q159 55 317 111v257q0 26 1 53q5 70 -5 137q-18 82 -77 112.5t-135 34.5q-123 11 -250.5 -23.5t-212.5 -130.5q-10 22 -21 43q-36 73 -72 147v0l-2 5q60 3 121 8q166 17 334 13t320 -71
q138 -62 221 -181t88 -271q2 -127 1.5 -355t-1.5 -403v-138zM1042 404v0v656l-78 -28q-92 -33 -184 -65q-38 -13 -77 -25q-80 -22 -154 -57q-86 -47 -138.5 -139t-63.5 -187q-17 -190 94 -345q55 -75 134 -123q47 -26 97 -23t97 26q91 41 155 113.5t104 162.5zM568 1997v0
q-61 0 -103 44t-41 106q4 59 45.5 99t98.5 40q61 -2 102.5 -44t41.5 -101t-42.5 -101.5t-101.5 -42.5zM1069 1997v0q-61 0 -103 44t-41 106q4 59 45.5 99t98.5 40q61 -2 102.5 -44t41.5 -101t-42.5 -101.5t-101.5 -42.5z" />
    <glyph glyph-name="aring" unicode="&#xe5;" 
d="M1352 339v0v-11q-1 -42 4 -87.5t29 -72.5t79 -13q-5 -8 -16.5 -29t-25.5 -47q-14 -27 -26.5 -50t-17.5 -31l-33 -1.5t-80.5 0t-92.5 10.5t-71 29q-46 41 -54.5 103.5t-4.5 125.5q1 24 1 45q-61 -124 -175 -201.5t-250 -99.5q-124 -19 -247.5 8t-221.5 108
q-101 88 -135.5 214.5t18.5 250.5q60 123 176 193t241 111q138 49 276 97q159 55 317 111v257q0 26 1 53q5 70 -5 137q-18 82 -77 112.5t-135 34.5q-123 11 -250.5 -23.5t-212.5 -130.5q-10 21 -20 41q-36 74 -73 149v0l-2 5q60 3 121 8q166 17 334 13t320 -71
q138 -62 221 -181t88 -271q2 -127 1.5 -355t-1.5 -403v-138zM1042 404v0v656l-78 -28q-92 -33 -184 -65q-38 -13 -77 -25q-80 -22 -154 -57q-86 -47 -138.5 -139t-63.5 -187q-17 -190 94 -345q55 -75 134 -123q47 -26 97 -23t97 26q91 41 155 113.5t104 162.5zM810 2013v0
q-52 0 -88.5 38t-36.5 92q3 51 39.5 86t85.5 35q52 0 89 -37t37 -89q0 -51 -37 -88t-89 -37z" />
    <glyph glyph-name="ae" unicode="&#xe6;" horiz-adv-x="2665" 
d="M2665 1136v0h-1306q-2 -196 57 -384l2 -6l4.5 -13.5l4.5 -13.5l2 -6q46 -138 124 -264t189 -222q91 -78 206.5 -117t233.5 1q13 4 25 10v0v0q36 17 69 40v0q180 140 214 443h19.5h47h52h37.5q-47 -155 -144.5 -284t-235.5 -214q-196 -115 -411 -109.5t-402 119.5
q-4 3 -8 5q-7 4 -14 9q-33 22 -65 48q-41 34 -79 73q-85 92 -141 202q-2 3 -4 7q-1 1 -1 3v0q-2 4 -5 9l-80 -140l-18 -32q-63 -120 -175 -195t-245 -96q-124 -19 -247.5 8t-221.5 108q-101 88 -135.5 214.5t18.5 250.5q60 123 176 193t241 111q138 49 276 97
q159 55 317 111v257q0 26 1 53q5 70 -5 137q-18 82 -77 112.5t-135 34.5q-123 11 -250.5 -23.5t-212.5 -130.5l-34 70q-29 60 -59 120v0l-2 5q60 3 121 8q66 6 133 10t134 4q101 0 198.5 -15t189.5 -57q132 -59 215 -173q3 -5 7 -11q84 99 195 168q118 73 253 101
q75 15 149.5 13.5t150.5 -11.5v0q243 -51 414.5 -226t236.5 -412zM1611 1690v0q-91 -48 -144.5 -132t-78 -184.5t-28.5 -197.5h1110q-58 207 -199 369q-62 71 -139.5 121.5t-169.5 69.5q-184 32 -351 -46zM1042 404v0v656l-102 -36q-80 -29 -160 -57q-38 -13 -77 -25
q-80 -22 -154 -57q-86 -47 -138.5 -139t-63.5 -187q-17 -190 94 -345q55 -75 134 -123q47 -26 97 -23t97 26q91 41 155 113.5t104 162.5z" />
    <glyph glyph-name="ccedilla" unicode="&#xe7;" horiz-adv-x="1611" 
d="M1612 595v0v0v0v0q-63 -202 -207 -356t-347 -220q-88 -27 -180 -32l-26 -71q52 -16 93 -64q32 -45 23 -102q-8 -48 -49 -77q-32 -21 -72.5 -28.5t-78.5 -7.5q-34 0 -60 3t-33 5l18 98q40 -7 90.5 -6t77.5 18q4 3 6 6t2 6q2 10 0 16t-5 10q-14 17 -40.5 27t-44.5 12l-61 9
l21 58l33 89q-211 18 -388 141q-161 116 -256 288.5t-114 370.5q-18 197 41.5 386.5t191.5 337.5q130 144 310 215q104 39 208.5 46t213.5 -8v0q166 -33 304 -131.5t230 -240.5q-1 0 -6 -3v0q-14 -8 -29 -15q-46 -25 -91 -49q-94 177 -250 303q-140 108 -317 105
q-84 -1 -165 -23t-149 -74q-43 -36 -73 -85.5t-50 -101.5q-62 -162 -59.5 -337t49.5 -340q43 -155 124 -297.5t202 -250.5q93 -82 210 -122t239 -1v0v0q12 4 25 10v0v0q36 17 69 40v0q179 140 213 443h157z" />
    <glyph glyph-name="egrave" unicode="&#xe8;" horiz-adv-x="1621" 
d="M1620 1126v0h-203h-407.5h-425h-270.5q-1 -197 58 -385l1 -4t3 -9.5t4 -11.5t3 -9.5t1 -4.5q47 -138 124.5 -264t189.5 -222q90 -78 206 -117t234 1v0v0q12 5 25 10v0v0q36 18 69 40v0q179 141 214 443h19h46.5h52.5h38q-48 -155 -145 -284t-236 -214
q-246 -142 -513.5 -100t-464.5 246q-189 207 -233 480t64 530v0.5v0.5q108 258 343 409q117 72 253 101q75 14 149.5 13t149.5 -11v-1q244 -51 415 -226t236 -411zM566 1680v0q-91 -48 -144.5 -132.5t-78 -185t-27.5 -196.5h1109q-58 207 -199 369q-61 70 -139 121t-170 69
q-183 32 -351 -45zM1117 2003v0l-78 51t-182.5 113.5t-191 105t-111.5 30.5l185 130l448 -387z" />
    <glyph glyph-name="eacute" unicode="&#xe9;" horiz-adv-x="1627" 
d="M1627 1126v0h-203h-407.5h-425h-270.5q-1 -197 58 -385l1 -4t3 -9.5t4 -11.5t3 -9.5t1 -4.5q47 -138 124.5 -264t189.5 -222q90 -78 206 -117t234 1v0v0q12 5 25 10v0v0q36 18 69 40v0q179 141 214 443h19h46.5h52.5h38q-48 -155 -145 -284t-236 -214
q-246 -142 -513.5 -100t-464.5 246q-189 207 -233 480t64 530v0.5v0.5q108 258 343 409q117 72 253 101q75 14 149.5 13t149.5 -11v-1q244 -51 415 -226t236 -411zM573 1680v0q-91 -48 -144.5 -132.5t-78 -185t-27.5 -196.5h1109q-58 207 -199 369q-61 70 -139 121t-170 69
q-183 32 -351 -45zM1132 2303v0q-24 12 -111 -30.5t-191 -105t-182.5 -113.5l-78.5 -51l-70 43l449 387z" />
    <glyph glyph-name="ecircumflex" unicode="&#xea;" horiz-adv-x="1627" 
d="M1627 1126v0h-203h-407.5h-425h-270.5q-1 -197 58 -385l1 -4t3 -9.5t4 -11.5t3 -9.5t1 -4.5q47 -138 124.5 -264t189.5 -222q90 -78 206 -117t234 1v0v0q12 5 25 10v0v0q36 18 69 40v0q179 141 214 443h19h46.5h52.5h38q-48 -155 -145 -284t-236 -214
q-246 -142 -513.5 -100t-464.5 246q-189 207 -233 480t64 530v0.5v0.5q108 258 343 409q117 72 253 101q75 14 149.5 13t149.5 -11v-1q244 -51 415 -226t236 -411zM573 1680v0q-91 -48 -144.5 -132.5t-78 -185t-27.5 -196.5h1109q-58 207 -199 369q-61 70 -139 121t-170 69
q-183 32 -351 -45zM877 2195v0q-23 -19 -41.5 -36t-34 -31t-27 -26t-20.5 -22t-15 -18.5t-10.5 -15t-6.5 -11.5t-3.5 -8.5t-1.5 -6t0.5 -4t0.5 -2v-0.5h-193l256 291l1 1l95 109v0l96 -109l257 -292h-194l0.5 0.5t1 2t0 4t-1.5 6t-3.5 8.5t-6.5 11.5t-10 15t-15 18.5t-21 22
t-27 26t-34 31t-42 36v0v0z" />
    <glyph glyph-name="edieresis" unicode="&#xeb;" horiz-adv-x="1624" 
d="M1623 1126v0h-203h-407.5h-425h-270.5q-1 -197 58 -385l1 -4t3 -9.5t4 -11.5t3 -9.5t1 -4.5q47 -138 124.5 -264t189.5 -222q90 -78 206 -117t234 1v0v0q12 5 25 10v0v0q36 18 69 40v0q179 141 214 443h19h46.5h52.5h38q-48 -155 -145 -284t-236 -214
q-246 -142 -513.5 -100t-464.5 246q-189 207 -233 480t64 530v0.5v0.5q108 258 343 409q117 72 253 101q75 14 149.5 13t149.5 -11v-1q244 -51 415 -226t236 -411zM569 1680v0q-91 -48 -144.5 -132.5t-78 -185t-27.5 -196.5h1109q-58 207 -199 369q-61 70 -139 121t-170 69
q-183 32 -351 -45zM561 2000v0q-60 0 -102 44t-42 106q4 59 45.5 99t98.5 40q59 0 102 -42.5t43 -101.5t-43 -102t-102 -43zM1062 2000v0q-60 0 -102 44t-42 106q4 59 45.5 99t98.5 40q59 0 102 -42.5t43 -101.5t-43 -102t-102 -43z" />
    <glyph glyph-name="igrave" unicode="&#xec;" horiz-adv-x="531" 
d="M425 295v0q1 -63 10 -130.5t29.5 -116t57.5 -48.5h-502q34 0 54 41t29.5 100.5t12.5 119.5v183v544v193q0 74 -3.5 128.5t-9.5 93t-13.5 64t-16 40t-16 21.5t-14 8.5t-11 0.5l-4.5 -1l88 48l309 171v-767v-544v-149zM-52 2301v0l185 131l448 -388l-70 -42l-78 50.5
t-182.5 113.5t-191 105t-111.5 30z" />
    <glyph glyph-name="iacute" unicode="&#xed;" horiz-adv-x="536" 
d="M424 289v0q2 -63 10.5 -130.5t29 -116t58.5 -48.5h-503q34 0 54 41t30 100.5t12 119.5v183v544v193q0 74 -3.5 128.5t-9.5 93t-13.5 64t-15.5 40t-16 21.5t-14.5 8.5t-10.5 0.5t-5 -1l88 48l309 171v-767v-544v-149zM-46 2034v0l448 388l185 -131q-25 12 -111.5 -30
t-191 -105t-182.5 -113.5l-78 -50.5z" />
    <glyph glyph-name="icircumflex" unicode="&#xee;" horiz-adv-x="536" 
d="M429 289v0q2 -63 10.5 -130.5t29 -116t58.5 -48.5h-503q34 0 54 41t30 100.5t12 119.5v183v544v193q0 74 -3.5 128.5t-9.5 93t-13.5 64t-15.5 40t-16 21.5t-14.5 8.5t-10.5 0.5t-5 -1l88 48l309 171v-767v-544v-149zM275 2391v0l96 -108l257 -293h-194l0.5 1t1 2.5t0 3.5
l-1.5 6t-3.5 9t-6.5 11.5t-10 14.5t-15 18t-21 22t-27 26.5t-34 31t-42 35.5v0v0q-23 -19 -41.5 -35.5t-34 -31t-27 -26.5t-20.5 -22t-15 -18t-10.5 -14.5t-6.5 -11.5t-3.5 -9t-1.5 -6t0.5 -3.5t0.5 -2.5v-1h-193l256 291l1 2l95 108v0z" />
    <glyph glyph-name="idieresis" unicode="&#xef;" horiz-adv-x="808" 
d="M566 289v0q1 -63 10 -130.5t29.5 -116t57.5 -48.5h-502q34 0 54 41t29.5 100.5t12.5 119.5v183v544v193q0 74 -3.5 128.5t-9.5 93t-13.5 64t-16 40t-16 21.5t-14 8.5t-11 0.5l-4.5 -1l88 48l309 171v-767v-544v-149zM306 2136v0q0 -59 -42.5 -101.5t-101.5 -42.5
q-61 0 -103 43.5t-41 106.5q3 58 44.5 98t99.5 40q59 0 101.5 -42.5t42.5 -101.5zM663 2280v0q59 0 101.5 -42.5t42.5 -101.5t-42.5 -101.5t-101.5 -42.5q-61 0 -103 43.5t-41 106.5q3 58 44.5 98t99.5 40z" />
    <glyph glyph-name="eth" unicode="&#xf0;" horiz-adv-x="1832" 
d="M1725 1286v0q11 -21 20 -43q87 -200 68 -400q-18 -265 -174 -480q-168 -225 -433 -317q-275 -92 -554 -9q-265 84 -440 300q-176 225 -193 510v0v0q-1 4 -1 9q-3 65 4 130q30 281 213 496q184 211 455 284q92 23 186 27q133 6 263 -27q-151 229 -417 488l-325 -325h-258
l449 449q-143 125 -318 255l97 -59t252 -165l312 312h258l-420 -420q176 -127 360.5 -288.5t342.5 -346t253 -380.5zM1457 847v0q1 36 -1 72q-3 84 -17 163q-22 130 -95 311q-79 165 -195 261.5t-252 99.5v0q-21 0 -42 -2v0v0v0q-145 -18 -257 -139t-172.5 -313.5
t-52.5 -425.5v-1q12 -239 92 -428.5t206.5 -299t276.5 -107.5h7q141 10 252.5 117t178 284t71.5 396v0v0.5v2v3.5v6z" />
    <glyph glyph-name="ntilde" unicode="&#xf1;" horiz-adv-x="1720" 
d="M1623 289v0q1 -62 10 -130t29.5 -116t57.5 -48h-502q34 0 54 40.5t29.5 100t12.5 119.5v1167q0 94 -27 152t-69.5 89.5t-90 43t-91 11t-72.5 -5.5q-132 -24 -234 -67.5t-172 -88.5q-87 -57 -138 -103v-1164q1 -62 10 -130t29.5 -116t57.5 -48h-502q34 0 54 40.5t29.5 100
t12.5 119.5v920q0 74 -3.5 128.5t-9.5 93t-13.5 64t-16 40t-16 21.5t-14 8.5t-10.5 0.5t-5 -1l88 48l309 172v-245q47 40 116 84q96 64 251 119.5t362 60.5q91 1 165 -19q121 -33 196 -119q65 -77 88.5 -163.5t24.5 -154.5q1 -30 0 -52v-972zM589 2070v0l-36 67l-37 67
q4 3 39 17.5t93 23.5t128.5 -3t145.5 -62q41 -26 76.5 -31t63 1.5t43.5 16l16 9.5l99 -117q-28 -24 -78 -44.5t-116 -22.5q-89 -3 -190 62q-45 30 -88 37.5t-78.5 2t-57 -14t-23.5 -9.5z" />
    <glyph glyph-name="ograve" unicode="&#xf2;" horiz-adv-x="1774" 
d="M1279 1669v0q323 -164 443 -506q112 -345 -45 -671q-165 -323 -507 -443q-344 -112 -671 45q-322 165 -442 507q-112 344 45 671q164 322 506 442q345 112 671 -45zM1232 116v0q165 111 208.5 368t-56.5 566q-106 301 -291.5 478t-381.5 173q-45 -10 -90 -25
q-41 -14 -79 -31v0q-160 -115 -201 -369t58 -559q108 -308 299.5 -486t390.5 -164v0q35 9 69 20q38 13 74 29v0zM1074 1996v0l-78 51t-182.5 113.5t-191 105t-111.5 30.5l185 130l448 -388z" />
    <glyph glyph-name="oacute" unicode="&#xf3;" horiz-adv-x="1767" 
d="M1278 1671v0q323 -164 443 -506q112 -345 -45 -671q-165 -323 -507 -443q-344 -112 -671 45q-322 165 -442 507q-112 344 45 670q164 323 506 443q345 112 671 -45zM1231 118v0q165 111 208.5 368t-56.5 566q-106 301 -291.5 478t-381.5 173q-45 -10 -90 -25
q-41 -14 -79 -31v0q-160 -115 -201 -369t58 -559q108 -308 299.5 -486t390.5 -164v0q35 9 69 20q38 13 74 29v0zM1205 2296v0q-25 12 -112 -30.5t-191 -105t-182.5 -113.5l-78.5 -51l-69 42l448 388z" />
    <glyph glyph-name="ocircumflex" unicode="&#xf4;" horiz-adv-x="1773" 
d="M1278 1673v0q323 -165 443 -506q112 -345 -45 -671q-165 -323 -507 -443q-344 -112 -671 45q-322 165 -442 506q-112 345 45 671q164 323 506 443q345 112 671 -45zM1231 120v0q165 111 208.5 368t-56.5 566q-106 300 -291.5 477.5t-381.5 173.5q-45 -10 -90 -25
q-41 -14 -79 -31v0q-160 -115 -201 -369t58 -559q108 -308 299.5 -486t390.5 -164v0q35 9 69 20q38 13 74 29v0zM888 2173v0q-23 -19 -42 -35.5t-34 -31t-26.5 -26.5t-20.5 -22t-15 -18t-10.5 -14.5t-6.5 -11.5t-3.5 -9t-1.5 -6.5v-3.5t0.5 -2l0.5 -1h-193l256 291l1 2
l95 108v0l96 -108l257 -293h-194l0.5 1l1 2t0 3.5t-1.5 6.5t-3.5 9t-6.5 11.5t-10.5 14.5t-15 18t-20.5 22t-27 26.5t-34 31t-42 35.5v0v0z" />
    <glyph glyph-name="otilde" unicode="&#xf5;" horiz-adv-x="1756" 
d="M1272 1675v0q323 -165 443 -506q112 -345 -45 -671q-165 -323 -507 -443q-344 -112 -671 45q-322 165 -442 506q-112 345 45 671q164 323 506 443q345 112 671 -45zM1225 122v0q165 111 208.5 367.5t-56.5 566.5q-106 300 -291.5 477.5t-381.5 173.5q-45 -10 -90 -25
q-41 -14 -79 -31v0q-160 -115 -201 -369t58 -559q108 -308 299.5 -486t390.5 -164v0q35 9 69 20q38 13 74 29v0zM603 2070v0l-36 67l-37 67q4 3 39.5 17.5t93 23.5t128.5 -3t146 -62q40 -26 76 -31t63.5 1.5t43 16l15.5 9.5l99 -117q-27 -24 -77.5 -44.5t-115.5 -22.5
q-89 -3 -191 62q-45 30 -88 37.5t-78 2t-56.5 -14t-24.5 -9.5z" />
    <glyph glyph-name="odieresis" unicode="&#xf6;" horiz-adv-x="1761" 
d="M1272 1677v0q323 -165 443 -507q112 -344 -45 -670q-165 -323 -507 -443q-344 -112 -671 45q-322 164 -442 506q-112 345 45 671q164 323 506 443q345 112 671 -45zM1225 124v0q165 111 208.5 367.5t-56.5 566.5q-106 300 -291.5 477.5t-381.5 173.5q-45 -10 -90 -25
q-41 -14 -79 -31v0q-160 -115 -201 -369t58 -559q108 -308 299.5 -486t390.5 -164v0q35 8 69 20q38 13 74 29v0zM632 1992v0q-61 0 -103 44t-41 106q3 59 44.5 99t99.5 40q59 0 101.5 -42.5t42.5 -101.5t-42.5 -102t-101.5 -43zM1133 1992v0q-61 0 -103 44t-41 106
q3 59 44.5 99t99.5 40q59 0 101.5 -42.5t42.5 -101.5t-42.5 -102t-101.5 -43z" />
    <glyph glyph-name="divide" unicode="&#xf7;" horiz-adv-x="1435" 
 />
    <glyph glyph-name="oslash" unicode="&#xf8;" horiz-adv-x="1762" 
d="M1721 1174v0q112 -344 -45 -671q-165 -322 -507 -442q-299 -98 -591 10q-35 13 -69 30l-36 -48l-46 -60h-387v1l159 208l59 78q-137 141 -202 332q-112 345 45 671q164 323 506 443q345 111 671 -45q17 -9 33 -18l66 87h387l-95 -125l-118 -155q49 -55 87 -118
q51 -83 83 -178zM541 1656v0q-160 -114 -201 -368.5t58 -558.5q31 -91 71 -172l614 808l77 101q-102 121 -218.5 186t-231.5 61q-45 -10 -90 -25q-41 -14 -79 -32v0zM1231 128v0q163 109 207.5 362t-51.5 559v0l-4 12q-22 65 -49 124l-92 -122l-590 -775q29 -30 58 -57
q186 -166 378 -152v0q35 8 69 20q38 13 74 29v0z" />
    <glyph glyph-name="ugrave" unicode="&#xf9;" horiz-adv-x="1727" 
d="M1635 180v0q22 -44 92 -25q-5 -8 -16.5 -29.5t-25.5 -47.5l-27.5 -49.5t-16.5 -30.5l-22 -1t-53.5 -1.5t-63.5 0.5t-52 4q-92 14 -129 97q-19 64 -15 131v14q-164 -138 -369 -205q-124 -42 -261.5 -57.5t-265.5 16.5q-141 41 -217.5 150t-88.5 251q-10 137 -4 276
q2 61 2 121v458q0 9 -3 59t-12 106.5t-26.5 93.5t-45.5 25q139 76 279 154q59 33 118 65v-337v-1048q0 -14 -1 -28q-1 -35 2 -69q7 -86 54 -148.5t130 -84.5q76 -19 153.5 -7.5t150.5 35.5q225 70 403 225v199v356v319q0 23 -2.5 88t-11 134.5t-26 114t-47.5 31.5
q149 82 297 165q50 27 100 55v-195v-373.5t1 -407.5v-270.5v-117.5q0 -20 -1 -43q-3 -44 0 -89t21 -79zM1047 1998v0l-78 51t-182.5 113.5t-191 105t-111.5 30.5l185 130l448 -388z" />
    <glyph glyph-name="uacute" unicode="&#xfa;" horiz-adv-x="1727" 
d="M1636 180v0q21 -44 91 -25q-4 -8 -16 -29.5t-26 -47.5q-14 -27 -26.5 -49.5t-16.5 -30.5l-22 -1t-54 -1.5t-63.5 0.5t-52.5 4q-92 14 -128 97q-19 64 -15 131v14q-164 -138 -369 -205q-124 -42 -261.5 -57.5t-265.5 16.5q-141 41 -217.5 150t-89.5 251q-9 137 -4 276
q2 61 2 121v458q0 9 -3 59t-12 106.5t-26 93.5t-46 25q140 76 279 154q59 33 118 65v-337v-1048v-28q-1 -35 1 -69q8 -86 55 -148.5t130 -84.5q76 -19 153.5 -7.5t150.5 35.5q225 70 403 225v199v356v319q0 23 -2.5 88t-11 134.5t-26.5 114t-48 31.5q149 82 298 165
q50 27 99 55q0 -33 0.5 -195t0.5 -373.5v-407.5q0 -162 0.5 -270.5t0.5 -117.5q0 -20 -2 -43q-2 -44 0.5 -89t21.5 -79zM1273 2298v0q-25 12 -112 -30.5t-191 -105t-182 -113.5l-78 -51l-70 42l448 388z" />
    <glyph glyph-name="ucircumflex" unicode="&#xfb;" horiz-adv-x="1727" 
d="M1635 180v0q22 -44 92 -25q-5 -8 -16.5 -29.5t-25.5 -47.5q-15 -27 -27 -49.5t-17 -30.5l-22 -1t-53.5 -1.5t-63 0.5t-52.5 4q-92 14 -128 97q-20 64 -16 131q1 7 1 14q-165 -138 -370 -205q-124 -42 -261 -57.5t-266 16.5q-141 41 -217.5 150t-88.5 251q-10 137 -4 276
q2 61 2 121v458q0 9 -3 59t-12 106.5t-26.5 93.5t-45.5 25q140 76 279 154q59 33 118 65v-337v-1048v-28q-2 -35 1 -69q7 -86 54 -148.5t130 -84.5q76 -19 153.5 -7.5t150.5 35.5q226 70 403 225v199v356v319q0 23 -2 88t-11 134.5t-26.5 114t-47.5 31.5q149 82 297 165
q50 27 100 55v-195t0.5 -373.5t0.5 -407.5v-270.5v-117.5q0 -20 -1 -43q-3 -44 0 -89t21 -79zM871 2179v0q-23 -19 -42 -35.5t-34 -31t-27 -26.5t-20.5 -22t-15 -18t-10.5 -14.5t-6.5 -11.5t-3.5 -9t-1.5 -6.5t0 -4t1 -2l0.5 -0.5h-194l256 291l1 1l96 109v0l95 -109
l257 -292h-193l0.5 0.5t0.5 2v4t-1 6.5t-3.5 9t-7 11.5t-10.5 14.5t-15 18t-20.5 22t-26.5 26.5t-34 31t-42 35.5v0v0z" />
    <glyph glyph-name="udieresis" unicode="&#xfc;" horiz-adv-x="1728" 
d="M1636 180v0q22 -44 92 -25q-5 -8 -16.5 -29.5t-26.5 -47.5q-14 -27 -26.5 -49.5t-16.5 -30.5l-22 -1t-54 -1.5t-63.5 0.5t-52.5 4q-92 14 -128 97q-19 64 -15 131v14q-164 -138 -369 -205q-124 -42 -261.5 -57.5t-265.5 16.5q-141 41 -217.5 150t-88.5 251
q-10 137 -5 276q2 61 2 121v458q0 9 -3 59t-11.5 106.5t-26 93.5t-46.5 25q140 76 279 154q59 33 118 65v-337v-1048v-28q-1 -35 1 -69q8 -86 55 -148.5t130 -84.5q76 -19 153.5 -7.5t150.5 35.5q225 70 403 225v199v356v319q0 23 -2.5 88t-11 134.5t-26.5 114t-48 31.5
q149 82 298 165q50 27 99 55q0 -33 0.5 -195t0.5 -373.5v-407.5q0 -162 0.5 -270.5t0.5 -117.5q0 -20 -1 -43q-3 -44 -0.5 -89t21.5 -79zM689 1998v0q-61 0 -103 44t-41 106q4 59 45.5 99t98.5 40q59 0 101.5 -43t42.5 -102t-42.5 -101.5t-101.5 -42.5zM1190 1998v0
q-61 0 -103 44t-41 106q4 59 45.5 99t98.5 40q59 0 101.5 -43t42.5 -102t-42.5 -101.5t-101.5 -42.5z" />
    <glyph glyph-name="yacute" unicode="&#xfd;" horiz-adv-x="1859" 
d="M1092 228v0l723 1527h44l-810 -1711q-51 -116 -108.5 -231.5t-129.5 -223.5q-165 -247 -378 -359q-158 -82 -322 -83q-101 0 -193 32l68 185l46 -27.5t120.5 -54t161.5 -26.5t171 51q161 108 293 304q118 185 206 386h-2h-122l-648 1370v0l-116 243q-35 61 -73 103
t-74 42h420zM1415 2298v0q-25 12 -111.5 -30.5t-191 -105t-182.5 -113.5l-78 -51l-70 42l448 388z" />
    <glyph glyph-name="thorn" unicode="&#xfe;" horiz-adv-x="1938" 
d="M1657 1501v0q217 -221 255 -528q26 -274 -99 -512t-367 -370q-258 -133 -538 -93.5t-492 237.5l-3 3v-91v-138v-241.5v-215.5v-107q1 -96 22 -190q4 -19 12.5 -43.5t23.5 -43t40 -18.5h-502q20 0 33.5 14t21.5 31q27 55 34 118.5t7 122.5v177.5v395.5v244v140
q-1 28 -1 55v239v608v306v521v238q-1 43 -6 86q-1 4 -1 8q-3 29 -10.5 70t-26 74t-52.5 33h502q-21 0 -35.5 -15t-23 -35t-12.5 -38q-21 -76 -25 -156.5t-2 -161.5q1 -33 1 -65v-387v0v-262q111 107 251 171q256 112 524.5 63t468.5 -244zM1492 453v0q96 261 63 549
t-207 510q-69 87 -169.5 149t-214.5 57q-325 -30 -551 -265v-479q0 -241 0.5 -424.5t0.5 -255.5q121 -127 281.5 -196.5t334.5 -69.5q62 0 121 8q124 64 209 175.5t132 241.5z" />
    <glyph glyph-name="ydieresis" unicode="&#xff;" horiz-adv-x="1860" 
d="M1816 1751v0h44l-810 -1711q-51 -116 -108.5 -231.5t-129.5 -223.5q-165 -247 -378 -359q-158 -82 -322 -83q-101 0 -193 32l68 185l46 -27.5t120.5 -54t161.5 -26.5t171 51q161 108 293 304q118 185 206 386h-2h-122l-648 1370v0l-116 243q-35 61 -73 103t-74 42h420
l723 -1527zM809 1998v0q-61 0 -103 44t-41 106q3 59 45 99t99 40q59 0 101.5 -43t42.5 -102t-42.5 -101.5t-101.5 -42.5zM1310 1998v0q-61 0 -103 44t-41 106q3 59 45 99t99 40q59 0 101.5 -43t42.5 -102t-42.5 -101.5t-101.5 -42.5z" />
    <glyph glyph-name="gravecomb" unicode="&#x300;" horiz-adv-x="648" 
 />
    <glyph glyph-name="acutecomb" unicode="&#x301;" horiz-adv-x="648" 
 />
    <glyph glyph-name="uni0302" unicode="&#x302;" horiz-adv-x="719" 
 />
    <glyph glyph-name="tildecomb" unicode="&#x303;" horiz-adv-x="719" 
 />
    <glyph glyph-name="uni0304" unicode="&#x304;" horiz-adv-x="786" 
 />
    <glyph glyph-name="uni0307" unicode="&#x307;" horiz-adv-x="304" 
 />
    <glyph glyph-name="uni0308" unicode="&#x308;" horiz-adv-x="805" 
 />
    <glyph glyph-name="uni030A" unicode="&#x30a;" horiz-adv-x="307" 
 />
    <glyph glyph-name="uni030C" unicode="&#x30c;" horiz-adv-x="720" 
 />
    <glyph glyph-name="uni0327" unicode="&#x327;" horiz-adv-x="317" 
 />
    <glyph glyph-name="quoteleft" unicode="&#x2018;" horiz-adv-x="377" 
 />
    <glyph glyph-name="quoteright" unicode="&#x2019;" horiz-adv-x="371" 
 />
    <glyph glyph-name="quotesinglbase" unicode="&#x201a;" horiz-adv-x="362" 
 />
    <glyph glyph-name="quotedblleft" unicode="&#x201c;" horiz-adv-x="794" 
 />
    <glyph glyph-name="quotedblright" unicode="&#x201d;" horiz-adv-x="803" 
 />
    <glyph glyph-name="quotedblbase" unicode="&#x201e;" horiz-adv-x="814" 
 />
    <glyph glyph-name="Euro" unicode="&#x20ac;" horiz-adv-x="2238" 
 />
    <glyph glyph-name="trademark" unicode="&#x2122;" horiz-adv-x="1028" 
 />
    <glyph glyph-name="A.salt" unicode="&#xe000;" horiz-adv-x="2743" 
d="M2743 -6v0h-586q29 0 38.5 29.5t6.5 75.5t-14 97q-109 254 -338.5 448t-538.5 290q-150 45 -310 63l-226 -595v0l-13 -41.5t-28 -102t-23 -121t0 -102t43 -41.5h-307q34 0 73 41.5t76 101.5t67.5 120t49 101t19.5 44l228 599q-191 16 -381 -7q-105 -31 -193 -84.5
t-152.5 -110t-100.5 -96.5l-36 -40l-132 181q223 120 483.5 169.5t526.5 25.5l601 1578h41l844 -2215q3 -6 21 -48t48 -101.5t66.5 -118.5t74.5 -99.5t72 -40.5zM1323 972v0q266 -82 476.5 -237.5t341.5 -362.5q-7 21 -109.5 290t-236.5 621t-238 625l-104 273l-437 -1146
q158 -18 307 -63z" />
    <glyph glyph-name="C.salt" unicode="&#xe001;" horiz-adv-x="2336" 
d="M2238 541v0q13 -12 34 -31.5t40 -37.5t25 -23q-52 -61 -111 -115q-246 -221 -562.5 -302t-638.5 -5q-277 70 -499.5 243t-356.5 426q-144 281 -149 591.5t131 596.5q122 250 331 427.5t475 259.5q314 92 629.5 31t572.5 -262l-148 -116l-82 -64q-97 109 -216 195
t-256 138q-124 48 -257 58q-62 4 -124 -1q-33 -3 -66 -9q-6 -1 -15.5 -3.5t-19 -4.5t-16 -3.5l-6.5 -1.5q-75 -24 -147 -56v0v0v0v0v0q-154 -82 -258 -219t-157 -301q-74 -233 -62 -477.5t97 -476.5t228 -426q119 -162 284.5 -289.5t360 -186t402.5 -13.5v0v0v0
q90 26 172.5 66.5t152.5 102.5q136 123 212 289zM1329 1650v0q0 -112 72.5 -191.5t175.5 -79.5q-103 0 -175.5 -79t-72.5 -191q0 112 -72.5 191t-174.5 79q102 0 174.5 79.5t72.5 191.5z" />
    <glyph glyph-name="O.salt" unicode="&#xe002;" horiz-adv-x="2651" 
d="M2621 1551v0q22 -107 25 -216q6 -286 -102.5 -541.5t-308.5 -448.5t-468 -290q-400 -135 -797 -23.5t-667 435.5q-258 329 -288 734t177 767q208 344 562.5 515.5t754.5 121.5q422 -66 723 -351t389 -703zM1888 150v0l40 26q40 25 78 56q179 158 257.5 377t75 457.5
t-69.5 455.5q-65 217 -189 416t-300.5 349t-399.5 219q-149 44 -300.5 33t-290.5 -82q-139 -73 -237 -195.5t-153 -267.5q-86 -234 -81 -483t86 -487t223 -438q118 -168 285.5 -301.5t366.5 -195.5t412 -16q8 -1 17.5 2.5t18.5 7.5q8 3 13 5l48 18q51 20 100 44zM1575 1327
v0q-102 0 -174.5 79t-72.5 191q0 -112 -72.5 -191t-174.5 -79q102 0 174.5 -79.5t72.5 -191.5q0 112 72.5 191.5t174.5 79.5z" />
    <glyph glyph-name="A.ss01" unicode="&#xe003;" horiz-adv-x="1883" 
d="M1883 492v0h-476q28 0 34 33.5t-1 82.5t-19.5 97.5t-23 82.5l-10.5 34v0l-57 148h-992l-56 -146q-1 -1 -11 -34.5t-22 -82.5t-18.5 -98t0 -83t34.5 -34h-250q35 0 75.5 50.5t76 115.5t58 115.5l22.5 50.5v0l687 1802h33l687 -1802q1 -2 23 -51.5t57 -114.5t74.5 -115.5
t74.5 -50.5zM350 1003v0h968l-484 1269zM705 116v0q0 -54 38 -91.5t91 -37.5t91 37.5t38 91.5q0 53 -38 90.5t-91 37.5t-91 -37.5t-38 -90.5z" />
    <glyph glyph-name="E.salt" unicode="&#xe004;" horiz-adv-x="1491" 
d="M1491 2627v0v-109q0 26 -28.5 41.5t-72 24t-89.5 11.5h-920q0 -1 -1 -1v-1q-6 -11 -10 -24q-17 -53 -22 -120q-2 -19 -3 -38q0 -12 -1 -24v-763h742v-33h-742v-858q1 -12 1 -24q1 -19 3 -38q5 -67 22 -120q4 -14 10 -25v0q1 0 1 -1h925q45 4 86.5 12.5t69 24t27.5 40.5
v-77v-32h-1174h-300q25 0 40.5 27.5t24 69.5t11.5 87l2 28v1710l-2 28q-3 45 -11.5 87t-24 69.5t-40.5 27.5h1476zM624 120v0q0 -54 38 -91.5t91 -37.5t91 37.5t38 91.5q0 53 -38 90.5t-91 37.5t-91 -37.5t-38 -90.5z" />
    <glyph glyph-name="O.ss01" unicode="&#xe005;" horiz-adv-x="2192" 
d="M2145 1769v0q49 -256 -22.5 -496.5t-240 -426.5t-411.5 -279q-323 -115 -645.5 -28.5t-545.5 346.5q-212 265 -238.5 594t140.5 624q168 279 455 418.5t611 98.5q341 -53 583.5 -283.5t313.5 -567.5zM1554 638v0q56 39 106 80.5t92 97.5q86 120 126 264q45 163 38.5 333
t-55.5 332q-53 176 -153.5 337.5t-243.5 282.5t-324 176q-247 72 -477 -41q-112 -60 -190.5 -159t-122.5 -217q-102 -286 -45 -588.5t231 -546.5q96 -136 231 -243t295.5 -157t331.5 -13l9 2.5t21 6.5l24 8t18 7q45 17 88 38zM1101 239v0q53 0 90.5 -37.5t37.5 -91.5
q0 -53 -37.5 -90.5t-90.5 -37.5q-54 0 -91.5 37.5t-37.5 90.5q0 54 37.5 91.5t91.5 37.5z" />
    <glyph glyph-name="U.salt" unicode="&#xe006;" horiz-adv-x="1786" 
d="M1596 2630v0h190q-19 0 -31 -14t-19 -32.5t-11 -34.5q-12 -66 -16 -337.5t-3.5 -558t1.5 -399.5v-32q0 -91 -27 -179t-76 -166q-118 -185 -310 -282.5t-410 -94.5v0q-50 1 -100 7q-211 29 -382.5 152t-255.5 320q-39 93 -50 194q-5 55 -3 110v10v183.5v374.5v374.5v184.5
q-1 45 -8 89v4q-3 21 -9.5 50.5t-20.5 53t-40 23.5h408q-24 0 -37.5 -21.5t-20.5 -48t-10 -46.5v-2q-10 -61 -11 -123v-131.5v-293v-342.5v-280v-103q0 -85 17 -171q18 -115 62 -225t128 -193q98 -92 231 -110q152 -21 302 12q264 60 438 266q71 88 111.5 193t40.5 217v141
v405.5v428.5v209q-1 42 -7 84q0 2 -1 4q-2 21 -8.5 51t-21 54.5t-40.5 24.5zM842 116v0q0 -53 37.5 -91t90.5 -38q54 0 91.5 38t37.5 91t-37.5 91t-91.5 38q-53 0 -90.5 -38t-37.5 -91z" />
    </font>
</defs>
</svg>
